<svg width="84" height="84" viewBox="0 0 84 84" fill="none" xmlns="http://www.w3.org/2000/svg">
<path d="M70.3783 52.7158C70.0772 52.7158 69.7885 52.5962 69.5756 52.3834C69.3628 52.1705 69.2432 51.8818 69.2432 51.5807V48.2775C69.2432 47.9764 69.3628 47.6877 69.5756 47.4748C69.7885 47.2619 70.0772 47.1423 70.3783 47.1423C70.6794 47.1423 70.9681 47.2619 71.181 47.4748C71.3938 47.6877 71.5134 47.9764 71.5134 48.2775V51.5807C71.5134 51.8818 71.3938 52.1705 71.181 52.3834C70.9681 52.5962 70.6794 52.7158 70.3783 52.7158Z" fill="black"/>
<path d="M66.973 81.7297H17.0271C15.8229 81.7297 14.668 81.2513 13.8165 80.3998C12.9649 79.5483 12.4866 78.3934 12.4866 77.1892V6.8108C12.4866 5.60658 12.9649 4.45167 13.8165 3.60016C14.668 2.74864 15.8229 2.27026 17.0271 2.27026H66.973C68.1773 2.27026 69.3322 2.74864 70.1837 3.60016C71.0352 4.45167 71.5136 5.60658 71.5136 6.8108V29.014C71.5136 29.3151 71.394 29.6038 71.1811 29.8167C70.9682 30.0296 70.6795 30.1492 70.3785 30.1492C70.0774 30.1492 69.7887 30.0296 69.5758 29.8167C69.3629 29.6038 69.2433 29.3151 69.2433 29.014V6.8108C69.2433 6.20869 69.0041 5.63124 68.5784 5.20548C68.1526 4.77972 67.5752 4.54053 66.973 4.54053H17.0271C16.425 4.54053 15.8475 4.77972 15.4218 5.20548C14.996 5.63124 14.7568 6.20869 14.7568 6.8108V77.1892C14.7568 77.7913 14.996 78.3687 15.4218 78.7945C15.8475 79.2203 16.425 79.4594 17.0271 79.4594H66.973C67.5752 79.4594 68.1526 79.2203 68.5784 78.7945C69.0041 78.3687 69.2433 77.7913 69.2433 77.1892V59.5265C69.2433 59.2254 69.3629 58.9367 69.5758 58.7238C69.7887 58.5109 70.0774 58.3913 70.3785 58.3913C70.6795 58.3913 70.9682 58.5109 71.1811 58.7238C71.394 58.9367 71.5136 59.2254 71.5136 59.5265V77.1892C71.5136 78.3934 71.0352 79.5483 70.1837 80.3998C69.3322 81.2513 68.1773 81.7297 66.973 81.7297Z" fill="black"/>
<rect x="20.6958" y="33.4783" width="8.52174" height="7.30435" fill="url(#paint0_linear)"/>
<rect x="37.7393" y="34.0869" width="8.52174" height="7.30434" fill="url(#paint1_linear)"/>
<rect x="54.7825" y="34.0869" width="8.52174" height="7.30434" fill="url(#paint2_linear)"/>
<rect x="21.9131" y="48.6958" width="8.52174" height="7.30435" fill="url(#paint3_linear)"/>
<rect x="37.7393" y="48.6958" width="8.52174" height="7.30435" fill="url(#paint4_linear)"/>
<rect x="37.7393" y="64.5217" width="8.52174" height="7.30435" fill="url(#paint5_linear)"/>
<rect x="20.6958" y="63.9131" width="8.52174" height="7.30435" fill="url(#paint6_linear)"/>
<rect x="55.3914" y="49.3042" width="8.52173" height="21.913" fill="url(#paint7_linear)"/>
<path d="M70.3783 41.4663C70.0772 41.4663 69.7885 41.3467 69.5756 41.1339C69.3628 40.921 69.2432 40.6322 69.2432 40.3312V36.9598C69.2432 36.6588 69.3628 36.3701 69.5756 36.1572C69.7885 35.9443 70.0772 35.8247 70.3783 35.8247C70.6794 35.8247 70.9681 35.9443 71.181 36.1572C71.3938 36.3701 71.5134 36.6588 71.5134 36.9598V40.3312C71.5134 40.6322 71.3938 40.921 71.181 41.1339C70.9681 41.3467 70.6794 41.4663 70.3783 41.4663Z" fill="black"/>
<path d="M61.5811 25.5404H22.419C21.8168 25.5404 21.2394 25.3013 20.8136 24.8755C20.3879 24.4497 20.1487 23.8723 20.1487 23.2702V13.054C20.1487 12.4518 20.3879 11.8744 20.8136 11.4486C21.2394 11.0229 21.8168 10.7837 22.419 10.7837H61.5811C62.1832 10.7837 62.7607 11.0229 63.1865 11.4486C63.6122 11.8744 63.8514 12.4518 63.8514 13.054V23.2702C63.8514 23.8723 63.6122 24.4497 63.1865 24.8755C62.7607 25.3013 62.1832 25.5404 61.5811 25.5404ZM22.419 13.054V23.2702H61.5811V13.054H22.419Z" fill="black"/>
<path d="M62.0544 42.6617H55.7158C55.1137 42.6617 54.5363 42.4225 54.1105 41.9967C53.6847 41.571 53.4456 40.9935 53.4456 40.3914V34.054C53.4456 33.4518 53.6847 32.8744 54.1105 32.4486C54.5363 32.0229 55.1137 31.7837 55.7158 31.7837H62.0544C62.6565 31.7837 63.234 32.0229 63.6597 32.4486C64.0855 32.8744 64.3247 33.4518 64.3247 34.054V40.3914C64.3247 40.9935 64.0855 41.571 63.6597 41.9967C63.234 42.4225 62.6565 42.6617 62.0544 42.6617ZM55.7158 34.054V40.3914H62.0544V34.054H55.7158Z" fill="black"/>
<path d="M45.1694 42.6617H38.8308C38.2287 42.6617 37.6513 42.4225 37.2255 41.9967C36.7997 41.571 36.5605 40.9935 36.5605 40.3914V34.054C36.5605 33.4518 36.7997 32.8744 37.2255 32.4486C37.6513 32.0229 38.2287 31.7837 38.8308 31.7837H45.1694C45.7715 31.7837 46.349 32.0229 46.7747 32.4486C47.2005 32.8744 47.4397 33.4518 47.4397 34.054V40.3914C47.4397 40.9935 47.2005 41.571 46.7747 41.9967C46.349 42.4225 45.7715 42.6617 45.1694 42.6617ZM38.8308 34.054V40.3914H45.1694V34.054H38.8308Z" fill="black"/>
<path d="M28.2842 42.6617H21.9468C21.3447 42.6617 20.7672 42.4225 20.3415 41.9967C19.9157 41.571 19.6765 40.9935 19.6765 40.3914V34.054C19.6765 33.4518 19.9157 32.8744 20.3415 32.4486C20.7672 32.0229 21.3447 31.7837 21.9468 31.7837H28.2842C28.8864 31.7837 29.4638 32.0229 29.8896 32.4486C30.3153 32.8744 30.5545 33.4518 30.5545 34.054V40.3914C30.5545 40.9935 30.3153 41.571 29.8896 41.9967C29.4638 42.4225 28.8864 42.6617 28.2842 42.6617ZM21.9468 34.054V40.3914H28.2842V34.054H21.9468Z" fill="black"/>
<path d="M45.1694 58.0813H38.8308C38.2287 58.0813 37.6513 57.8421 37.2255 57.4163C36.7997 56.9906 36.5605 56.4131 36.5605 55.811V49.4724C36.5605 48.8703 36.7997 48.2929 37.2255 47.8671C37.6513 47.4413 38.2287 47.2021 38.8308 47.2021H45.1694C45.7715 47.2021 46.349 47.4413 46.7747 47.8671C47.2005 48.2929 47.4397 48.8703 47.4397 49.4724V55.811C47.4397 56.4131 47.2005 56.9906 46.7747 57.4163C46.349 57.8421 45.7715 58.0813 45.1694 58.0813ZM38.8308 49.4724V55.811H45.1694V49.4724H38.8308Z" fill="black"/>
<path d="M28.2842 58.0813H21.9468C21.3447 58.0813 20.7672 57.8421 20.3415 57.4163C19.9157 56.9906 19.6765 56.4131 19.6765 55.811V49.4724C19.6765 48.8703 19.9157 48.2929 20.3415 47.8671C20.7672 47.4413 21.3447 47.2021 21.9468 47.2021H28.2842C28.8864 47.2021 29.4638 47.4413 29.8896 47.8671C30.3153 48.2929 30.5545 48.8703 30.5545 49.4724V55.811C30.5545 56.4131 30.3153 56.9906 29.8896 57.4163C29.4638 57.8421 28.8864 58.0813 28.2842 58.0813ZM21.9468 49.4724V55.811H28.2842V49.4724H21.9468Z" fill="black"/>
<path d="M62.0578 73.5001H55.7124C55.1103 73.5001 54.5328 73.2609 54.1071 72.8351C53.6813 72.4094 53.4421 71.8319 53.4421 71.2298V49.4692C53.4421 48.8671 53.6813 48.2897 54.1071 47.8639C54.5328 47.4382 55.1103 47.199 55.7124 47.199H62.0578C62.6599 47.199 63.2374 47.4382 63.6631 47.8639C64.0889 48.2897 64.3281 48.8671 64.3281 49.4692V71.2298C64.3281 71.8319 64.0889 72.4094 63.6631 72.8351C63.2374 73.2609 62.6599 73.5001 62.0578 73.5001ZM62.0578 49.4681H55.7124V71.2298H62.0578V49.4681Z" fill="black"/>
<path d="M45.1694 73.5001H38.8308C38.2287 73.5001 37.6513 73.2609 37.2255 72.8351C36.7997 72.4094 36.5605 71.8319 36.5605 71.2298V64.8923C36.5605 64.2902 36.7997 63.7128 37.2255 63.287C37.6513 62.8613 38.2287 62.6221 38.8308 62.6221H45.1694C45.7715 62.6221 46.349 62.8613 46.7747 63.287C47.2005 63.7128 47.4397 64.2902 47.4397 64.8923V71.2298C47.4397 71.8319 47.2005 72.4094 46.7747 72.8351C46.349 73.2609 45.7715 73.5001 45.1694 73.5001ZM38.8308 64.8923V71.2298H45.1694V64.8923H38.8308Z" fill="black"/>
<path d="M28.2842 73.5001H21.9468C21.3447 73.5001 20.7672 73.2609 20.3415 72.8351C19.9157 72.4094 19.6765 71.8319 19.6765 71.2298V64.8923C19.6765 64.2902 19.9157 63.7128 20.3415 63.287C20.7672 62.8613 21.3447 62.6221 21.9468 62.6221H28.2842C28.8864 62.6221 29.4638 62.8613 29.8896 63.287C30.3153 63.7128 30.5545 64.2902 30.5545 64.8923V71.2298C30.5545 71.8319 30.3153 72.4094 29.8896 72.8351C29.4638 73.2609 28.8864 73.5001 28.2842 73.5001ZM21.9468 64.8923V71.2298H28.2842V64.8923H21.9468Z" fill="black"/>
<defs>
<linearGradient id="paint0_linear" x1="22.5219" y1="32.8696" x2="26.7828" y2="40.7826" gradientUnits="userSpaceOnUse">
<stop stop-color="#FF5B14"/>
<stop offset="1" stop-color="#FF7F47"/>
</linearGradient>
<linearGradient id="paint1_linear" x1="39.5653" y1="33.4782" x2="43.8262" y2="41.3913" gradientUnits="userSpaceOnUse">
<stop stop-color="#FF5B14"/>
<stop offset="1" stop-color="#FF7F47"/>
</linearGradient>
<linearGradient id="paint2_linear" x1="56.6086" y1="33.4782" x2="60.8694" y2="41.3913" gradientUnits="userSpaceOnUse">
<stop stop-color="#FF5B14"/>
<stop offset="1" stop-color="#FF7F47"/>
</linearGradient>
<linearGradient id="paint3_linear" x1="23.7392" y1="48.0871" x2="28" y2="56.0002" gradientUnits="userSpaceOnUse">
<stop stop-color="#FF5B14"/>
<stop offset="1" stop-color="#FF7F47"/>
</linearGradient>
<linearGradient id="paint4_linear" x1="39.5653" y1="48.0871" x2="43.8262" y2="56.0002" gradientUnits="userSpaceOnUse">
<stop stop-color="#FF5B14"/>
<stop offset="1" stop-color="#FF7F47"/>
</linearGradient>
<linearGradient id="paint5_linear" x1="39.5653" y1="63.913" x2="43.8262" y2="71.8261" gradientUnits="userSpaceOnUse">
<stop stop-color="#FF5B14"/>
<stop offset="1" stop-color="#FF7F47"/>
</linearGradient>
<linearGradient id="paint6_linear" x1="22.5219" y1="63.3044" x2="26.7828" y2="71.2174" gradientUnits="userSpaceOnUse">
<stop stop-color="#FF5B14"/>
<stop offset="1" stop-color="#FF7F47"/>
</linearGradient>
<linearGradient id="paint7_linear" x1="57.2174" y1="47.4781" x2="70.9221" y2="55.9619" gradientUnits="userSpaceOnUse">
<stop stop-color="#FF5B14"/>
<stop offset="1" stop-color="#FF7F47"/>
</linearGradient>
</defs>
</svg>
