<svg width="337" height="84" viewBox="0 0 337 84" fill="none" xmlns="http://www.w3.org/2000/svg">
<ellipse cx="3.07187" cy="2.89008" rx="2.14816" ry="2.24884" fill="#C2C2C2"/>
<ellipse cx="3.07187" cy="65.858" rx="2.14816" ry="2.2489" fill="#C2C2C2"/>
<ellipse cx="3.07187" cy="34.374" rx="2.14816" ry="2.2489" fill="#C2C2C2"/>
<ellipse cx="3.07187" cy="18.6321" rx="2.14816" ry="2.24878" fill="#C2C2C2"/>
<ellipse cx="3.07187" cy="81.5999" rx="2.14816" ry="2.2489" fill="#C2C2C2"/>
<ellipse cx="3.07187" cy="50.116" rx="2.14816" ry="2.24872" fill="#C2C2C2"/>
<ellipse cx="123.369" cy="2.89008" rx="2.14816" ry="2.24884" fill="#C2C2C2"/>
<ellipse cx="243.666" cy="2.89008" rx="2.14819" ry="2.24884" fill="#C2C2C2"/>
<ellipse cx="123.369" cy="65.858" rx="2.14816" ry="2.2489" fill="#C2C2C2"/>
<ellipse cx="243.666" cy="65.858" rx="2.14819" ry="2.2489" fill="#C2C2C2"/>
<ellipse cx="123.369" cy="34.374" rx="2.14816" ry="2.2489" fill="#C2C2C2"/>
<ellipse cx="243.666" cy="34.374" rx="2.14819" ry="2.2489" fill="#C2C2C2"/>
<ellipse cx="123.369" cy="18.6321" rx="2.14816" ry="2.24878" fill="#C2C2C2"/>
<ellipse cx="243.666" cy="18.6321" rx="2.14819" ry="2.24878" fill="#C2C2C2"/>
<ellipse cx="123.369" cy="81.5999" rx="2.14816" ry="2.2489" fill="#C2C2C2"/>
<ellipse cx="243.666" cy="81.5999" rx="2.14819" ry="2.2489" fill="#C2C2C2"/>
<ellipse cx="123.369" cy="50.116" rx="2.14816" ry="2.24872" fill="#C2C2C2"/>
<ellipse cx="243.666" cy="50.116" rx="2.14819" ry="2.24872" fill="#C2C2C2"/>
<ellipse cx="138.406" cy="2.89008" rx="2.14816" ry="2.24884" fill="#C2C2C2"/>
<ellipse cx="258.703" cy="2.89008" rx="2.14819" ry="2.24884" fill="#C2C2C2"/>
<ellipse cx="138.406" cy="65.858" rx="2.14816" ry="2.2489" fill="#C2C2C2"/>
<ellipse cx="258.703" cy="65.858" rx="2.14819" ry="2.2489" fill="#C2C2C2"/>
<ellipse cx="138.406" cy="34.374" rx="2.14816" ry="2.2489" fill="#C2C2C2"/>
<ellipse cx="258.703" cy="34.374" rx="2.14819" ry="2.2489" fill="#C2C2C2"/>
<ellipse cx="138.406" cy="18.6321" rx="2.14816" ry="2.24878" fill="#C2C2C2"/>
<ellipse cx="258.703" cy="18.6321" rx="2.14819" ry="2.24878" fill="#C2C2C2"/>
<ellipse cx="138.406" cy="81.5999" rx="2.14816" ry="2.2489" fill="#C2C2C2"/>
<ellipse cx="258.703" cy="81.5999" rx="2.14819" ry="2.2489" fill="#C2C2C2"/>
<ellipse cx="138.406" cy="50.116" rx="2.14816" ry="2.24872" fill="#C2C2C2"/>
<ellipse cx="258.703" cy="50.116" rx="2.14819" ry="2.24872" fill="#C2C2C2"/>
<ellipse cx="153.443" cy="2.89008" rx="2.14816" ry="2.24884" fill="#C2C2C2"/>
<ellipse cx="273.74" cy="2.89008" rx="2.14819" ry="2.24884" fill="#C2C2C2"/>
<ellipse cx="153.443" cy="65.858" rx="2.14816" ry="2.2489" fill="#C2C2C2"/>
<ellipse cx="273.74" cy="65.858" rx="2.14819" ry="2.2489" fill="#C2C2C2"/>
<ellipse cx="153.443" cy="34.374" rx="2.14816" ry="2.2489" fill="#C2C2C2"/>
<ellipse cx="273.74" cy="34.374" rx="2.14819" ry="2.2489" fill="#C2C2C2"/>
<ellipse cx="153.443" cy="18.6321" rx="2.14816" ry="2.24878" fill="#C2C2C2"/>
<ellipse cx="273.74" cy="18.6321" rx="2.14819" ry="2.24878" fill="#C2C2C2"/>
<ellipse cx="153.443" cy="81.5999" rx="2.14816" ry="2.2489" fill="#C2C2C2"/>
<ellipse cx="273.74" cy="81.5999" rx="2.14819" ry="2.2489" fill="#C2C2C2"/>
<ellipse cx="153.443" cy="50.116" rx="2.14816" ry="2.24872" fill="#C2C2C2"/>
<ellipse cx="273.74" cy="50.116" rx="2.14819" ry="2.24872" fill="#C2C2C2"/>
<ellipse cx="168.48" cy="2.89008" rx="2.14819" ry="2.24884" fill="#C2C2C2"/>
<ellipse cx="303.815" cy="2.89008" rx="2.14819" ry="2.24884" fill="#C2C2C2"/>
<ellipse cx="168.48" cy="65.858" rx="2.14819" ry="2.2489" fill="#C2C2C2"/>
<ellipse cx="303.815" cy="65.858" rx="2.14819" ry="2.2489" fill="#C2C2C2"/>
<ellipse cx="168.48" cy="34.374" rx="2.14819" ry="2.2489" fill="#C2C2C2"/>
<ellipse cx="303.815" cy="34.374" rx="2.14819" ry="2.2489" fill="#C2C2C2"/>
<ellipse cx="168.48" cy="18.6321" rx="2.14819" ry="2.24878" fill="#C2C2C2"/>
<ellipse cx="303.815" cy="18.6321" rx="2.14819" ry="2.24878" fill="#C2C2C2"/>
<ellipse cx="168.48" cy="81.5999" rx="2.14819" ry="2.2489" fill="#C2C2C2"/>
<ellipse cx="303.815" cy="81.5999" rx="2.14819" ry="2.2489" fill="#C2C2C2"/>
<ellipse cx="168.48" cy="50.116" rx="2.14819" ry="2.24872" fill="#C2C2C2"/>
<ellipse cx="303.815" cy="50.116" rx="2.14819" ry="2.24872" fill="#C2C2C2"/>
<ellipse cx="183.518" cy="2.89008" rx="2.14819" ry="2.24884" fill="#C2C2C2"/>
<ellipse cx="318.852" cy="2.89008" rx="2.14819" ry="2.24884" fill="#C2C2C2"/>
<ellipse cx="183.518" cy="65.858" rx="2.14819" ry="2.2489" fill="#C2C2C2"/>
<ellipse cx="318.852" cy="65.858" rx="2.14819" ry="2.2489" fill="#C2C2C2"/>
<ellipse cx="183.518" cy="34.374" rx="2.14819" ry="2.2489" fill="#C2C2C2"/>
<ellipse cx="318.852" cy="34.374" rx="2.14819" ry="2.2489" fill="#C2C2C2"/>
<ellipse cx="183.518" cy="18.6321" rx="2.14819" ry="2.24878" fill="#C2C2C2"/>
<ellipse cx="318.852" cy="18.6321" rx="2.14819" ry="2.24878" fill="#C2C2C2"/>
<ellipse cx="183.518" cy="81.5999" rx="2.14819" ry="2.2489" fill="#C2C2C2"/>
<ellipse cx="318.852" cy="81.5999" rx="2.14819" ry="2.2489" fill="#C2C2C2"/>
<ellipse cx="183.518" cy="50.116" rx="2.14819" ry="2.24872" fill="#C2C2C2"/>
<ellipse cx="318.852" cy="50.116" rx="2.14819" ry="2.24872" fill="#C2C2C2"/>
<ellipse cx="198.555" cy="2.89008" rx="2.14819" ry="2.24884" fill="#C2C2C2"/>
<ellipse cx="333.889" cy="2.89008" rx="2.14819" ry="2.24884" fill="#C2C2C2"/>
<ellipse cx="198.555" cy="65.858" rx="2.14819" ry="2.2489" fill="#C2C2C2"/>
<ellipse cx="333.889" cy="65.858" rx="2.14819" ry="2.2489" fill="#C2C2C2"/>
<ellipse cx="198.555" cy="34.374" rx="2.14819" ry="2.2489" fill="#C2C2C2"/>
<ellipse cx="333.889" cy="34.374" rx="2.14819" ry="2.2489" fill="#C2C2C2"/>
<ellipse cx="198.555" cy="18.6321" rx="2.14819" ry="2.24878" fill="#C2C2C2"/>
<ellipse cx="333.889" cy="18.6321" rx="2.14819" ry="2.24878" fill="#C2C2C2"/>
<ellipse cx="198.555" cy="81.5999" rx="2.14819" ry="2.2489" fill="#C2C2C2"/>
<ellipse cx="333.889" cy="81.5999" rx="2.14819" ry="2.2489" fill="#C2C2C2"/>
<ellipse cx="198.555" cy="50.116" rx="2.14819" ry="2.24872" fill="#C2C2C2"/>
<ellipse cx="333.889" cy="50.116" rx="2.14819" ry="2.24872" fill="#C2C2C2"/>
<ellipse cx="213.592" cy="2.89008" rx="2.14819" ry="2.24884" fill="#C2C2C2"/>
<ellipse cx="213.592" cy="65.858" rx="2.14819" ry="2.2489" fill="#C2C2C2"/>
<ellipse cx="213.592" cy="34.374" rx="2.14819" ry="2.2489" fill="#C2C2C2"/>
<ellipse cx="213.592" cy="18.6321" rx="2.14819" ry="2.24878" fill="#C2C2C2"/>
<ellipse cx="213.592" cy="81.5999" rx="2.14819" ry="2.2489" fill="#C2C2C2"/>
<ellipse cx="213.592" cy="50.116" rx="2.14819" ry="2.24872" fill="#C2C2C2"/>
<ellipse cx="228.629" cy="2.89008" rx="2.14819" ry="2.24884" fill="#C2C2C2"/>
<ellipse cx="228.629" cy="65.858" rx="2.14819" ry="2.2489" fill="#C2C2C2"/>
<ellipse cx="228.629" cy="34.374" rx="2.14819" ry="2.2489" fill="#C2C2C2"/>
<ellipse cx="228.629" cy="18.6321" rx="2.14819" ry="2.24878" fill="#C2C2C2"/>
<ellipse cx="228.629" cy="81.5999" rx="2.14819" ry="2.2489" fill="#C2C2C2"/>
<ellipse cx="228.629" cy="50.116" rx="2.14819" ry="2.24872" fill="#C2C2C2"/>
<ellipse cx="18.1091" cy="2.89008" rx="2.14816" ry="2.24884" fill="#C2C2C2"/>
<ellipse cx="18.1091" cy="65.858" rx="2.14816" ry="2.2489" fill="#C2C2C2"/>
<ellipse cx="18.1091" cy="34.374" rx="2.14816" ry="2.2489" fill="#C2C2C2"/>
<ellipse cx="18.1091" cy="18.6321" rx="2.14816" ry="2.24878" fill="#C2C2C2"/>
<ellipse cx="18.1091" cy="81.5999" rx="2.14816" ry="2.2489" fill="#C2C2C2"/>
<ellipse cx="18.1091" cy="50.116" rx="2.14816" ry="2.24872" fill="#C2C2C2"/>
<ellipse cx="33.1462" cy="2.89008" rx="2.14816" ry="2.24884" fill="#C2C2C2"/>
<ellipse cx="33.1462" cy="65.858" rx="2.14816" ry="2.2489" fill="#C2C2C2"/>
<ellipse cx="33.1462" cy="34.374" rx="2.14816" ry="2.2489" fill="#C2C2C2"/>
<ellipse cx="33.1462" cy="18.6321" rx="2.14816" ry="2.24878" fill="#C2C2C2"/>
<ellipse cx="33.1462" cy="81.5999" rx="2.14816" ry="2.2489" fill="#C2C2C2"/>
<ellipse cx="33.1462" cy="50.116" rx="2.14816" ry="2.24872" fill="#C2C2C2"/>
<ellipse cx="48.1833" cy="2.89008" rx="2.14816" ry="2.24884" fill="#C2C2C2"/>
<ellipse cx="48.1833" cy="65.858" rx="2.14816" ry="2.2489" fill="#C2C2C2"/>
<ellipse cx="48.1833" cy="34.374" rx="2.14816" ry="2.2489" fill="#C2C2C2"/>
<ellipse cx="48.1833" cy="18.6321" rx="2.14816" ry="2.24878" fill="#C2C2C2"/>
<ellipse cx="48.1833" cy="81.5999" rx="2.14816" ry="2.2489" fill="#C2C2C2"/>
<ellipse cx="48.1833" cy="50.116" rx="2.14816" ry="2.24872" fill="#C2C2C2"/>
<ellipse cx="63.2204" cy="2.89008" rx="2.14816" ry="2.24884" fill="#C2C2C2"/>
<ellipse cx="63.2204" cy="65.858" rx="2.14816" ry="2.2489" fill="#C2C2C2"/>
<ellipse cx="63.2204" cy="34.374" rx="2.14816" ry="2.2489" fill="#C2C2C2"/>
<ellipse cx="63.2204" cy="18.6321" rx="2.14816" ry="2.24878" fill="#C2C2C2"/>
<ellipse cx="63.2204" cy="81.5999" rx="2.14816" ry="2.2489" fill="#C2C2C2"/>
<ellipse cx="63.2204" cy="50.116" rx="2.14816" ry="2.24872" fill="#C2C2C2"/>
<ellipse cx="78.2575" cy="2.89008" rx="2.14816" ry="2.24884" fill="#C2C2C2"/>
<ellipse cx="78.2575" cy="65.858" rx="2.14816" ry="2.2489" fill="#C2C2C2"/>
<ellipse cx="78.2575" cy="34.374" rx="2.14816" ry="2.2489" fill="#C2C2C2"/>
<ellipse cx="78.2575" cy="18.6321" rx="2.14816" ry="2.24878" fill="#C2C2C2"/>
<ellipse cx="78.2575" cy="81.5999" rx="2.14816" ry="2.2489" fill="#C2C2C2"/>
<ellipse cx="78.2575" cy="50.116" rx="2.14816" ry="2.24872" fill="#C2C2C2"/>
<ellipse cx="93.2946" cy="2.89008" rx="2.14816" ry="2.24884" fill="#C2C2C2"/>
<ellipse cx="93.2946" cy="65.858" rx="2.14816" ry="2.2489" fill="#C2C2C2"/>
<ellipse cx="93.2946" cy="34.374" rx="2.14816" ry="2.2489" fill="#C2C2C2"/>
<ellipse cx="93.2946" cy="18.6321" rx="2.14816" ry="2.24878" fill="#C2C2C2"/>
<ellipse cx="93.2946" cy="81.5999" rx="2.14816" ry="2.2489" fill="#C2C2C2"/>
<ellipse cx="93.2946" cy="50.116" rx="2.14816" ry="2.24872" fill="#C2C2C2"/>
<ellipse cx="108.332" cy="2.89008" rx="2.14816" ry="2.24884" fill="#C2C2C2"/>
<ellipse cx="108.332" cy="65.858" rx="2.14816" ry="2.2489" fill="#C2C2C2"/>
<ellipse cx="108.332" cy="34.374" rx="2.14816" ry="2.2489" fill="#C2C2C2"/>
<ellipse cx="108.332" cy="18.6321" rx="2.14816" ry="2.24878" fill="#C2C2C2"/>
<ellipse cx="108.332" cy="81.5999" rx="2.14816" ry="2.2489" fill="#C2C2C2"/>
<ellipse cx="108.332" cy="50.116" rx="2.14816" ry="2.24872" fill="#C2C2C2"/>
<ellipse cx="289.148" cy="2.89008" rx="2.14819" ry="2.24884" fill="#C2C2C2"/>
<ellipse cx="289.148" cy="65.858" rx="2.14819" ry="2.2489" fill="#C2C2C2"/>
<ellipse cx="289.148" cy="34.374" rx="2.14819" ry="2.2489" fill="#C2C2C2"/>
<ellipse cx="289.148" cy="18.6321" rx="2.14819" ry="2.24878" fill="#C2C2C2"/>
<ellipse cx="289.148" cy="81.5999" rx="2.14819" ry="2.2489" fill="#C2C2C2"/>
<ellipse cx="289.148" cy="50.116" rx="2.14819" ry="2.24872" fill="#C2C2C2"/>
</svg>
