<svg width="20" height="30" viewBox="0 0 20 30" fill="none" xmlns="http://www.w3.org/2000/svg">
<path d="M9.70408 17.7207C9.94138 17.7207 10.1338 17.5283 10.1338 17.291C10.1338 17.0537 9.94138 16.8613 9.70408 16.8613C9.46678 16.8613 9.27441 17.0537 9.27441 17.291C9.27441 17.5283 9.46678 17.7207 9.70408 17.7207Z" fill="black"/>
<path d="M10.3916 19.0957C10.6289 19.0957 10.8213 18.9033 10.8213 18.666C10.8213 18.4287 10.6289 18.2363 10.3916 18.2363C10.1543 18.2363 9.96191 18.4287 9.96191 18.666C9.96191 18.9033 10.1543 19.0957 10.3916 19.0957Z" fill="black"/>
<path d="M9.50364 20.392C9.74094 20.392 9.93331 20.1997 9.93331 19.9624C9.93331 19.7251 9.74094 19.5327 9.50364 19.5327C9.26634 19.5327 9.07397 19.7251 9.07397 19.9624C9.07397 20.1997 9.26634 20.392 9.50364 20.392Z" fill="black"/>
<path d="M11.1718 14.5687V13.8777C11.1718 13.4621 11.4442 13.0938 11.8496 12.9611C14.2457 12.1771 15.9598 9.98422 15.9598 7.1167C15.9598 6.874 15.7631 6.67725 15.5203 6.67725H4.47949C4.2368 6.67725 4.04004 6.874 4.04004 7.1167C4.04004 9.8501 5.65336 12.1442 8.15022 12.9611C8.55563 13.0938 8.82803 13.4621 8.82803 13.8777V14.5687C8.82803 15.0372 9.20918 15.4183 9.67764 15.4183H10.3222C10.7907 15.4183 11.1718 15.0372 11.1718 14.5687ZM10.2929 13.8777V14.5394H9.70699V13.8777C9.70699 13.081 9.19125 12.377 8.42355 12.1258C6.39645 11.4625 5.0894 9.7335 4.93453 7.55621H15.0654C14.9105 9.7335 13.6035 11.4625 11.5764 12.1258C10.8087 12.3769 10.2929 13.081 10.2929 13.8777Z" fill="black"/>
<path d="M17.5238 7.29521V4.87213C18.2014 4.63764 18.6638 4.03184 18.7238 3.33029C19.3719 3.03328 19.8235 2.37885 19.8235 1.62059V0.732422C19.8235 0.328535 19.4949 0 19.091 0H5.14022C4.89753 0 4.70077 0.196758 4.70077 0.439453C4.70077 0.682148 4.89753 0.878906 5.14022 0.878906H18.9446V1.62053C18.9446 2.12707 18.566 2.54584 18.0773 2.61158C17.7916 2.62564 17.8937 2.6216 2.05649 2.6216C1.5104 2.6216 1.05542 2.17699 1.05542 1.62053V0.878906H3.08944C3.33214 0.878906 3.5289 0.682148 3.5289 0.439453C3.5289 0.196758 3.33214 0 3.08944 0H0.908936C0.505049 0 0.176514 0.328535 0.176514 0.732422V1.62053C0.176514 2.26998 0.507568 2.84344 1.00972 3.18135C1.01054 4.04613 1.62876 4.78494 2.47614 4.94092V7.29516C2.47614 10.3824 4.36837 13.1532 7.21679 14.2868V15.6704C4.36837 16.804 2.47614 19.5748 2.47614 22.6621V24.8983C2.03458 24.9783 1.64095 25.2203 1.36562 25.5895C1.09755 25.949 0.977139 26.3811 1.01558 26.8148C0.510146 27.1522 0.176514 27.7275 0.176514 28.3794V29.2676C0.176514 29.6715 0.505049 30 0.908936 30H19.0911C19.495 30 19.8235 29.6715 19.8235 29.2676V28.3795C19.8235 27.6241 19.3755 26.9718 18.7314 26.6732C18.7347 26.2689 18.6009 25.8738 18.3435 25.5489C18.1272 25.2758 17.8429 25.0765 17.5239 24.9667V22.6621C17.5239 21.8981 17.4097 21.1443 17.1845 20.4215C17.1123 20.1898 16.8662 20.0604 16.6341 20.1326C16.4025 20.2048 16.2732 20.4512 16.3453 20.6829C16.5441 21.321 16.6449 21.9869 16.6449 22.6621V24.8689C16.022 24.8689 16.3904 24.8688 15.7677 24.8685C15.3621 23.9002 14.1553 22.1321 10.6273 21.1608C10.217 21.0479 9.78308 21.0479 9.37269 21.1608C5.84423 22.1323 4.63749 23.9007 4.23208 24.8689C3.94597 24.8689 3.65405 24.8689 3.35505 24.8689V22.6621C3.35505 19.8426 5.14198 17.322 7.80161 16.3898C7.9778 16.3281 8.09575 16.1618 8.09575 15.9751V13.9821C8.09575 13.7954 7.9778 13.6291 7.80161 13.5673C5.14198 12.6352 3.35505 10.1146 3.35505 7.2951V4.97121H16.6449V7.29521C16.6449 10.1147 14.858 12.6353 12.1984 13.5674C12.0222 13.6292 11.9042 13.7955 11.9042 13.9822V15.9752C11.9042 16.1619 12.0222 16.3282 12.1984 16.39C13.5399 16.8602 14.7181 17.7714 15.5158 18.9558C15.6513 19.1571 15.9245 19.2103 16.1257 19.0748C16.3271 18.9392 16.3803 18.6661 16.2447 18.4648C15.4007 17.2116 14.1799 16.2285 12.7831 15.6708V14.2869C15.6316 13.1532 17.5238 10.3825 17.5238 7.29521ZM18.9446 29.1211H1.05542V28.3795C1.05542 27.8259 1.50847 27.3784 2.05649 27.3784H17.9434C18.4863 27.3784 18.9446 27.8197 18.9446 28.3795V29.1211ZM17.6545 26.0945C17.7496 26.2147 17.8116 26.3536 17.8379 26.4995C1.45649 26.4995 2.0211 26.496 1.90081 26.5058C1.92507 26.3667 1.98208 26.2332 2.07021 26.115C2.24417 25.8817 2.51089 25.7479 2.80198 25.7479C2.98802 25.7479 16.682 25.7464 16.978 25.7501C17.2435 25.7616 17.4884 25.8848 17.6545 26.0945ZM9.60595 22.0083C9.8637 21.9373 10.1363 21.9373 10.394 22.0083C13.1806 22.7755 14.3266 24.0623 14.7866 24.8684C14.3535 24.8684 7.72321 24.8689 5.21288 24.8689C5.67284 24.0629 6.81858 22.7757 9.60595 22.0083ZM2.1005 3.76406C2.03323 3.68355 1.98114 3.59326 1.94546 3.49734C1.94769 3.49746 1.94997 3.4974 1.95226 3.49752C2.09411 3.50531 17.7347 3.50057 17.7941 3.50057C17.5683 4.09939 16.9157 4.09992 17.0351 4.08715C16.9671 4.09441 17.2195 4.0923 2.9156 4.0923C2.61202 4.0923 2.33915 4.04965 2.1005 3.76406Z" fill="black"/>
</svg>
