<svg width="59" height="59" viewBox="0 0 59 59" fill="none" xmlns="http://www.w3.org/2000/svg">
<g clip-path="url(#clip0)">
<rect x="26.043" y="1.26758" width="6.79883" height="5.07031" fill="url(#paint0_linear)"/>
<path d="M24.6025 25.4092L21.8369 26.2734L25.5244 31.1709L27.0225 30.4219L28.0596 26.6191L24.6025 25.4092Z" fill="url(#paint1_linear)"/>
<path d="M34.5703 25.8125L37.3359 26.6768L33.6484 31.5742L32.1504 30.8252L31.1133 27.0225L34.5703 25.8125Z" fill="url(#paint2_linear)"/>
<path d="M29.5977 30.6528H29.5585C29.0773 30.6528 28.6875 31.0426 28.6875 31.5238C28.6875 32.0046 29.0773 32.3944 29.5585 32.3944H29.5977C30.0784 32.3944 30.4682 32.0046 30.4682 31.5238C30.4682 31.0426 30.0784 30.6528 29.5977 30.6528Z" fill="black"/>
<path d="M57.3938 41.1931C56.927 40.6971 56.3108 40.368 55.6491 40.2497V34.0963C55.6491 31.7885 54.0884 30.5137 52.6201 30.4853C51.3971 30.4597 50.4748 31.2776 50.4307 32.4241C50.4045 33.0907 48.9556 33.2055 47.8041 33.2231L46.9102 30.2747C46.9088 30.2697 46.907 30.2648 46.9057 30.2598C46.0229 27.5275 43.8542 26.9077 41.757 26.3085C41.4766 26.228 41.1867 26.1451 40.8977 26.0574L36.2298 24.6372C37.9502 23.0523 39.2745 21.028 39.8547 19.0168C40.4692 18.8633 41.0805 18.5172 41.5792 18.0247C42.2477 17.3653 42.6307 16.5307 42.6307 15.7349V14.7613C42.6307 13.9443 42.1 13.2497 41.3658 13.0021C41.3857 12.8891 41.3978 12.7735 41.3978 12.6546V11.5995C41.3978 10.7519 40.8657 10.0281 40.119 9.74001C39.5293 6.13083 37.1791 3.08117 33.8311 1.60068C33.4642 0.664848 32.5522 0 31.4872 0H27.5058C26.4489 0 25.5432 0.656296 25.1723 1.58312C21.7945 3.06136 19.4277 6.12948 18.8438 9.76701C18.1353 10.0722 17.6375 10.7785 17.6375 11.5995V12.6546C17.6375 12.787 17.651 12.9162 17.6757 13.0413C16.9983 13.3172 16.5184 13.9839 16.5184 14.7613V15.7349C16.5184 16.5307 16.902 17.3657 17.5709 18.0256C18.0701 18.5185 18.6813 18.8642 19.2958 19.0177C19.8764 21.0316 21.1994 23.055 22.9184 24.6381L20.7947 25.2854C20.7632 25.2926 20.7326 25.302 20.702 25.3138L18.2609 26.0574C17.9724 26.1451 17.6825 26.228 17.4021 26.3081C15.3049 26.9077 13.1366 27.5275 12.2539 30.2598C12.2521 30.2648 12.2507 30.2693 12.2494 30.2742L11.3531 33.2262C10.1711 33.224 8.39352 33.1632 8.36426 32.4245C8.32014 31.2771 7.39692 30.4624 6.17435 30.4853C4.70647 30.5137 3.14585 31.7885 3.14585 34.0959V40.2933C2.56248 40.4383 2.02412 40.7489 1.60594 41.1931C1.04507 41.7896 0.763289 42.5534 0.811904 43.3439L1.04597 47.193C1.13015 48.5623 1.9773 49.6647 3.14585 50.0671V53.2288C3.14585 57.5902 4.9851 58.9901 10.714 58.9901L28.3156 59H28.316C28.7968 59 29.1866 58.6102 29.1866 58.1294C29.187 57.6487 28.7972 57.2584 28.3165 57.2584L10.7144 57.2485C5.38977 57.2485 4.88742 56.1461 4.88742 53.2288V50.2314H5.63014C5.85656 50.2314 6.07397 50.2192 6.28194 50.1949C7.1822 50.0905 7.90602 49.7592 8.43853 49.2069C9.62553 47.9767 9.55531 46.0303 9.49319 44.313C9.48014 43.9516 9.46754 43.6099 9.46754 43.2912C9.46754 41.5866 8.08202 40.1997 6.37826 40.1997H4.88742V34.0959C4.88742 32.6374 5.75123 32.2355 6.20811 32.2265C6.47864 32.2215 6.61684 32.3106 6.62359 32.4925C6.64925 33.1416 6.96299 34.2971 8.77793 34.7432C9.71106 34.9727 10.8031 34.9696 11.6808 34.9673L46.8701 34.9669L47.1136 34.9673H47.1217C47.1343 34.9678 47.1465 34.9705 47.1595 34.9705C47.1726 34.9705 47.1865 34.9678 47.2 34.9673C48.0625 34.9691 49.1131 34.9651 50.017 34.7427C51.8315 34.2971 52.1452 33.1416 52.1709 32.4916C52.1781 32.3106 52.3176 32.2211 52.5868 32.2265C53.0432 32.235 53.907 32.6374 53.907 34.0959V40.1992H52.6215C50.9177 40.1992 49.5322 41.5861 49.5322 43.2908C49.5322 43.6099 49.5196 43.9511 49.5065 44.313C49.4444 46.0298 49.3742 47.9762 50.5612 49.2069C51.0937 49.7592 51.8175 50.09 52.7178 50.1949C52.9257 50.2192 53.1432 50.2314 53.3696 50.2314H53.907V53.2284C53.907 56.1461 53.4051 57.2485 48.0832 57.2485L32.2871 57.2548C31.8063 57.2553 31.4165 57.6451 31.4165 58.1263C31.417 58.607 31.8068 58.9968 32.2875 58.9968H32.288L48.0837 58.9901C53.8107 58.9901 55.6491 57.5902 55.6491 53.2284V50.1292C56.922 49.7912 57.8646 48.6411 57.9533 47.1925L58.1878 43.3443C58.2364 42.5534 57.9542 41.7896 57.3938 41.1931ZM6.37826 41.9413C7.12144 41.9413 7.72597 42.5471 7.72597 43.2912C7.72597 43.3785 7.72687 43.4668 7.72822 43.5554C7.73272 43.821 7.74217 44.0929 7.75252 44.376C7.78043 45.1467 7.81014 45.9758 7.71156 46.6776C7.63459 47.2236 7.47974 47.6926 7.18536 47.9978C6.86576 48.3287 6.35756 48.4898 5.63014 48.4898H4.13389C3.41368 48.4898 2.83346 47.8866 2.78439 47.0872L2.55032 43.2376C2.53142 42.9316 2.64665 42.6291 2.87487 42.3864C3.1409 42.1033 3.51451 41.9413 3.89983 41.9413H6.37826ZM17.2958 33.2253H13.1735L13.9135 30.7878C14.4321 29.1899 15.4552 28.7024 17.2958 28.1532V33.2253ZM33.0055 32.204C33.0582 32.2148 33.1113 32.2242 33.1649 32.2314C33.2706 32.2458 33.3755 32.253 33.479 32.253C34.2321 32.253 34.924 31.8821 35.4569 31.1831L38.4827 27.1431L40.1118 27.6387V33.2253H33.0055V32.204ZM36.7106 26.6038L34.0674 30.1329C33.7671 30.5272 33.5344 30.5146 33.4466 30.5101C33.1901 30.4961 32.9321 30.3183 32.8065 30.191C32.7935 30.1757 32.7795 30.1608 32.7656 30.1464C32.7584 30.1374 32.7498 30.1275 32.7444 30.1198L31.6155 27.338C31.8437 27.2705 32.076 27.1926 32.3155 27.1035C33.0915 26.814 33.8446 26.4211 34.5589 25.9493L36.7106 26.6038ZM40.8892 15.7349C40.8892 16.063 40.6897 16.4556 40.3557 16.7851C40.2981 16.8418 40.2378 16.894 40.1761 16.9435C40.1766 16.9205 40.1779 16.8971 40.1779 16.8742L40.2018 14.6456H40.7744C40.8356 14.6456 40.8892 14.6996 40.8892 14.7613V15.7349ZM27.5058 1.74157H31.4872C31.9148 1.74157 32.2623 2.08862 32.2623 2.51535V5.3674C32.2623 5.79413 31.9148 6.14073 31.4872 6.14073H27.5058C27.0799 6.14073 26.7338 5.79413 26.7338 5.3674V2.51535C26.7338 2.08862 27.0799 1.74157 27.5058 1.74157ZM24.9922 3.62088V5.3674C24.9922 6.75426 26.1198 7.88275 27.5058 7.88275H31.4872C32.875 7.88275 34.0044 6.75426 34.0044 5.3674V3.63979C36.2213 4.92267 37.7904 7.08151 38.3234 9.60542H20.6435C21.1778 7.06801 22.7587 4.90151 24.9922 3.62088ZM18.7939 16.786C18.4599 16.456 18.26 16.063 18.26 15.7349V14.7613C18.26 14.7005 18.3131 14.6456 18.3716 14.6456H18.9478L18.9712 16.8647C18.9712 16.8908 18.973 16.9174 18.9735 16.9435C18.9114 16.894 18.851 16.8422 18.7939 16.786ZM20.8771 18.1976C20.8726 18.0999 20.8523 18.0067 20.8186 17.9198C20.7506 17.5597 20.7128 17.2032 20.7128 16.8557L20.6898 14.6465L27.7979 14.6523H27.7984C28.2791 14.6523 28.6689 14.263 28.6694 13.7822C28.6698 13.301 28.28 12.9108 27.7993 12.9103L19.8125 12.904C19.8116 12.904 19.8107 12.904 19.8098 12.904H19.6271C19.4929 12.904 19.379 12.7897 19.379 12.6546V11.5995C19.379 11.4627 19.4929 11.347 19.6271 11.347H39.4051C39.5415 11.347 39.6562 11.4627 39.6562 11.5995V12.6546C39.6562 12.7897 39.5415 12.904 39.4051 12.904H31.7735C31.2927 12.904 30.9029 13.2938 30.9029 13.7746C30.9029 14.2558 31.2927 14.6456 31.7735 14.6456H38.4598L38.4364 16.8647C38.4364 17.2019 38.4008 17.5471 38.336 17.8973C38.2937 17.9973 38.2694 18.1067 38.2676 18.2219C37.5726 21.155 34.8047 24.3158 31.7073 25.4717C30.1341 26.0574 29.0205 26.0583 27.4509 25.4744C26.6798 25.1886 25.9298 24.7776 25.2263 24.2771C25.2213 24.2735 25.2159 24.2699 25.211 24.2667C23.0845 22.7489 21.3929 20.4104 20.8771 18.1976ZM26.1437 33.2253H19.0374V27.6414L20.67 27.144L23.6967 31.1885C24.2256 31.8826 24.917 32.253 25.6701 32.253C25.7732 32.253 25.8785 32.2458 25.9839 32.2314C26.0379 32.2242 26.091 32.2148 26.1437 32.204V33.2253ZM26.3845 30.1459C26.3701 30.1608 26.3561 30.1757 26.3426 30.1914C26.2166 30.3183 25.9591 30.4966 25.703 30.5101C25.6148 30.5146 25.3825 30.5272 25.0867 30.1392L22.4413 26.6043L24.5893 25.9498C25.3069 26.4238 26.0644 26.8181 26.8445 27.1075C27.0808 27.1953 27.3109 27.2718 27.5364 27.3389L26.4052 30.1198C26.4002 30.1275 26.3912 30.1369 26.3845 30.1459ZM27.8857 31.0363C27.9361 30.9557 27.9784 30.8756 28.0099 30.7968L29.291 27.6477C29.3855 27.6517 29.4801 27.6549 29.5746 27.6549C29.67 27.6549 29.7654 27.6517 29.8613 27.6472L31.1388 30.7955C31.1708 30.8743 31.2131 30.9553 31.2639 31.0359V33.2253H27.8852V31.0363H27.8857ZM41.8533 33.2253V28.15C43.7002 28.701 44.7261 29.1867 45.2456 30.7878L45.9851 33.2253H41.8533ZM56.4494 43.2381L56.2153 47.0867C56.1663 47.8866 55.586 48.4894 54.8663 48.4894H53.3696C52.6426 48.4894 52.134 48.3287 51.8148 47.9978C51.5204 47.6922 51.3656 47.2236 51.2886 46.6776C51.1896 45.9758 51.2193 45.1467 51.2472 44.376C51.2612 43.9984 51.2738 43.6414 51.2738 43.2912C51.2738 42.5467 51.8783 41.9413 52.6215 41.9413H55.1003C55.4852 41.9413 55.8588 42.1033 56.1249 42.3864C56.3531 42.6291 56.4683 42.9316 56.4494 43.2381Z" fill="black"/>
</g>
<defs>
<linearGradient id="paint0_linear" x1="29.4424" y1="1.26758" x2="29.4424" y2="6.33789" gradientUnits="userSpaceOnUse">
<stop stop-color="#FF5B14"/>
<stop offset="1" stop-color="#FF7F47"/>
</linearGradient>
<linearGradient id="paint1_linear" x1="24.9482" y1="25.4092" x2="24.9482" y2="31.1709" gradientUnits="userSpaceOnUse">
<stop stop-color="#FF5B14"/>
<stop offset="1" stop-color="#FF7F47"/>
</linearGradient>
<linearGradient id="paint2_linear" x1="34.2246" y1="25.8125" x2="34.2246" y2="31.5742" gradientUnits="userSpaceOnUse">
<stop stop-color="#FF5B14"/>
<stop offset="1" stop-color="#FF7F47"/>
</linearGradient>
<clipPath id="clip0">
<rect width="59" height="59" fill="white"/>
</clipPath>
</defs>
</svg>
