<svg width="59" height="59" viewBox="0 0 59 59" fill="none" xmlns="http://www.w3.org/2000/svg">
<path d="M15.6143 13.1943L18.0918 16.8818H19.0137V15.0381L20.3965 13.1943L25.8701 10.3135L37.8545 13.1943L39.583 14.4043L39.9287 17.8613L42.752 15.0381L43.7314 12.1572L42.2334 7.83594L39.9287 4.89746L35.6074 2.82324H31.2861H27.7715H24.0264L19.9355 3.86035L16.709 6.85645L15.6143 13.1943Z" fill="url(#paint0_linear)"/>
<path d="M56.4988 24.0075L49.2796 21.842L52.0996 20.1494C52.2359 20.0675 52.3487 19.9516 52.427 19.8132C52.5052 19.6748 52.5464 19.5184 52.5464 19.3594C52.5464 19.2003 52.5052 19.044 52.427 18.9056C52.3487 18.7671 52.2359 18.6513 52.0996 18.5693L49.2796 16.8768L56.4988 14.7113C56.6895 14.654 56.8566 14.5364 56.975 14.3762C57.0934 14.216 57.1567 14.0218 57.1555 13.8226C57.1542 13.6234 57.0885 13.43 56.9681 13.2713C56.8477 13.1126 56.6792 12.9971 56.4877 12.9422L51.4321 11.4976L56.9274 5.21689C57.0576 5.0689 57.137 4.88306 57.1538 4.68666C57.1707 4.49026 57.1241 4.29364 57.021 4.12565C56.9178 3.95766 56.7636 3.82715 56.5808 3.75326C56.3981 3.67938 56.1965 3.66603 56.0056 3.71515L49.7811 5.2722V2.76562C49.781 2.60245 49.7377 2.44222 49.6555 2.30128C49.5733 2.16034 49.4551 2.04374 49.3131 1.9634C49.1711 1.88307 49.0103 1.84186 48.8471 1.844C48.684 1.84614 48.5243 1.89154 48.3844 1.97557L43.775 4.7412L44.7246 6.3213L47.9373 4.39365V6.45312C47.9373 6.59325 47.9693 6.73154 48.0307 6.85747C48.0922 6.9834 48.1816 7.09366 48.292 7.17987C48.4025 7.26608 48.5312 7.32597 48.6683 7.35499C48.8054 7.38401 48.9473 7.38139 49.0832 7.34734L53.6004 6.21805L49.0832 11.3805C48.9809 11.4974 48.9098 11.6382 48.8765 11.7899C48.8431 11.9415 48.8486 12.0992 48.8925 12.2482C48.9364 12.3971 49.0172 12.5326 49.1274 12.642C49.2376 12.7514 49.3736 12.8312 49.5229 12.874L52.9495 13.853L46.7462 15.7143C46.5751 15.7656 46.4226 15.8655 46.3072 16.0019C46.1918 16.1382 46.1185 16.3052 46.0963 16.4824C46.074 16.6597 46.1037 16.8396 46.1818 17.0003C46.2599 17.1609 46.3829 17.2955 46.5361 17.3875L49.8327 19.3594L46.5407 21.335C46.3876 21.427 46.2645 21.5615 46.1864 21.7222C46.1083 21.8829 46.0786 22.0628 46.1009 22.24C46.1231 22.4173 46.1964 22.5842 46.3118 22.7206C46.4272 22.857 46.5797 22.9569 46.7509 23.0082L51.5114 24.4361L46.9233 24.8971C46.7953 24.91 46.6716 24.9496 46.5598 25.0132C46.4481 25.0768 46.3509 25.1631 46.2745 25.2665C46.1981 25.3699 46.1442 25.4881 46.1162 25.6136C46.0882 25.739 46.0868 25.869 46.112 25.995L46.7223 29.0464L42.6974 27.7051L42.1147 29.4567L47.646 31.3004C47.7402 31.3302 47.8385 31.3449 47.9373 31.3438C48.074 31.3438 48.209 31.3134 48.3326 31.2548C48.4561 31.1962 48.565 31.1109 48.6515 31.005C48.738 30.8991 48.7998 30.7753 48.8326 30.6426C48.8653 30.5098 48.8681 30.3715 48.8407 30.2375L48.1217 26.6284L56.3264 25.8125C56.5387 25.7912 56.7371 25.6969 56.8877 25.5456C57.0383 25.3944 57.1317 25.1956 57.1521 24.9831C57.1724 24.7706 57.1184 24.5577 56.9993 24.3806C56.8801 24.2036 56.7032 24.0733 56.4988 24.0121V24.0075Z" fill="black"/>
<path d="M50.8967 40.5809L38.3408 37.8891L35.1511 33.4641C36.6626 32.5645 37.9378 31.3174 38.8709 29.8264C39.804 28.3354 40.3681 26.6433 40.5164 24.8906H41.4844C42.2172 24.8884 42.9194 24.5964 43.4376 24.0782C43.9557 23.56 44.2478 22.8578 44.25 22.125V20.2812C44.248 19.6105 44.0017 18.9635 43.5572 18.4612C43.1126 17.9589 42.5002 17.6359 41.8347 17.5525L42.9041 16.4831C43.3321 16.0545 43.6713 15.5455 43.9022 14.9855C44.1332 14.4255 44.2514 13.8254 44.25 13.2197V11.9844C44.2483 9.29544 43.1794 6.71712 41.278 4.81576C39.3766 2.91439 36.7983 1.84546 34.1094 1.84375H24.8906C22.2017 1.84546 19.6234 2.91439 17.722 4.81576C15.8206 6.71712 14.7517 9.29544 14.75 11.9844V13.2197C14.7486 13.8254 14.8668 14.4255 15.0978 14.9855C15.3287 15.5455 15.6679 16.0545 16.0959 16.4831L17.1653 17.5525C16.4998 17.6359 15.8874 17.9589 15.4429 18.4612C14.9983 18.9635 14.752 19.6105 14.75 20.2812V22.125C14.7522 22.8578 15.0443 23.56 15.5625 24.0782C16.0806 24.5964 16.7828 24.8884 17.5156 24.8906H18.4836C18.6319 26.6433 19.196 28.3354 20.1291 29.8264C21.0622 31.3174 22.3374 32.5645 23.8489 33.4641L20.6592 37.8891L8.10328 40.5809C7.89676 40.6253 7.71173 40.7392 7.57916 40.9037C7.44659 41.0681 7.37452 41.2731 7.375 41.4844V52.5469C7.37547 52.7645 7.45232 52.9751 7.59215 53.1419C7.73199 53.3087 7.92593 53.4211 8.14016 53.4595L29.3433 57.147C29.4474 57.1593 29.5526 57.1593 29.6567 57.147L50.8598 53.4595C51.0741 53.4211 51.268 53.3087 51.4079 53.1419C51.5477 52.9751 51.6245 52.7645 51.625 52.5469V41.4844C51.6255 41.2731 51.5534 41.0681 51.4208 40.9037C51.2883 40.7392 51.1032 40.6253 50.8967 40.5809ZM42.4063 20.2812V22.125C42.4063 22.3695 42.3091 22.604 42.1362 22.7769C41.9634 22.9497 41.7289 23.0469 41.4844 23.0469H40.5625V19.3594H41.4844C41.7289 19.3594 41.9634 19.4565 42.1362 19.6294C42.3091 19.8023 42.4063 20.0368 42.4063 20.2812ZM18.4375 23.0469H17.5156C17.2711 23.0469 17.0366 22.9497 16.8638 22.7769C16.6909 22.604 16.5938 22.3695 16.5938 22.125V20.2812C16.5938 20.0368 16.6909 19.8023 16.8638 19.6294C17.0366 19.4565 17.2711 19.3594 17.5156 19.3594H18.4375V23.0469ZM18.4375 13.8281V16.2158L17.405 15.1741C16.8862 14.6559 16.5944 13.9529 16.5938 13.2197V11.9844C16.5972 9.78496 17.4724 7.6766 19.0276 6.12137C20.5828 4.56614 22.6912 3.69091 24.8906 3.6875H34.1094C36.3088 3.69091 38.4172 4.56614 39.9724 6.12137C41.5276 7.6766 42.4028 9.78496 42.4063 11.9844V13.2197C42.4056 13.9529 42.1138 14.6559 41.595 15.1741L40.5625 16.2158V13.8281C40.5634 13.6247 40.497 13.4267 40.3736 13.2649C40.2502 13.1032 40.0768 12.9868 39.8803 12.9339L26.0522 9.24641C25.8153 9.1882 25.5653 9.22111 25.3516 9.33859L18.8984 13.0261C18.7578 13.1073 18.641 13.2243 18.5601 13.3651C18.4791 13.506 18.4369 13.6657 18.4375 13.8281ZM20.2813 23.9688V14.3628L25.9416 11.127L38.7188 14.538V23.9688C38.7188 26.4137 37.7475 28.7585 36.0186 30.4874C34.2898 32.2162 31.945 33.1875 29.5 33.1875C27.055 33.1875 24.7102 32.2162 22.9814 30.4874C21.2525 28.7585 20.2813 26.4137 20.2813 23.9688ZM49.7813 51.7725L29.5 55.2941L9.21875 51.7725V42.2311L21.3967 39.6222C21.6222 39.5764 21.8208 39.444 21.9498 39.2534L25.5359 34.2845C28.0849 35.2801 30.9151 35.2801 33.4641 34.2845L37.0502 39.2534C37.1792 39.444 37.3778 39.5764 37.6033 39.6222L49.7813 42.2311V51.7725Z" fill="black"/>
<path d="M10.159 30.2375C10.1281 30.3924 10.1376 30.5527 10.1865 30.7029C10.2354 30.8532 10.3221 30.9883 10.4382 31.0954C10.5544 31.2025 10.6961 31.2779 10.8498 31.3144C11.0035 31.351 11.164 31.3474 11.3159 31.3041L17.7691 29.4604L17.262 27.6885L12.2609 29.1202L12.8877 25.9969C12.913 25.8708 12.9115 25.7409 12.8835 25.6154C12.8555 25.4899 12.8016 25.3717 12.7252 25.2683C12.6488 25.1649 12.5516 25.0786 12.4399 25.015C12.3282 24.9514 12.2044 24.9119 12.0765 24.8989L7.48832 24.438L12.2489 23.01C12.42 22.9587 12.5725 22.8588 12.6879 22.7224C12.8033 22.5861 12.8766 22.4191 12.8989 22.2418C12.9211 22.0646 12.8914 21.8847 12.8133 21.724C12.7353 21.5633 12.6122 21.4288 12.4591 21.3368L9.16706 19.3594L12.4591 17.3838C12.6122 17.2918 12.7353 17.1572 12.8133 16.9966C12.8914 16.8359 12.9211 16.656 12.8989 16.4787C12.8766 16.3015 12.8033 16.1345 12.6879 15.9982C12.5725 15.8618 12.42 15.7619 12.2489 15.7106L6.04559 13.8493L9.4722 12.8703C9.62149 12.8275 9.75755 12.7477 9.86776 12.6383C9.97797 12.5289 10.0588 12.3934 10.1026 12.2445C10.1465 12.0955 10.152 11.9379 10.1187 11.7862C10.0853 11.6345 10.0142 11.4937 9.91193 11.3769L5.39475 6.21436L9.91193 7.34365C10.0479 7.37845 10.19 7.38176 10.3274 7.35333C10.4648 7.3249 10.5939 7.26547 10.7048 7.17958C10.8158 7.09369 10.9057 6.98361 10.9677 6.85771C11.0296 6.73182 11.062 6.59344 11.0624 6.45312V4.39365L14.2752 6.32129L15.2247 4.7412L10.6153 1.97557C10.4755 1.89154 10.3158 1.84614 10.1526 1.844C9.98948 1.84186 9.82868 1.88307 9.68666 1.9634C9.54464 2.04374 9.42649 2.16034 9.34427 2.30128C9.26205 2.44222 9.21871 2.60245 9.21868 2.76562V5.2722L2.98957 3.71515C2.79903 3.66746 2.59823 3.68188 2.41645 3.75631C2.23467 3.83074 2.08142 3.96128 1.97903 4.12891C1.87664 4.29654 1.83047 4.49249 1.84725 4.68819C1.86403 4.8839 1.94288 5.06913 2.07231 5.21689L7.5676 11.4976L2.51204 12.9422C2.32056 12.9971 2.15202 13.1126 2.03164 13.2713C1.91127 13.43 1.84554 13.6234 1.84429 13.8226C1.84304 14.0218 1.90635 14.216 2.02473 14.3762C2.14311 14.5364 2.3102 14.654 2.50098 14.7113L9.72018 16.8768L6.90017 18.5693C6.76387 18.6513 6.65109 18.7671 6.57279 18.9055C6.4945 19.044 6.45335 19.2003 6.45335 19.3594C6.45335 19.5184 6.4945 19.6748 6.57279 19.8132C6.65109 19.9516 6.76387 20.0675 6.90017 20.1494L9.72018 21.842L2.50098 24.0075C2.29369 24.0665 2.11363 24.1963 1.9921 24.3743C1.87056 24.5522 1.81523 24.7672 1.83572 24.9818C1.85621 25.1963 1.95123 25.3969 2.10426 25.5487C2.25729 25.7004 2.45866 25.7938 2.67337 25.8125L10.8781 26.633L10.159 30.2375Z" fill="black"/>
<path d="M26.7158 37.6125L24.9089 37.9739L25.8308 42.5833C25.8718 42.7928 25.9843 42.9817 26.1491 43.1175C26.3139 43.2534 26.5207 43.3278 26.7342 43.3281H28.578V41.4844H27.4902L26.7158 37.6125Z" fill="black"/>
<path d="M33.1691 42.5906L34.0909 37.9813L32.2841 37.6125L31.5097 41.4844H30.4219V43.3281H32.2656C32.4781 43.3282 32.6842 43.2548 32.8488 43.1204C33.0134 42.986 33.1266 42.7989 33.1691 42.5906Z" fill="black"/>
<path d="M24.8906 45.1719H15.6718C15.4663 45.1719 15.2667 45.2406 15.1047 45.367C14.9426 45.4934 14.8275 45.6704 14.7776 45.8697L13.8557 49.5572L15.6442 50.0053L16.3918 47.0156H24.614L27.1473 48.7045L28.1706 47.1705L25.405 45.3268C25.2525 45.2255 25.0736 45.1716 24.8906 45.1719Z" fill="black"/>
<path d="M33.5977 45.3267L30.832 47.1705L31.8553 48.7045L34.3859 47.0156H42.6053L43.3529 50.0053L45.1414 49.5572L44.2195 45.8697C44.1697 45.6708 44.055 45.4942 43.8935 45.3678C43.7321 45.2415 43.5331 45.1725 43.328 45.1719H34.1093C33.9272 45.1722 33.7493 45.226 33.5977 45.3267Z" fill="black"/>
<path d="M27.6562 18.4375C27.6562 18.2944 27.6228 18.1532 27.5588 18.0252C27.4948 17.8972 27.4019 17.7859 27.2874 17.7L23.5999 14.9344L22.4937 16.4094L25.1975 18.4375L22.4937 20.4656L23.5999 21.9406L27.2874 19.175C27.4019 19.0891 27.4948 18.9778 27.5588 18.8498C27.6228 18.7218 27.6562 18.5806 27.6562 18.4375Z" fill="black"/>
<path d="M35.4 21.9406L36.5062 20.4656L33.8024 18.4375L36.5062 16.4094L35.4 14.9344L31.7125 17.7C31.598 17.7859 31.5051 17.8972 31.4411 18.0252C31.3771 18.1532 31.3438 18.2944 31.3438 18.4375C31.3438 18.5806 31.3771 18.7218 31.4411 18.8498C31.5051 18.9778 31.598 19.0891 31.7125 19.175L35.4 21.9406Z" fill="black"/>
<path d="M31.7539 29.2603L32.7772 27.7263C31.8071 27.0783 30.6666 26.7324 29.4999 26.7324C28.3333 26.7324 27.1928 27.0783 26.2227 27.7263L27.2459 29.2603C27.9131 28.8144 28.6975 28.5764 29.4999 28.5764C30.3024 28.5764 31.0868 28.8144 31.7539 29.2603Z" fill="black"/>
<defs>
<linearGradient id="paint0_linear" x1="29.6729" y1="2.82324" x2="29.6729" y2="17.8613" gradientUnits="userSpaceOnUse">
<stop stop-color="#FF5B14"/>
<stop offset="1" stop-color="#FF7F47"/>
</linearGradient>
</defs>
</svg>
