<svg width="30" height="30" viewBox="0 0 30 30" fill="none" xmlns="http://www.w3.org/2000/svg">
<path d="M21.0673 14.9815C21.0673 15.2847 20.8212 15.5308 20.518 15.5308H15.5611V20.4884C15.5611 20.7916 15.315 21.0377 15.0118 21.0377C14.7086 21.0377 14.4625 20.7916 14.4625 20.4884V15.5308H9.50525C9.2021 15.5308 8.95593 15.2847 8.95593 14.9815C8.95593 14.6782 9.2021 14.4322 9.50525 14.4322H14.4625V9.47461C14.4625 9.17077 14.7086 8.92529 15.0118 8.92529C15.315 8.92529 15.5611 9.17077 15.5611 9.47461V14.4322H20.518C20.8212 14.4322 21.0673 14.6782 21.0673 14.9815Z" fill="black"/>
<rect x="1.53845" y="1.53857" width="3.07692" height="3.07692" fill="url(#paint0_linear)"/>
<rect x="1.53845" y="13.5898" width="3.07692" height="3.07692" fill="url(#paint1_linear)"/>
<rect x="1.53845" y="25.6411" width="3.07692" height="3.07692" fill="url(#paint2_linear)"/>
<rect x="13.5897" y="25.6411" width="3.07692" height="3.07692" fill="url(#paint3_linear)"/>
<rect x="25.641" y="25.6411" width="3.07692" height="3.07692" fill="url(#paint4_linear)"/>
<rect x="25.3846" y="13.3335" width="3.07692" height="3.07692" fill="url(#paint5_linear)"/>
<rect x="25.3846" y="1.53857" width="3.07692" height="3.07692" fill="url(#paint6_linear)"/>
<rect x="13.3334" y="1.53857" width="3.07692" height="3.07692" fill="url(#paint7_linear)"/>
<path d="M28.4985 5.31841C28.8017 5.31841 29.0479 5.07225 29.0479 4.7691V1.47217C29.0479 1.16901 28.8017 0.922852 28.4985 0.922852H25.2016C24.8985 0.922852 24.6523 1.16901 24.6523 1.47217V2.57149H22.8581C22.5549 2.57149 22.3088 2.81731 22.3088 3.1208C22.3088 3.42396 22.5549 3.67012 22.8581 3.67012H24.6523V4.7691C24.6523 5.07225 24.8985 5.31841 25.2016 5.31841H26.3006V12.8123H25.2016C24.8985 12.8123 24.6523 13.0585 24.6523 13.3616V16.6587C24.6523 16.9619 24.8985 17.208 25.2016 17.208H26.3006V24.6526H25.2016C24.8985 24.6526 24.6523 24.8985 24.6523 25.202V26.3006H17.2094V25.202C17.2094 24.8985 16.9636 24.6526 16.6601 24.6526H13.3632C13.06 24.6526 12.8138 24.8985 12.8138 25.202V26.3006H5.31807V25.202C5.31807 24.8985 5.07225 24.6526 4.76875 24.6526H3.67012V17.208H4.76875C5.07225 17.208 5.31807 16.9619 5.31807 16.6587V13.3616C5.31807 13.0585 5.07225 12.8123 4.76875 12.8123H3.67012V5.31841H4.76875C5.07225 5.31841 5.31807 5.07225 5.31807 4.7691V3.67012H12.8138V4.7691C12.8138 5.07225 13.06 5.31841 13.3632 5.31841H16.6601C16.9636 5.31841 17.2094 5.07225 17.2094 4.7691V3.67012H19.0036C19.3074 3.67012 19.5529 3.42396 19.5529 3.1208C19.5529 2.81731 19.3074 2.57149 19.0036 2.57149H17.2094V1.47217C17.2094 1.16901 16.9636 0.922852 16.6601 0.922852H13.3632C13.06 0.922852 12.8138 1.16901 12.8138 1.47217V2.57149H5.31807V1.47217C5.31807 1.16901 5.07225 0.922852 4.76875 0.922852H1.47217C1.16901 0.922852 0.922852 1.16901 0.922852 1.47217V4.7691C0.922852 5.07225 1.16901 5.31841 1.47217 5.31841H2.57149V12.8123H1.47217C1.16901 12.8123 0.922852 13.0585 0.922852 13.3616V16.6587C0.922852 16.9619 1.16901 17.208 1.47217 17.208H2.57149V24.6526H1.47217C1.16901 24.6526 0.922852 24.8985 0.922852 25.202V28.4985C0.922852 28.8017 1.16901 29.0479 1.47217 29.0479H4.76875C5.07225 29.0479 5.31807 28.8017 5.31807 28.4985V27.3992H12.8138V28.4985C12.8138 28.8017 13.06 29.0479 13.3632 29.0479H16.6601C16.9636 29.0479 17.2094 28.8017 17.2094 28.4985V27.3992H24.6523V28.4985C24.6523 28.8017 24.8985 29.0479 25.2016 29.0479H28.4985C28.8017 29.0479 29.0479 28.8017 29.0479 28.4985V25.202C29.0479 24.8985 28.8017 24.6526 28.4985 24.6526H27.3992V17.208H28.4985C28.8017 17.208 29.0479 16.9619 29.0479 16.6587V13.3616C29.0479 13.0585 28.8017 12.8123 28.4985 12.8123H27.3992V5.31841H28.4985ZM13.9125 2.02148H16.1108V4.21978H13.9125V2.02148ZM2.02148 4.21978V2.02148H4.21944V4.21978H2.02148ZM2.02148 16.1094V13.9109H4.21944V16.1094H2.02148ZM4.21944 27.9492H2.02148V25.7513H4.21944V27.9492ZM16.1108 27.9492H13.9125V25.7513H16.1108V27.9492ZM27.9492 25.7513V27.9492H25.7509V25.7513H27.9492ZM27.9492 13.9109V16.1094H25.7509V13.9109H27.9492ZM25.7509 4.21978V2.02148H27.9492V4.21978H25.7509Z" fill="black"/>
<path d="M20.9321 3.67041C20.6288 3.67041 20.3824 3.42425 20.3824 3.12109C20.3824 2.8176 20.6281 2.57178 20.9316 2.57178H20.9321C21.2354 2.57178 21.4814 2.8176 21.4814 3.12109C21.4814 3.42425 21.2354 3.67041 20.9321 3.67041Z" fill="black"/>
<defs>
<linearGradient id="paint0_linear" x1="1.53845" y1="0.897549" x2="4.61538" y2="5.38473" gradientUnits="userSpaceOnUse">
<stop stop-color="#FF5B14"/>
<stop offset="1" stop-color="#FF7F47"/>
</linearGradient>
<linearGradient id="paint1_linear" x1="1.53845" y1="12.9488" x2="4.61538" y2="17.436" gradientUnits="userSpaceOnUse">
<stop stop-color="#FF5B14"/>
<stop offset="1" stop-color="#FF7F47"/>
</linearGradient>
<linearGradient id="paint2_linear" x1="1.53845" y1="25.0001" x2="4.61537" y2="29.4873" gradientUnits="userSpaceOnUse">
<stop stop-color="#FF5B14"/>
<stop offset="1" stop-color="#FF7F47"/>
</linearGradient>
<linearGradient id="paint3_linear" x1="13.5897" y1="25.0001" x2="16.6666" y2="29.4873" gradientUnits="userSpaceOnUse">
<stop stop-color="#FF5B14"/>
<stop offset="1" stop-color="#FF7F47"/>
</linearGradient>
<linearGradient id="paint4_linear" x1="25.641" y1="25.0001" x2="28.7179" y2="29.4873" gradientUnits="userSpaceOnUse">
<stop stop-color="#FF5B14"/>
<stop offset="1" stop-color="#FF7F47"/>
</linearGradient>
<linearGradient id="paint5_linear" x1="25.3846" y1="12.6925" x2="28.4616" y2="17.1796" gradientUnits="userSpaceOnUse">
<stop stop-color="#FF5B14"/>
<stop offset="1" stop-color="#FF7F47"/>
</linearGradient>
<linearGradient id="paint6_linear" x1="25.3846" y1="0.897549" x2="28.4616" y2="5.38473" gradientUnits="userSpaceOnUse">
<stop stop-color="#FF5B14"/>
<stop offset="1" stop-color="#FF7F47"/>
</linearGradient>
<linearGradient id="paint7_linear" x1="13.3334" y1="0.897549" x2="16.4103" y2="5.38473" gradientUnits="userSpaceOnUse">
<stop stop-color="#FF5B14"/>
<stop offset="1" stop-color="#FF7F47"/>
</linearGradient>
</defs>
</svg>
