<svg width="59" height="59" viewBox="0 0 59 59" fill="none" xmlns="http://www.w3.org/2000/svg">
<g clip-path="url(#clip0)">
<rect x="3" y="3.80664" width="51.8477" height="50.6953" stroke="url(#paint0_linear)" stroke-width="6"/>
<path d="M51.548 5.76172H46.0667C45.5891 5.76172 45.2025 6.14838 45.2025 6.62598C45.2025 7.10357 45.5891 7.49023 46.0667 7.49023H51.5098V20.166H21.8945V7.49023H42.8402C43.3178 7.49023 43.7044 7.10357 43.7044 6.62598C43.7044 6.14838 43.3178 5.76172 42.8402 5.76172H7.45197C6.51974 5.76172 5.76172 6.51974 5.76172 7.45197V51.548C5.76172 52.4803 6.51974 53.2383 7.45197 53.2383H51.548C52.4803 53.2383 53.2383 52.4803 53.2383 51.548V7.45197C53.2383 6.51974 52.4803 5.76172 51.548 5.76172ZM37.1055 21.8945V37.1055H21.8945V21.8945H37.1055ZM7.49023 38.834H13.8281C14.3057 38.834 14.6924 38.4473 14.6924 37.9697C14.6924 37.4921 14.3057 37.1055 13.8281 37.1055H7.49023V7.49023H20.166V37.1055H17.0547C16.5771 37.1055 16.1904 37.4921 16.1904 37.9697C16.1904 38.4473 16.5771 38.834 17.0547 38.834H37.1055V51.5098H7.49023V38.834ZM38.834 51.5098V21.8945H51.5098V51.5098H38.834Z" fill="black"/>
<path d="M57.118 0H1.88201C0.844452 0 0 0.844452 0 1.88201V57.118C0 58.1555 0.844452 59 1.88201 59H57.118C58.1555 59 59 58.1555 59 57.118V1.88201C59 0.844452 58.1555 0 57.118 0V0ZM57.2715 57.118C57.2715 57.2026 57.2026 57.2715 57.118 57.2715H1.88201C1.79739 57.2715 1.72852 57.2026 1.72852 57.118V1.88201C1.72852 1.79739 1.79739 1.72852 1.88201 1.72852H57.118C57.2026 1.72852 57.2715 1.79739 57.2715 1.88201V57.118Z" fill="black"/>
</g>
<defs>
<linearGradient id="paint0_linear" x1="28.9238" y1="0.806641" x2="28.9238" y2="57.502" gradientUnits="userSpaceOnUse">
<stop stop-color="#FF5B14"/>
<stop offset="1" stop-color="#FF7F47"/>
</linearGradient>
<clipPath id="clip0">
<rect width="59" height="59" fill="white"/>
</clipPath>
</defs>
</svg>
