<svg width="30" height="30" viewBox="0 0 30 30" fill="none" xmlns="http://www.w3.org/2000/svg">
<path d="M27.875 15C27.875 22.1107 22.1107 27.875 15 27.875C7.88933 27.875 2.125 22.1107 2.125 15C2.125 7.88933 7.88933 2.125 15 2.125C22.1107 2.125 27.875 7.88933 27.875 15Z" stroke="url(#paint0_linear)" stroke-width="3"/>
<path d="M15 0C6.71575 0 0 6.71575 0 15C0 23.2843 6.71575 30 15 30C23.2843 30 30 23.2843 30 15C29.9906 6.71963 23.2804 0.009375 15 0ZM15 29C7.268 29 1 22.732 1 15C1 7.268 7.268 1 15 1C22.732 1 29 7.268 29 15C28.9912 22.7283 22.7283 28.9912 15 29Z" fill="black"/>
<path d="M15 2.5C8.09644 2.5 2.5 8.09644 2.5 15C2.5 21.9036 8.09644 27.5 15 27.5C21.9036 27.5 27.5 21.9036 27.5 15C27.4923 8.09963 21.9004 2.50769 15 2.5ZM15 26.5C8.64875 26.5 3.5 21.3512 3.5 15C3.5 8.64875 8.64875 3.5 15 3.5C21.3512 3.5 26.5 8.64875 26.5 15C26.4928 21.3483 21.3483 26.4928 15 26.5Z" fill="black"/>
<path d="M15.5 5H14.5V6H15.5V5Z" fill="black"/>
<path d="M15.5 24H14.5V25H15.5V24Z" fill="black"/>
<path d="M10.4317 6.09048L9.56628 6.59033L10.0661 7.4558L10.9316 6.95595L10.4317 6.09048Z" fill="black"/>
<path d="M19.9295 22.5417L19.0641 23.0415L19.5639 23.907L20.4294 23.4071L19.9295 22.5417Z" fill="black"/>
<path d="M6.58923 9.56711L6.08923 10.4331L6.95523 10.9331L7.45524 10.0671L6.58923 9.56711Z" fill="black"/>
<path d="M23.042 19.0691L22.542 19.9351L23.408 20.4351L23.908 19.5691L23.042 19.0691Z" fill="black"/>
<path d="M6 14.5H5V15.5H6V14.5Z" fill="black"/>
<path d="M25 14.5H24V15.5H25V14.5Z" fill="black"/>
<path d="M6.9557 19.068L6.0896 19.5679L6.5895 20.434L7.4556 19.9341L6.9557 19.068Z" fill="black"/>
<path d="M23.408 9.56689L22.542 10.0669L23.042 10.9329L23.908 10.4329L23.408 9.56689Z" fill="black"/>
<path d="M10.0636 22.5432L9.56372 23.4087L10.4292 23.9085L10.929 23.0431L10.0636 22.5432Z" fill="black"/>
<path d="M19.5661 6.09107L19.0663 6.95654L19.9317 7.45639L20.4316 6.59093L19.5661 6.09107Z" fill="black"/>
<path d="M14.5001 7V14.717L9.74255 17.5715L10.2576 18.4285L15.2576 15.4285C15.408 15.3381 15.5001 15.1755 15.5001 15V7H14.5001Z" fill="black"/>
<defs>
<linearGradient id="paint0_linear" x1="15" y1="0.625" x2="15" y2="29.375" gradientUnits="userSpaceOnUse">
<stop stop-color="#FF5B14"/>
<stop offset="1" stop-color="#FF7F47"/>
</linearGradient>
</defs>
</svg>
