<svg width="59" height="59" viewBox="0 0 59 59" fill="none" xmlns="http://www.w3.org/2000/svg">
<path d="M55.2709 29.5C55.2709 43.7328 43.7329 55.2708 29.5001 55.2708C15.2672 55.2708 3.72925 43.7328 3.72925 29.5C3.72925 15.2672 15.2672 3.72916 29.5001 3.72916C43.7329 3.72916 55.2709 15.2672 55.2709 29.5Z" stroke="url(#paint0_linear)" stroke-width="5"/>
<path d="M29.5 0C13.2076 0 0 13.2076 0 29.5C0 45.7924 13.2076 59 29.5 59C45.7924 59 59 45.7924 59 29.5C58.9816 13.2153 45.7847 0.0184375 29.5 0ZM29.5 57.0333C14.2937 57.0333 1.96667 44.7063 1.96667 29.5C1.96667 14.2937 14.2937 1.96667 29.5 1.96667C44.7063 1.96667 57.0333 14.2937 57.0333 29.5C57.016 44.699 44.699 57.016 29.5 57.0333Z" fill="black"/>
<path d="M29.5001 4.91666C15.9231 4.91666 4.91675 15.923 4.91675 29.5C4.91675 43.077 15.9231 54.0833 29.5001 54.0833C43.0771 54.0833 54.0834 43.077 54.0834 29.5C54.0683 15.9293 43.0708 4.93178 29.5001 4.91666ZM29.5001 52.1167C17.0093 52.1167 6.88341 41.9908 6.88341 29.5C6.88341 17.0092 17.0093 6.88333 29.5001 6.88333C41.9909 6.88333 52.1167 17.0092 52.1167 29.5C52.1026 41.985 41.9851 52.1025 29.5001 52.1167Z" fill="black"/>
<path d="M30.4833 9.83334H28.5166V11.8H30.4833V9.83334Z" fill="black"/>
<path d="M30.4833 47.2H28.5166V49.1667H30.4833V47.2Z" fill="black"/>
<path d="M20.5158 11.9776L18.8137 12.9606L19.7968 14.6627L21.4988 13.6796L20.5158 11.9776Z" fill="black"/>
<path d="M39.1948 44.3319L37.4927 45.3149L38.4757 47.017L40.1778 46.034L39.1948 44.3319Z" fill="black"/>
<path d="M12.9589 18.8151L11.9756 20.5182L13.6787 21.5016L14.6621 19.7984L12.9589 18.8151Z" fill="black"/>
<path d="M45.3158 37.5017L44.3325 39.2048L46.0356 40.1882L47.019 38.485L45.3158 37.5017Z" fill="black"/>
<path d="M11.7999 28.5167H9.83325V30.4833H11.7999V28.5167Z" fill="black"/>
<path d="M49.1666 28.5167H47.2V30.4833H49.1666V28.5167Z" fill="black"/>
<path d="M13.6796 37.4999L11.9763 38.4831L12.9595 40.1864L14.6628 39.2033L13.6796 37.4999Z" fill="black"/>
<path d="M46.0357 18.8151L44.3325 19.7984L45.3159 21.5016L47.019 20.5182L46.0357 18.8151Z" fill="black"/>
<path d="M19.7916 44.3355L18.8086 46.0376L20.5107 47.0207L21.4937 45.3186L19.7916 44.3355Z" fill="black"/>
<path d="M38.4801 11.9794L37.4971 13.6815L39.1991 14.6645L40.1822 12.9624L38.4801 11.9794Z" fill="black"/>
<path d="M28.5168 13.7667V28.9434L19.1604 34.5573L20.1732 36.2427L30.0066 30.3427C30.3024 30.165 30.4835 29.8451 30.4835 29.5V13.7667H28.5168Z" fill="black"/>
<defs>
<linearGradient id="paint0_linear" x1="29.5001" y1="1.22916" x2="29.5001" y2="57.7708" gradientUnits="userSpaceOnUse">
<stop stop-color="#FF5B14"/>
<stop offset="1" stop-color="#FF7F47"/>
</linearGradient>
</defs>
</svg>
