<svg width="73" height="73" viewBox="0 0 73 73" fill="none" xmlns="http://www.w3.org/2000/svg">
<g clip-path="url(#clip0)">
<path d="M14.3291 14.6855L10.9785 17.8936L10.3369 18.25L22.9551 30.2266L26.5195 26.6621L14.3291 14.6855Z" fill="url(#paint0_linear)"/>
<path d="M46.623 47.0508L43.2725 50.2588L42.6309 50.6152L55.249 62.5918L58.8135 59.0273L46.623 47.0508Z" fill="url(#paint1_linear)"/>
<path d="M69.5781 5.70312H17.1093C16.8068 5.70312 16.5167 5.8233 16.3028 6.03721C16.0889 6.25112 15.9687 6.54124 15.9687 6.84375V13.5655C15.3285 13.2445 14.6037 13.1326 13.8966 13.2453C13.1894 13.3581 12.5354 13.6899 12.0267 14.1939L8.80101 17.4196C4.7429 21.4871 2.46387 26.9982 2.46387 32.7439C2.46387 38.4896 4.7429 44.0007 8.80101 48.0682L24.9317 64.1989C28.996 68.2632 34.5083 70.5465 40.256 70.5465C46.0037 70.5465 51.5161 68.2632 55.5803 64.1989L58.8071 60.9733C59.4476 60.3308 59.8072 59.4606 59.8072 58.5534C59.8072 57.6462 59.4476 56.7761 58.8071 56.1336L49.1278 46.4554C48.81 46.1376 48.4328 45.8855 48.0176 45.7135C47.6024 45.5415 47.1574 45.4529 46.708 45.4529C46.2586 45.4529 45.8135 45.5415 45.3983 45.7135C44.9831 45.8855 44.6059 46.1376 44.2881 46.4554L41.0624 49.6822L39.4496 51.2951C37.9512 52.7906 35.9206 53.6306 33.8035 53.6306C31.6864 53.6306 29.6558 52.7906 28.1574 51.2951L21.7038 44.8425C21.2566 44.3914 20.8653 43.8882 20.538 43.3438H69.5781C69.8806 43.3438 70.1707 43.2236 70.3846 43.0097C70.5985 42.7958 70.7187 42.5056 70.7187 42.2031V6.84375C70.7187 6.54124 70.5985 6.25112 70.3846 6.03721C70.1707 5.8233 69.8806 5.70312 69.5781 5.70312ZM23.3177 31.9375L26.5446 28.7107C27.1861 28.069 27.5464 27.1988 27.5464 26.2914C27.5464 25.384 27.1861 24.5138 26.5446 23.8721L18.2499 15.5775V9.35313L36.1988 24.9557L19.3906 38.8497C19.4699 36.8548 20.2974 34.9629 21.7083 33.5503L23.3177 31.9375ZM44.0919 27.4891C43.8844 27.6695 43.6187 27.7688 43.3437 27.7688C43.0687 27.7688 42.803 27.6695 42.5954 27.4891L20.1593 7.98438H66.528L44.0919 27.4891ZM37.944 26.4682L41.0978 29.2114C41.7223 29.7496 42.5193 30.0457 43.3437 30.0457C44.1681 30.0457 44.9651 29.7496 45.5896 29.2114L48.7434 26.4739L66.406 41.0625H20.2894L37.944 26.4682ZM50.4908 24.95L68.4374 9.35313V39.7816L50.4908 24.95ZM13.6418 15.8022C13.7478 15.6962 13.8735 15.612 14.012 15.5546C14.1505 15.4972 14.2989 15.4677 14.4488 15.4677C14.5987 15.4677 14.7471 15.4972 14.8856 15.5546C15.0241 15.612 15.1499 15.6962 15.2558 15.8022L24.934 25.4804C25.1478 25.6943 25.268 25.9844 25.268 26.2868C25.268 26.5893 25.1478 26.8794 24.934 27.0933L22.5136 29.5137L11.2214 18.2215L13.6418 15.8022ZM45.901 48.0682C46.0069 47.9622 46.1327 47.878 46.2712 47.8206C46.4096 47.7632 46.5581 47.7337 46.708 47.7337C46.8579 47.7337 47.0063 47.7632 47.1448 47.8206C47.2832 47.878 47.409 47.9622 47.515 48.0682L57.1943 57.7464C57.3004 57.8524 57.3845 57.9782 57.4419 58.1166C57.4993 58.2551 57.5288 58.4035 57.5288 58.5534C57.5288 58.7033 57.4993 58.8517 57.4419 58.9902C57.3845 59.1287 57.3004 59.2545 57.1943 59.3604L54.7739 61.7797L43.4817 50.4875L45.901 48.0682ZM26.5446 52.9079C28.4712 54.8303 31.0818 55.91 33.8035 55.91C36.5252 55.91 39.1358 54.8303 41.0624 52.9079L41.8689 52.1015L53.1371 63.3697C49.4378 66.6491 44.627 68.3939 39.6855 68.2483C34.7441 68.1027 30.0443 66.0776 26.5446 62.5861L10.4138 46.4554C6.92258 42.9555 4.8977 38.2558 4.75209 33.3144C4.60648 28.3731 6.35111 23.5622 9.63024 19.8628L20.8985 31.1311L20.0921 31.9375C18.1696 33.8642 17.09 36.4747 17.09 39.1964C17.09 41.9181 18.1696 44.5287 20.0921 46.4554L26.5446 52.9079Z" fill="white"/>
</g>
<defs>
<linearGradient id="paint0_linear" x1="18.4282" y1="14.6855" x2="18.4282" y2="30.2266" gradientUnits="userSpaceOnUse">
<stop stop-color="#FF5B14"/>
<stop offset="1" stop-color="#FF7F47"/>
</linearGradient>
<linearGradient id="paint1_linear" x1="50.7222" y1="47.0508" x2="50.7222" y2="62.5918" gradientUnits="userSpaceOnUse">
<stop stop-color="#FF5B14"/>
<stop offset="1" stop-color="#FF7F47"/>
</linearGradient>
<clipPath id="clip0">
<rect width="73" height="73" fill="white"/>
</clipPath>
</defs>
</svg>
