<svg width="73" height="73" viewBox="0 0 73 73" fill="none" xmlns="http://www.w3.org/2000/svg">
<g clip-path="url(#clip0)">
<rect x="17.8223" y="15.1133" width="24.0957" height="4.84766" fill="url(#paint0_linear)"/>
<path d="M52.7539 55.9619L46.3379 53.8232L47.835 62.6631L52.7539 55.9619Z" fill="url(#paint1_linear)"/>
<path d="M71.3032 16.5181C71.1683 16.2684 70.9399 16.0825 70.6678 16.0014L67.1104 14.9403L67.7497 12.8022C67.9308 12.2053 67.8668 11.5726 67.5695 11.0209C67.4526 10.8039 67.3046 10.6111 67.1328 10.445L68.3182 6.48274C68.9407 4.38898 67.7458 2.17931 65.6565 1.55781C64.6438 1.25469 63.5715 1.36533 62.6376 1.86977C61.7051 2.37364 61.026 3.20786 60.7259 4.21718L59.5403 8.17956C58.768 8.32457 58.0952 8.85282 57.7956 9.61661L48.6236 0.880563L48.463 0.727006C48.2711 0.54251 48.0907 0.371416 47.8823 0.240814C47.873 0.234398 47.8636 0.228125 47.8541 0.221994C47.8502 0.219713 47.8465 0.217289 47.8428 0.21515C47.7605 0.162967 47.671 0.121477 47.5755 0.0932461C47.4148 0.0357871 47.2354 0 47.0208 0H3.59325C2.47672 0 1.56836 0.907937 1.56836 2.0239V32.623C1.56836 33.2137 2.04714 33.6924 2.6377 33.6924C3.22825 33.6924 3.70703 33.2137 3.70703 32.623V2.13867H46.2014L46.1945 8.31373C46.1945 11.0244 48.3996 13.2297 51.1101 13.2297H56.7052L52.3085 27.9322C52.1393 28.4979 52.4608 29.0938 53.0267 29.263C53.5927 29.4328 54.1882 29.1107 54.3575 28.5449L59.153 12.5091C59.1619 12.4829 59.1698 12.4563 59.1769 12.4292L59.7794 10.4143C59.809 10.315 59.9259 10.2549 60.0275 10.2849L65.5721 11.9398C65.6343 11.9582 65.6688 12.0018 65.6866 12.035C65.7044 12.0681 65.7217 12.1204 65.7019 12.1857L64.7567 15.3465C64.756 15.349 64.7548 15.3512 64.7541 15.3537C64.7534 15.3561 64.7531 15.3585 64.7524 15.3608L53.0921 54.3565L51.1572 53.7793L47.1694 52.5897L52.9441 33.2814C53.1133 32.7155 52.7918 32.1197 52.2259 31.9505C51.6603 31.7811 51.0644 32.1027 50.8951 32.6685L44.8137 53.0019C44.8119 53.0081 44.8109 53.0145 44.809 53.021C44.8055 53.0336 44.8028 53.0465 44.7996 53.0593C44.7932 53.0863 44.7876 53.1133 44.7834 53.1404C44.7812 53.154 44.7792 53.1674 44.7775 53.1811C44.774 53.2107 44.7718 53.2404 44.7708 53.2702C44.7704 53.2809 44.7695 53.2913 44.7694 53.302C44.7691 53.3426 44.771 53.3831 44.7754 53.4236C44.7755 53.4249 44.7754 53.4262 44.7755 53.4274L45.3668 58.7031L45.7897 62.4378C45.3845 62.1722 45.0801 61.7097 44.7146 61.1134C44.2658 60.3811 43.6509 59.3785 42.4735 59.5997C41.4844 59.7904 41.0193 60.6169 40.5695 61.4161C40.3361 61.8307 40.0947 62.2596 39.7583 62.6865C39.5097 63.0027 39.3419 63.0925 39.288 63.0957C39.2449 63.0992 38.9963 63.0754 38.2953 62.3781C36.4614 60.5583 35.0349 61.7998 34.3493 62.396C34.0934 62.6189 33.8033 62.8711 33.6126 62.9055C33.4323 62.936 33.1038 62.7523 32.7302 62.4096C32.2948 62.0104 31.6186 62.0396 31.2193 62.4752C30.8203 62.9105 30.8495 63.5868 31.2848 63.9861C33.4735 65.9931 35.0132 64.6535 35.7532 64.0095C35.934 63.8522 36.2365 63.589 36.3402 63.5696C36.3416 63.5697 36.4866 63.5961 36.788 63.8951C37.4578 64.5618 38.274 65.2346 39.2803 65.2346C39.3258 65.2346 39.3717 65.2332 39.4179 65.2305C40.1571 65.1857 40.8374 64.7745 41.439 64.0096C41.8775 63.4533 42.1859 62.9053 42.4337 62.465C42.5225 62.3075 42.6284 62.1189 42.7257 61.9639C42.7828 62.0539 42.8407 62.1482 42.8918 62.2314C43.4923 63.2104 44.6016 65.0166 47.0675 64.8106C47.0717 64.8106 47.0763 64.8116 47.0806 64.8116C47.2394 64.8116 47.3806 64.7748 47.5045 64.7196C47.5227 64.7119 47.5401 64.7031 47.5578 64.6944C47.5614 64.6925 47.5651 64.6908 47.5686 64.689C47.6207 64.6626 47.6701 64.6325 47.7165 64.5984C47.868 64.4922 47.9812 64.3697 48.0548 64.2899C48.0671 64.2766 48.0789 64.2631 48.0905 64.2491L54.6332 56.37C54.6429 56.3583 54.6508 56.3453 54.66 56.3333C54.6717 56.3179 54.6831 56.3027 54.6941 56.2867C54.7166 56.2535 54.7369 56.2193 54.7554 56.1841C54.761 56.1734 54.7675 56.1635 54.7728 56.1527C54.7959 56.1051 54.8146 56.0559 54.8303 56.0057C54.8317 56.0013 54.8338 55.9976 54.8351 55.9931L57.8428 45.9344V70.8613H3.70703V37.5659C3.70703 36.9752 3.22825 36.4966 2.6377 36.4966C2.04714 36.4966 1.56836 36.9752 1.56836 37.5659V70.9721C1.56836 72.0902 2.47672 73 3.59325 73H57.9527C59.0715 73 59.9816 72.0902 59.9816 70.972V38.7817L66.4979 16.9893L69.0313 17.745L64.6858 32.2763C64.5166 32.842 64.8381 33.4379 65.404 33.6071C65.5062 33.6376 65.6093 33.6521 65.7108 33.6521C66.1712 33.6521 66.5962 33.3524 66.735 32.8888L71.387 17.3324C71.4681 17.0606 71.4381 16.7678 71.3032 16.5181ZM62.7754 4.82841C62.913 4.36574 63.2251 3.98321 63.6544 3.75137C64.085 3.51854 64.5782 3.46736 65.045 3.60694C66.0061 3.89295 66.5549 4.90954 66.2689 5.87137L65.1582 9.5841L61.6648 8.54143L62.7754 4.82841ZM48.3331 8.31487L48.3384 3.5616L56.2428 11.0909H51.11C49.5788 11.0909 48.3331 9.84502 48.3331 8.31487ZM47.8072 61.2424L47.0813 54.7951L51.9538 56.2486L47.8072 61.2424Z" fill="white"/>
<path d="M15.1035 28.8652C15.1035 29.4559 15.5823 29.9346 16.1729 29.9346H45.207C45.7976 29.9346 46.2764 29.4559 46.2764 28.8652C46.2764 28.2745 45.7976 27.7959 45.207 27.7959H16.1729C15.5823 27.7959 15.1035 28.2747 15.1035 28.8652Z" fill="white"/>
<path d="M16.1729 38.2471H43.4376C44.0282 38.2471 44.507 37.7684 44.507 37.1777C44.507 36.587 44.0282 36.1084 43.4376 36.1084H16.1729C15.5823 36.1084 15.1035 36.587 15.1035 37.1777C15.1035 37.7684 15.5823 38.2471 16.1729 38.2471Z" fill="white"/>
<path d="M16.1729 46.5591H41.3282C41.9188 46.5591 42.3975 46.0804 42.3975 45.4897C42.3975 44.899 41.9188 44.4204 41.3282 44.4204H16.1729C15.5823 44.4204 15.1035 44.899 15.1035 45.4897C15.1035 46.0804 15.5823 46.5591 16.1729 46.5591Z" fill="white"/>
<path d="M16.1729 54.8711H33.4006C33.9911 54.8711 34.4699 54.3925 34.4699 53.8018C34.4699 53.2111 33.9911 52.7324 33.4006 52.7324H16.1729C15.5823 52.7324 15.1035 53.2111 15.1035 53.8018C15.1035 54.3925 15.5823 54.8711 16.1729 54.8711Z" fill="white"/>
<path d="M41.8059 21.7155C42.7974 21.7155 43.6041 20.9092 43.6041 19.9181V15.6064C43.6041 14.6154 42.7974 13.8091 41.8059 13.8091H18.2742C17.2828 13.8091 16.4762 14.6154 16.4762 15.6064V19.918C16.4762 20.909 17.2828 21.7153 18.2742 21.7153H41.8059V21.7155ZM18.6149 15.9476H41.4656V19.5768H18.6149V15.9476Z" fill="white"/>
</g>
<defs>
<linearGradient id="paint0_linear" x1="29.8701" y1="15.1133" x2="29.8701" y2="19.9609" gradientUnits="userSpaceOnUse">
<stop stop-color="#FF5B14"/>
<stop offset="1" stop-color="#FF7F47"/>
</linearGradient>
<linearGradient id="paint1_linear" x1="49.5459" y1="53.8232" x2="49.5459" y2="62.6631" gradientUnits="userSpaceOnUse">
<stop stop-color="#FF5B14"/>
<stop offset="1" stop-color="#FF7F47"/>
</linearGradient>
<clipPath id="clip0">
<rect width="73" height="73" fill="white"/>
</clipPath>
</defs>
</svg>
