<svg width="73" height="73" viewBox="0 0 73 73" fill="none" xmlns="http://www.w3.org/2000/svg">
<g clip-path="url(#clip0)">
<path d="M4.18787 13.1914C1.57247 10.8142 1.37931 6.76701 3.75643 4.15161C6.13356 1.53621 10.1808 1.34305 12.7962 3.72017L17.4823 7.97931L8.87394 17.4505L4.18787 13.1914Z" fill="url(#paint0_linear)"/>
<path d="M69.1144 69.5719L56.3827 64.4328L65.7921 56.2501L69.1144 69.5719Z" fill="url(#paint1_linear)"/>
<path d="M71.9801 10.3522L62.6474 1.01945C61.288 -0.339888 59.0761 -0.339746 57.7167 1.01945L40.145 18.5911C39.705 19.0312 39.705 19.7444 40.145 20.1845C40.585 20.6244 41.2983 20.6244 41.7383 20.1845L59.3099 2.6129C59.5429 2.37993 59.8525 2.25175 60.1819 2.25175C60.5113 2.25175 60.8209 2.37993 61.0539 2.6129L70.3868 11.9456C70.6196 12.1785 70.7479 12.4882 70.7479 12.8176C70.7479 13.147 70.6196 13.4567 70.3868 13.6895L68.0964 15.9799L62.0954 9.97906C61.6554 9.53921 60.9421 9.53921 60.5021 9.97906C60.0621 10.4192 60.0621 11.1324 60.5021 11.5725L66.503 17.5733L63.8862 20.1901L61.2488 17.5527C60.8088 17.1128 60.0955 17.1128 59.6555 17.5527C59.2155 17.9928 59.2155 18.706 59.6555 19.1461L62.2929 21.7834L59.6762 24.4001L57.0388 21.7627C56.5988 21.3229 55.8855 21.3229 55.4455 21.7627C55.0055 22.2029 55.0055 22.916 55.4455 23.3562L58.0829 25.9934L55.4661 28.6102L49.4652 22.6091C49.0253 22.1693 48.3118 22.1691 47.8719 22.6091C47.4319 23.0492 47.4319 23.7624 47.8719 24.2025L53.8728 30.2035L51.2561 32.8202L48.6187 30.1828C48.1787 29.743 47.4654 29.743 47.0254 30.1828C46.5854 30.6229 46.5854 31.3361 47.0254 31.7763L49.6626 34.4135L47.449 36.6272L36.3722 25.5504L38.4325 23.49C38.8725 23.0499 38.8725 22.3367 38.4325 21.8966C37.9925 21.4567 37.2792 21.4567 36.8392 21.8966L34.7788 23.957L13.9954 3.17438C12.55 1.72892 10.6282 0.932907 8.58403 0.932907C6.53988 0.933049 4.61807 1.72906 3.17276 3.17452C1.72716 4.61998 0.931145 6.54165 0.931145 8.58593C0.931145 10.6301 1.72716 12.5519 3.17262 13.9973L23.9555 34.7802L1.02097 57.7152C-0.33837 59.0747 -0.33837 61.2865 1.02097 62.646L10.3537 71.9789C11.0121 72.6373 11.8877 73 12.819 73C13.7503 73 14.6259 72.6373 15.2843 71.9789L38.2192 49.044L39.8527 50.6776C40.2927 51.1174 41.006 51.1174 41.446 50.6776C41.886 50.2374 41.886 49.5242 41.446 49.0841L39.1913 46.8294C39.1475 46.7601 39.0962 46.6942 39.0359 46.6339C38.9755 46.5736 38.9097 46.5223 38.8405 46.4785L14.4279 22.0658L17.4492 19.0445L19.3173 20.9125C19.5373 21.1324 19.8256 21.2424 20.114 21.2424C20.4025 21.2424 20.6908 21.1324 20.9108 20.9125C21.3508 20.4724 21.3508 19.7592 20.9108 19.3191L19.0428 17.4512L22.0642 14.4298L33.9808 26.3463C33.9812 26.3469 33.9816 26.3473 33.9822 26.3479C33.9827 26.3485 33.9832 26.3487 33.9837 26.3493L46.5422 38.9077C46.5732 38.9488 46.6063 38.989 46.6438 39.0265C46.6813 39.064 46.7214 39.0971 46.7625 39.1282L63.4823 55.848L60.4609 58.8694L43.5917 42.0001C43.5815 41.9891 43.5724 41.9776 43.5617 41.967L36.8346 35.2398C36.8235 35.2286 36.8114 35.219 36.7999 35.2084L24.9171 23.3257C24.4771 22.8858 23.7637 22.8858 23.3238 23.3257C22.8838 23.7658 22.8838 24.479 23.3238 24.9191L58.8672 60.4626L55.8457 63.4839L45.1386 52.7767C44.6986 52.3369 43.9853 52.3369 43.5453 52.7767C43.1053 53.2169 43.1053 53.93 43.5453 54.3702L55.0491 65.874C55.1584 65.9833 55.2939 66.0716 55.438 66.1275L69.0511 71.4127C69.2658 71.496 69.4897 71.5365 69.7118 71.5365C70.1883 71.5365 70.6563 71.35 71.0054 71.0005C71.5174 70.4882 71.6785 69.7212 71.4161 69.0462L66.1253 55.4394C66.0694 55.2957 65.9811 55.1599 65.8719 55.0509L49.0421 38.2211L71.9801 15.283C73.3396 13.9235 73.3396 11.7117 71.9801 10.3522ZM36.6263 47.4507L34.4153 49.6611L31.7779 47.0237C31.3379 46.5839 30.6246 46.5839 30.1846 47.0237C29.7446 47.4638 29.7446 48.177 30.1846 48.6172L32.822 51.2546L30.2053 53.8713L24.2043 47.8703C23.7643 47.4305 23.051 47.4305 22.611 47.8703C22.171 48.3105 22.171 49.0237 22.611 49.4638L28.612 55.4648L25.9952 58.0815L23.3578 55.4441C22.9178 55.0042 22.2045 55.0042 21.7645 55.4441C21.3245 55.8842 21.3245 56.5974 21.7645 57.0375L24.4019 59.6748L21.7852 62.2915L19.1478 59.6541C18.7078 59.2143 17.9945 59.2143 17.5545 59.6541C17.1145 60.0943 17.1145 60.8074 17.5545 61.2476L20.1919 63.885L17.5751 66.5017L11.5742 60.5008C11.1342 60.0609 10.4209 60.0609 9.98086 60.5008C9.54087 60.9409 9.54087 61.6541 9.98086 62.0942L15.9818 68.095L13.6915 70.3854C13.4585 70.6184 13.1488 70.7467 12.8195 70.7467C12.4901 70.7467 12.1804 70.6184 11.9474 70.3854L2.61471 61.0525C2.13393 60.5718 2.13393 59.7894 2.61471 59.3087L25.5494 36.3738L36.6263 47.4507ZM4.76593 12.404C2.66062 10.2987 2.66062 6.87314 4.76593 4.76783C6.87123 2.66238 10.2968 2.66238 12.4021 4.76783L15.9632 8.32886L8.32696 15.9651L4.76593 12.404ZM16.6534 16.6536C16.6531 16.6539 16.6528 16.654 16.6527 16.6543C16.6524 16.6546 16.6522 16.6549 16.652 16.655L12.8346 20.4724L9.92041 17.5582L17.5566 9.92203L20.4708 12.8362L16.6534 16.6536ZM68.966 68.9623L57.8643 64.6524L64.6512 57.8655L68.966 68.9623Z" fill="white"/>
</g>
<defs>
<linearGradient id="paint0_linear" x1="3.75643" y1="4.15161" x2="13.1781" y2="12.7149" gradientUnits="userSpaceOnUse">
<stop stop-color="#FF5B14"/>
<stop offset="1" stop-color="#FF7F47"/>
</linearGradient>
<linearGradient id="paint1_linear" x1="69.1144" y1="69.5719" x2="58.4117" y2="57.2647" gradientUnits="userSpaceOnUse">
<stop stop-color="#FF5B14"/>
<stop offset="1" stop-color="#FF7F47"/>
</linearGradient>
<clipPath id="clip0">
<rect width="73" height="73" fill="white"/>
</clipPath>
</defs>
</svg>
