<svg width="73" height="73" viewBox="0 0 73 73" fill="none" xmlns="http://www.w3.org/2000/svg">
<g clip-path="url(#clip0)">
<circle cx="62.6631" cy="62.3779" r="2.20996" fill="url(#paint0_linear)"/>
<path d="M62.6631 10.2656L65.3008 5.06152L71.5742 11.1211L65.8711 13.6875L62.6631 10.2656Z" fill="url(#paint1_linear)"/>
<path d="M6.13081 69.4355C3.7355 67.8386 4.56245 62.1165 5.27534 59.455L21.2441 44.3418C23.4303 44.1517 28.0593 43.4008 29.0859 41.918C30.1125 40.4352 30.5592 35.8822 30.6542 33.791L35.5019 30.9395L43.914 39.3516L45.3398 42.916L41.7753 45.9101C40.4446 45.8151 37.1558 45.9386 34.6464 47.1933C32.1371 48.448 31.8899 53.5143 32.08 55.8906C29.1809 58.9798 22.4132 66.0136 18.5351 69.4355C13.6875 73.7129 9.12495 71.4316 6.13081 69.4355Z" fill="url(#paint2_linear)"/>
<path d="M62.5879 58.7021C60.5065 58.7021 58.8131 60.3954 58.8131 62.4769C58.8131 64.5583 60.5064 66.2515 62.5879 66.2515C64.6692 66.2515 66.3625 64.5583 66.3625 62.4769C66.3625 60.3955 64.6692 58.7021 62.5879 58.7021ZM62.5877 64.0145C61.74 64.0145 61.0502 63.3247 61.0502 62.4769C61.0502 61.6291 61.74 60.9393 62.5877 60.9393C63.4355 60.9393 64.1253 61.6291 64.1253 62.4769C64.1253 63.3247 63.4355 64.0145 62.5877 64.0145Z" fill="white"/>
<path d="M72.758 62.281C72.6867 59.5174 71.517 56.9755 69.4642 55.1238L46.9437 34.8114L66.8559 14.8993C66.9867 14.8602 67.1161 14.8116 67.2408 14.7457L71.5528 12.4699C72.1485 12.1553 72.548 11.5927 72.6485 10.9267C72.7492 10.2606 72.5337 9.60533 72.0574 9.12855L67.2023 4.27362C66.7258 3.79727 66.071 3.58183 65.4043 3.68249C64.7383 3.78301 64.1758 4.18251 63.8611 4.77835L61.5852 9.09005C61.5187 9.21595 61.4677 9.34612 61.4285 9.47829L52.0297 18.877C51.5929 19.314 51.5929 20.0221 52.0297 20.4591C52.4667 20.8957 53.1748 20.8957 53.6118 20.4591L62.2366 11.8341L64.4969 14.0944L42.4401 36.1512L40.1798 33.8909L49.8074 24.2635C50.2442 23.8265 50.2442 23.1185 49.8074 22.6815C49.3704 22.2449 48.6623 22.2449 48.2253 22.6815L41.2398 29.6669L33.6373 22.8098C35.7928 16.6053 34.2318 9.70243 29.556 5.02672C24.7666 0.237378 17.5819 -1.28892 11.2517 1.13876C10.8979 1.27449 10.6369 1.57989 10.5582 1.95045C10.4795 2.32101 10.5934 2.70626 10.8613 2.97417L19.643 11.756C19.9027 12.0158 20.046 12.3612 20.046 12.7286C20.046 13.0961 19.9029 13.4415 19.643 13.7015L13.94 19.4044C13.6802 19.6644 13.3347 19.8075 12.9673 19.8075C12.5999 19.8075 12.2544 19.6645 11.9945 19.4044L3.21269 10.6226C2.94464 10.3547 2.55968 10.2408 2.18897 10.3195C1.81841 10.3983 1.51301 10.6593 1.37728 11.013C-1.0504 17.3429 0.475899 24.5277 5.26538 29.3173C9.8266 33.8784 16.5958 35.4843 22.7025 33.5111L28.5806 39.939C28.2982 40.4909 27.9309 41.0056 27.4779 41.4586C25.7835 43.153 23.2441 43.6868 21.0077 42.8188C20.5944 42.6579 20.1254 42.7569 19.8118 43.0704L6.11586 56.7663C2.40826 60.4741 2.40826 66.5068 6.11586 70.2143C7.9122 72.0109 10.3002 73 12.8403 73C15.3802 73 17.7683 72.0109 19.5644 70.2149L33.2603 56.5191C33.5737 56.2056 33.6725 55.7365 33.512 55.3232C32.6438 53.087 33.1776 50.5472 34.8719 48.8528C36.5666 47.1584 39.1062 46.6246 41.3424 47.4926C41.756 47.6534 42.2246 47.5542 42.5383 47.241L45.1218 44.6575C45.8997 43.8795 46.328 42.8451 46.328 41.7452C46.328 40.6452 45.8997 39.6108 45.1218 38.8329L44.0221 37.7331L45.3599 36.3953L67.966 56.785C69.5589 58.2218 70.4666 60.1942 70.5218 62.3386C70.577 64.4829 69.772 66.4994 68.2551 68.0162C66.7455 69.5261 64.7341 70.3296 62.6039 70.2836C60.4694 70.236 58.5004 69.342 57.0596 67.7664L40.2512 49.3859C39.8339 48.9298 39.1267 48.8984 38.6709 49.3153C38.215 49.7324 38.1834 50.4398 38.6003 50.8957L55.4085 69.2761C57.2655 71.3066 59.8031 72.4586 62.5538 72.5201C62.6308 72.5218 62.7077 72.5226 62.7845 72.5226C65.449 72.5226 67.9457 71.4891 69.837 69.5981C71.7918 67.6432 72.829 65.0446 72.758 62.281ZM63.6111 10.0446L65.7524 5.9877L70.3433 10.5786L66.2864 12.7199L63.6111 10.0446ZM23.8567 31.4583C23.5487 31.1218 23.0677 31.0057 22.6402 31.1651C17.1705 33.2054 10.9709 31.8592 6.84714 27.7359C3.10276 23.9913 1.65188 18.5628 2.93038 13.5044L10.4125 20.9865C11.095 21.6689 12.0022 22.0446 12.9672 22.0446C13.9321 22.0446 14.8394 21.6689 15.5217 20.9865L21.2247 15.2835C21.9071 14.601 22.2828 13.6938 22.2828 12.7288C22.2828 11.7638 21.9071 10.8566 21.2247 10.1742L13.7428 2.69186C18.8008 1.41279 24.2298 2.86409 27.9741 6.60862C32.2028 10.8371 33.5023 17.1598 31.285 22.7168C31.1115 23.1515 31.227 23.6484 31.5748 23.9619L39.6559 31.2508L38.5977 32.309L37.498 31.2093C36.7201 30.4314 35.6857 30.0031 34.5857 30.0031C33.4857 30.0031 32.4513 30.4314 31.6734 31.2093L29.0899 33.7929C28.7765 34.1064 28.6777 34.5755 28.8383 34.9888C29.1358 35.7552 29.2648 36.5567 29.2427 37.3482L23.8567 31.4583ZM43.5396 43.0755L41.4463 45.169C38.5674 44.3391 35.4346 45.1264 33.2901 47.2708H33.29C31.1456 49.4153 30.3581 52.5476 31.1884 55.4271L17.9825 68.6327C16.6089 70.0063 14.7828 70.7628 12.8404 70.7628C10.8981 70.7628 9.07165 70.0063 7.69834 68.6327C4.86289 65.7974 4.86289 61.1838 7.69834 58.3484L20.9041 45.1426C23.7833 45.973 26.9156 45.1851 29.0602 43.0408C31.2046 40.8962 31.9922 37.7639 31.162 34.8846L33.2555 32.7912C33.9889 32.0575 35.1827 32.0575 35.9161 32.7912L37.8068 34.682L41.6489 38.524L43.5396 40.4148C44.2733 41.1485 44.2733 42.3421 43.5396 43.0755Z" fill="white"/>
<path d="M23.1441 49.3676C22.7071 48.9309 21.9991 48.9309 21.5621 49.3676L10.966 59.9637C10.5291 60.4007 10.5291 61.1087 10.966 61.5457C11.1844 61.764 11.4708 61.8732 11.757 61.8732C12.0431 61.8732 12.3296 61.764 12.548 61.5457L23.1441 50.9496C23.5808 50.5126 23.5808 49.8044 23.1441 49.3676Z" fill="white"/>
<path d="M27.0592 53.2826C26.6223 52.8459 25.9141 52.8459 25.4771 53.2826L14.881 63.8786C14.4441 64.3156 14.4441 65.0236 14.881 65.4606C15.0994 65.6789 15.3857 65.7881 15.672 65.7881C15.9582 65.7881 16.2446 65.6789 16.463 65.4606L27.0592 54.8647C27.496 54.4277 27.496 53.7196 27.0592 53.2826Z" fill="white"/>
</g>
<defs>
<linearGradient id="paint0_linear" x1="62.6631" y1="60.168" x2="62.6631" y2="64.5879" gradientUnits="userSpaceOnUse">
<stop stop-color="#FF5B14"/>
<stop offset="1" stop-color="#FF7F47"/>
</linearGradient>
<linearGradient id="paint1_linear" x1="67.1187" y1="5.06152" x2="67.1187" y2="13.6875" gradientUnits="userSpaceOnUse">
<stop stop-color="#FF5B14"/>
<stop offset="1" stop-color="#FF7F47"/>
</linearGradient>
<linearGradient id="paint2_linear" x1="24.9386" y1="30.9395" x2="24.9386" y2="71.8613" gradientUnits="userSpaceOnUse">
<stop stop-color="#FF5B14"/>
<stop offset="1" stop-color="#FF7F47"/>
</linearGradient>
<clipPath id="clip0">
<rect width="73" height="73" fill="white"/>
</clipPath>
</defs>
</svg>
