<svg width="107" height="83" viewBox="0 0 107 83" fill="none" xmlns="http://www.w3.org/2000/svg">
<path d="M80 43C80 53.6087 75.7857 63.7828 68.2843 71.2843C60.7828 78.7857 50.6087 83 40 83C29.3913 83 19.2172 78.7857 11.7157 71.2843C4.21427 63.7828 -1.41124e-06 53.6087 -1.74846e-06 43L12 43C12 50.4261 14.95 57.548 20.201 62.799C25.452 68.05 32.5739 71 40 71C47.4261 71 54.548 68.05 59.799 62.799C65.05 57.548 68 50.4261 68 43L80 43Z" fill="url(#paint0_linear_29_23)"/>
<path d="M80 40C80 29.3913 75.7857 19.2172 68.2843 11.7157C60.7828 4.21427 50.6087 -2.50729e-06 40 -1.74846e-06C29.3913 -9.89623e-07 19.2172 4.21427 11.7157 11.7157C4.21427 19.2172 1.15823e-06 29.3913 1.74846e-06 40L12 40C12 32.5739 14.95 25.452 20.201 20.201C25.452 14.95 32.5739 12 40 12C47.4261 12 54.548 14.95 59.799 20.201C65.05 25.452 68 32.5739 68 40L80 40Z" fill="url(#paint1_linear_29_23)"/>
<circle cx="40.5" cy="41.5" r="22.5" fill="white"/>
<line x1="4.37114e-08" y1="41.5" x2="107" y2="41.5" stroke="white"/>
<defs>
<linearGradient id="paint0_linear_29_23" x1="40" y1="56" x2="40" y2="86.5" gradientUnits="userSpaceOnUse">
<stop stop-color="#DBBD87"/>
<stop offset="1"/>
</linearGradient>
<linearGradient id="paint1_linear_29_23" x1="40" y1="27" x2="40" y2="-3.50001" gradientUnits="userSpaceOnUse">
<stop stop-color="#DBBD87"/>
<stop offset="1"/>
</linearGradient>
</defs>
</svg>
