<svg width="30" height="30" viewBox="0 0 30 30" fill="none" xmlns="http://www.w3.org/2000/svg">
<g clip-path="url(#clip0_29_11)">
<path d="M29.9994 15.0916C29.9994 6.7553 23.2831 -0.00219727 14.9994 -0.00219727C6.71189 -0.000322266 -0.00436401 6.7553 -0.00436401 15.0934C-0.00436401 22.6253 5.48189 28.8691 12.6519 30.0016V19.4547H8.84564V15.0934H12.6556V11.7653C12.6556 7.98343 14.8963 5.89468 18.3219 5.89468C19.9644 5.89468 21.68 6.18905 21.68 6.18905V9.90155H19.7881C17.9263 9.90155 17.345 11.0659 17.345 12.2603V15.0916H21.5038L20.84 19.4528H17.3431V29.9997C24.5131 28.8672 29.9994 22.6234 29.9994 15.0916Z" fill="#DBBD87"/>
</g>
<defs>
<clipPath id="clip0_29_11">
<rect width="30" height="30" fill="white"/>
</clipPath>
</defs>
</svg>
