<svg width="59" height="67" viewBox="0 0 59 67" fill="none" xmlns="http://www.w3.org/2000/svg">
<circle cx="1.5" cy="49.5" r="1.5" fill="#DBBD87"/>
<circle cx="1.5" cy="65.5" r="1.5" fill="url(#paint0_linear_7_123)"/>
<circle cx="1.5" cy="41.5" r="1.5" fill="#DBBD87"/>
<circle cx="1.5" cy="57.5" r="1.5" fill="#DBBD87"/>
<circle cx="1.5" cy="33.5" r="1.5" fill="#DBBD87"/>
<circle cx="1.5" cy="25.5" r="1.5" fill="#DBBD87"/>
<circle cx="1.5" cy="9.5" r="1.5" fill="#DBBD87"/>
<circle cx="1.5" cy="17.5" r="1.5" fill="#DBBD87"/>
<circle cx="1.5" cy="1.5" r="1.5" fill="#DBBD87"/>
<circle cx="9.5" cy="49.5" r="1.5" fill="#DBBD87"/>
<circle cx="9.5" cy="65.5" r="1.5" fill="white"/>
<circle cx="9.5" cy="41.5" r="1.5" fill="#DBBD87"/>
<circle cx="9.5" cy="57.5" r="1.5" fill="url(#paint1_linear_7_123)"/>
<circle cx="9.5" cy="33.5" r="1.5" fill="#DBBD87"/>
<circle cx="9.5" cy="25.5" r="1.5" fill="#DBBD87"/>
<circle cx="9.5" cy="9.5" r="1.5" fill="#DBBD87"/>
<circle cx="9.5" cy="17.5" r="1.5" fill="#DBBD87"/>
<circle cx="9.5" cy="1.5" r="1.5" fill="#DBBD87"/>
<circle cx="17.5" cy="49.5" r="1.5" fill="url(#paint2_linear_7_123)"/>
<circle cx="17.5" cy="65.5" r="1.5" fill="white"/>
<circle cx="17.5" cy="41.5" r="1.5" fill="#DBBD87"/>
<circle cx="17.5" cy="57.5" r="1.5" fill="white"/>
<circle cx="17.5" cy="33.5" r="1.5" fill="#DBBD87"/>
<circle cx="17.5" cy="25.5" r="1.5" fill="#DBBD87"/>
<circle cx="17.5" cy="9.5" r="1.5" fill="#DBBD87"/>
<circle cx="17.5" cy="17.5" r="1.5" fill="#DBBD87"/>
<circle cx="17.5" cy="1.5" r="1.5" fill="#DBBD87"/>
<circle cx="25.5" cy="49.5" r="1.5" fill="white"/>
<circle cx="25.5" cy="65.5" r="1.5" fill="white"/>
<circle cx="25.5" cy="41.5" r="1.5" fill="url(#paint3_linear_7_123)"/>
<circle cx="25.5" cy="57.5" r="1.5" fill="white"/>
<circle cx="25.5" cy="33.5" r="1.5" fill="#DBBD87"/>
<circle cx="25.5" cy="25.5" r="1.5" fill="#DBBD87"/>
<circle cx="25.5" cy="9.5" r="1.5" fill="#DBBD87"/>
<circle cx="25.5" cy="17.5" r="1.5" fill="#DBBD87"/>
<circle cx="25.5" cy="1.5" r="1.5" fill="#DBBD87"/>
<circle cx="33.5" cy="49.5" r="1.5" fill="white"/>
<circle cx="33.5" cy="65.5" r="1.5" fill="white"/>
<circle cx="41.5" cy="49.5" r="1.5" fill="white"/>
<circle cx="57.5" cy="49.5" r="1.5" fill="white"/>
<circle cx="41.5" cy="65.5" r="1.5" fill="white"/>
<circle cx="57.5" cy="65.5" r="1.5" fill="white"/>
<circle cx="49.5" cy="49.5" r="1.5" fill="white"/>
<circle cx="49.5" cy="65.5" r="1.5" fill="white"/>
<circle cx="33.5" cy="41.5" r="1.5" fill="white"/>
<circle cx="33.5" cy="57.5" r="1.5" fill="white"/>
<circle cx="41.5" cy="41.5" r="1.5" fill="white"/>
<circle cx="57.5" cy="41.5" r="1.5" fill="white"/>
<circle cx="41.5" cy="57.5" r="1.5" fill="white"/>
<circle cx="57.5" cy="57.5" r="1.5" fill="white"/>
<circle cx="49.5" cy="41.5" r="1.5" fill="white"/>
<circle cx="49.5" cy="57.5" r="1.5" fill="white"/>
<circle cx="33.5" cy="33.5" r="1.5" fill="url(#paint4_linear_7_123)"/>
<circle cx="41.5" cy="33.5" r="1.5" fill="white"/>
<circle cx="57.5" cy="33.5" r="1.5" fill="white"/>
<circle cx="49.5" cy="33.5" r="1.5" fill="white"/>
<circle cx="33.5" cy="25.5" r="1.5" fill="#DBBD87"/>
<circle cx="33.5" cy="9.5" r="1.5" fill="#DBBD87"/>
<circle cx="41.5" cy="25.5" r="1.5" fill="url(#paint5_linear_7_123)"/>
<circle cx="57.5" cy="25.5" r="1.5" fill="white"/>
<circle cx="41.5" cy="9.5" r="1.5" fill="#DBBD87"/>
<circle cx="57.5" cy="9.5" r="1.5" fill="url(#paint6_linear_7_123)"/>
<circle cx="49.5" cy="25.5" r="1.5" fill="white"/>
<circle cx="49.5" cy="9.5" r="1.5" fill="#DBBD87"/>
<circle cx="33.5" cy="17.5" r="1.5" fill="#DBBD87"/>
<circle cx="33.5" cy="1.5" r="1.5" fill="#DBBD87"/>
<circle cx="41.5" cy="17.5" r="1.5" fill="#DBBD87"/>
<circle cx="57.5" cy="17.5" r="1.5" fill="white"/>
<circle cx="41.5" cy="1.5" r="1.5" fill="#DBBD87"/>
<circle cx="57.5" cy="1.5" r="1.5" fill="#DBBD87"/>
<circle cx="49.5" cy="17.5" r="1.5" fill="url(#paint7_linear_7_123)"/>
<circle cx="49.5" cy="1.5" r="1.5" fill="#DBBD87"/>
<defs>
<linearGradient id="paint0_linear_7_123" x1="0" y1="64" x2="3" y2="67" gradientUnits="userSpaceOnUse">
<stop stop-color="#DBBD87"/>
<stop offset="1" stop-color="white"/>
</linearGradient>
<linearGradient id="paint1_linear_7_123" x1="8" y1="56" x2="11" y2="59" gradientUnits="userSpaceOnUse">
<stop stop-color="#DBBD87"/>
<stop offset="1" stop-color="white"/>
</linearGradient>
<linearGradient id="paint2_linear_7_123" x1="16" y1="48" x2="19" y2="51" gradientUnits="userSpaceOnUse">
<stop stop-color="#DBBD87"/>
<stop offset="1" stop-color="white"/>
</linearGradient>
<linearGradient id="paint3_linear_7_123" x1="24" y1="40" x2="27" y2="43" gradientUnits="userSpaceOnUse">
<stop stop-color="#DBBD87"/>
<stop offset="1" stop-color="white"/>
</linearGradient>
<linearGradient id="paint4_linear_7_123" x1="32" y1="32" x2="35" y2="35" gradientUnits="userSpaceOnUse">
<stop stop-color="#DBBD87"/>
<stop offset="1" stop-color="white"/>
</linearGradient>
<linearGradient id="paint5_linear_7_123" x1="40" y1="24" x2="43" y2="27" gradientUnits="userSpaceOnUse">
<stop stop-color="#DBBD87"/>
<stop offset="1" stop-color="white"/>
</linearGradient>
<linearGradient id="paint6_linear_7_123" x1="56" y1="8" x2="59" y2="11" gradientUnits="userSpaceOnUse">
<stop stop-color="#DBBD87"/>
<stop offset="1" stop-color="white"/>
</linearGradient>
<linearGradient id="paint7_linear_7_123" x1="48" y1="16" x2="51" y2="19" gradientUnits="userSpaceOnUse">
<stop stop-color="#DBBD87"/>
<stop offset="1" stop-color="white"/>
</linearGradient>
</defs>
</svg>
