<svg width="30" height="30" viewBox="0 0 30 30" fill="none" xmlns="http://www.w3.org/2000/svg">
<path d="M15 0C6.71625 0 0 6.71625 0 15C0 23.2838 6.71625 30 15 30C23.2838 30 30 23.2838 30 15C30 6.71625 23.2838 0 15 0ZM22.3675 10.2762L19.905 21.8762C19.7237 22.6987 19.2337 22.8988 18.55 22.5113L14.8 19.7487L12.9925 21.4913C12.9039 21.6059 12.7903 21.6987 12.6603 21.7627C12.5303 21.8266 12.3874 21.8599 12.2425 21.86H12.2362L12.5025 18.0425L19.4525 11.765C19.7525 11.4987 19.385 11.3475 18.9862 11.6138L10.4 17.0212L6.7 15.8663C5.9 15.6125 5.8775 15.0663 6.86875 14.6737L21.3263 9.10125C21.9988 8.85625 22.5837 9.26125 22.3662 10.2775L22.3675 10.2762Z" fill="#DBBD87"/>
</svg>
