<svg width="80" height="80" viewBox="0 0 80 80" fill="none" xmlns="http://www.w3.org/2000/svg">
<path d="M63.6847 39.9264L42.283 1.34576C41.2876 -0.448463 38.7075 -0.448463 37.7122 1.34576L16.3106 39.9264C8.18641 56.295 15.6112 73.3006 30.8273 78.4681C33.4073 79.3929 36.1805 79.9333 39.0905 79.9937C39.2917 79.9979 39.4936 80 39.6962 80H39.6964C39.7973 80 39.897 79.9962 39.9976 79.9954C40.0983 79.9964 40.1978 80 40.2989 80H40.2991C40.5017 80 40.7034 79.9978 40.9048 79.9937C43.815 79.9333 46.588 79.3928 49.168 78.4681C64.5148 73.2561 71.7683 56.2131 63.6847 39.9264Z" fill="#ACD7FF"/>
<path d="M29.5934 44.4275L39.5969 1.45749C39.7352 0.863898 40.052 0.385304 40.4661 0.0421794C39.4297 -0.142821 38.2972 0.29093 37.7122 1.34562L16.3106 39.9264C8.18642 56.295 15.6113 73.3006 30.8275 78.4681C33.4075 79.3928 36.1806 79.9333 39.0906 79.9937C39.2919 79.998 39.4936 80 39.6964 80C39.7974 80 39.897 79.9964 39.9977 79.9955C40.0983 79.9964 40.1978 80 40.2988 80H40.2989C40.5016 80 40.7033 79.9978 40.9047 79.9937C43.8149 79.9333 46.5878 79.3928 49.1678 78.4681C50.1492 78.1348 51.0972 77.7523 52.0106 77.3256C37.0538 75.435 26.4161 61.5987 29.5934 44.4275Z" fill="#88C6FF"/>
</svg>
