<svg width="50" height="50" fill="none" xmlns="http://www.w3.org/2000/svg"><path d="M25 14.844c-5.654 0-10.254 4.6-10.254 10.254S19.346 35.352 25 35.352s10.254-4.6 10.254-10.254c0-5.655-4.6-10.254-10.254-10.254zm0 0c-5.654 0-10.254 4.6-10.254 10.254S19.346 35.352 25 35.352s10.254-4.6 10.254-10.254c0-5.655-4.6-10.254-10.254-10.254zM42.676 0H7.324A7.327 7.327 0 000 7.324v35.352A7.327 7.327 0 007.324 50h35.352A7.327 7.327 0 0050 42.676V7.324A7.327 7.327 0 0042.676 0zM25 38.281c-7.265 0-13.184-5.918-13.184-13.183 0-7.266 5.918-13.184 13.184-13.184 7.266 0 13.184 5.918 13.184 13.184 0 7.265-5.918 13.183-13.184 13.183zm16.113-26.367a2.938 2.938 0 01-2.93-2.93 2.938 2.938 0 012.93-2.93 2.938 2.938 0 012.93 2.93 2.938 2.938 0 01-2.93 2.93zM25 14.844c-5.654 0-10.254 4.6-10.254 10.254S19.346 35.352 25 35.352s10.254-4.6 10.254-10.254c0-5.655-4.6-10.254-10.254-10.254zm0 0c-5.654 0-10.254 4.6-10.254 10.254S19.346 35.352 25 35.352s10.254-4.6 10.254-10.254c0-5.655-4.6-10.254-10.254-10.254zm0 0c-5.654 0-10.254 4.6-10.254 10.254S19.346 35.352 25 35.352s10.254-4.6 10.254-10.254c0-5.655-4.6-10.254-10.254-10.254z" fill="#FECC47"/></svg>