<svg width="50" height="50" fill="none" xmlns="http://www.w3.org/2000/svg"><path d="M.883 24.108l11.521 4.3 4.46 14.34a1.356 1.356 0 002.153.65l6.422-5.236a1.916 1.916 0 012.336-.065l11.583 8.41a1.358 1.358 0 002.127-.822L49.971 4.87a1.359 1.359 0 00-1.819-1.543L.87 21.567c-1.167.45-1.157 2.102.013 2.54zm15.262 2.01L38.66 12.252c.405-.249.821.298.474.62L20.552 30.146a3.852 3.852 0 00-1.194 2.305l-.633 4.69c-.084.627-.963.69-1.136.083l-2.435-8.554a2.267 2.267 0 01.99-2.55z" fill="#FECC47"/></svg>