<svg width="50" height="50" fill="none" xmlns="http://www.w3.org/2000/svg"><g clip-path="url(#clip0_125:155)"><path d="M25 0C11.26 0 0 11.26 0 25c0 4.54 1.329 9.033 3.643 12.9L.073 48.08c-.175.528-.028 1.085.352 1.495.41.38.997.527 1.495.351l10.278-3.472c3.867 2.315 8.261 3.448 12.802 3.448 13.74 0 25-11.162 25-24.902S38.74 0 25 0zm15.205 35.4l-1.172 1.172c-3.378 3.293-13.836 2.188-20.683-4.659-6.973-7.001-7.822-17.519-4.658-20.683l1.172-1.172c1.23-1.2 3.193-1.2 4.394 0l4.658 4.659c1.201 1.2 1.201 3.193 0 4.394l-1.172 1.172a1.839 1.839 0 000 2.578l4.659 4.658a1.84 1.84 0 002.578 0l1.171-1.172c1.172-1.172 3.223-1.172 4.395 0l4.658 4.658c.586.586.908 1.348.908 2.198 0 .82-.322 1.61-.908 2.197zm-8.145-5.83c-1.845 1.875-4.863 1.875-6.738 0l-4.628-4.629c-1.875-1.875-1.875-4.892 0-6.738l1.142-1.172-4.629-4.892-1.435 1.142c-1.758 1.787-1.465 10.43 4.658 16.552 6.123 6.123 14.765 6.416 16.553 4.659l1.142-1.172-4.658-4.893-1.407 1.143z" fill="#FECC47"/></g><defs><clipPath id="clip0_125:155"><path fill="#fff" d="M0 0h50v50H0z"/></clipPath></defs></svg>