<svg width="100" height="70" fill="none" xmlns="http://www.w3.org/2000/svg"><path d="M18.368 52.4v-8.272c0-.531.287-.84.816-.84h.859c.528 0 .837.309.837.84v.929c.396-1.261 1.564-1.969 2.886-1.969 1.057 0 2.313.42 2.974 1.902.903-1.592 2.115-1.902 3.282-1.902 2.446 0 3.702 1.792 3.702 4.513v4.822c0 .53-.287.818-.816.818h-.859c-.529 0-.837-.288-.837-.818v-4.778c0-1.681-.705-2.433-1.674-2.433-.881 0-2.16.641-2.225 2.986v4.225c0 .53-.309.818-.837.818h-.86c-.528 0-.815-.288-.815-.818v-4.778c0-1.681-.727-2.433-1.696-2.433-.947 0-2.225.73-2.225 3.163v4.07c0 .53-.309.818-.837.818h-.86c-.528-.044-.815-.332-.815-.862zm17.889 0v-8.272c0-.531.286-.84.815-.84h.86c.528 0 .836.309.836.84v.929c.441-1.239 1.609-1.969 3.15-1.969 2.424 0 3.702 1.77 3.702 4.49v4.845c0 .53-.308.818-.837.818h-.86c-.528 0-.815-.288-.815-.818v-4.734c0-1.703-.727-2.477-1.784-2.477-1.013 0-2.556.752-2.556 3.185v3.981c0 .531-.308.819-.837.819h-.859c-.507.022-.815-.266-.815-.797zm11.632-12.055c0-.818.617-1.46 1.586-1.46.97 0 1.586.642 1.586 1.46 0 .819-.639 1.46-1.586 1.46-.97 0-1.586-.641-1.586-1.46zm.33 12.056v-8.273c0-.531.287-.84.816-.84h.88c.53 0 .816.309.816.84V52.4c0 .53-.287.818-.815.818h-.881c-.53 0-.816-.288-.816-.819zm6.059 4.445c-.44-.243-.529-.663-.287-1.128l.199-.354c.264-.486.639-.575 1.101-.287a5.18 5.18 0 002.622.708c1.784 0 3.04-.996 3.04-3.03v-1.04c-.815 1.216-2.071 1.703-3.37 1.703-2.865 0-4.803-2.323-4.803-5.176 0-2.831 1.938-5.176 4.802-5.176 1.3 0 2.534.487 3.349 1.703v-.707c0-.51.286-.775.815-.775h.837c.529 0 .815.31.815.84v8.65c0 3.583-2.49 5.043-5.353 5.043-1.586 0-2.776-.398-3.767-.974zm6.719-8.604c-.022-1.792-1.168-3.119-2.908-3.119-1.785 0-2.798 1.438-2.798 3.119 0 1.703 1.036 3.119 2.798 3.119 1.718 0 2.886-1.327 2.908-3.119zm4.406.044c0-2.83 2.159-5.22 5.375-5.22 2.644 0 4.957 1.593 5.133 4.778.044.509-.286.774-.815.774h-7.27c-.044 1.504 1.278 2.743 3.327 2.743.815 0 1.63-.221 2.423-.73.419-.243.815-.221 1.146.155l.176.221c.352.398.33.885-.154 1.239-1.124.884-2.468 1.172-3.723 1.172-3.46.022-5.618-2.3-5.618-5.132zm8.107-1.26c-.397-1.57-1.63-1.947-2.688-1.947-1.101 0-2.4.442-2.864 1.947h5.552zm4.34 5.374v-8.272c0-.531.286-.84.815-.84h.86c.528 0 .837.309.837.84v.929c.44-1.239 1.608-1.969 3.15-1.969 2.423 0 3.7 1.77 3.7 4.49v4.845c0 .53-.308.818-.836.818h-.86c-.528 0-.815-.288-.815-.818v-4.734c0-1.703-.726-2.477-1.762-2.477-1.013 0-2.555.752-2.555 3.185v3.981c0 .531-.309.819-.838.819h-.859c-.55.022-.837-.266-.837-.797zm11.235-4.158c0-2.898 1.961-5.176 4.825-5.176 1.3 0 2.511.487 3.349 1.703v-.641c0-.531.286-.84.815-.84h.859c.529 0 .837.309.837.84V52.4c0 .53-.308.818-.837.818h-.86c-.528 0-.814-.288-.814-.819v-.663c-.838 1.216-2.05 1.703-3.349 1.703-2.842 0-4.825-2.3-4.825-5.198zm8.24 0c-.022-1.792-1.168-3.097-2.908-3.097-1.785 0-2.798 1.416-2.798 3.097 0 1.703 1.035 3.097 2.798 3.097 1.74 0 2.886-1.305 2.908-3.097zm-83.627-1.88c0-2.699-1.96-4.8-4.538-4.8-2.6 0-4.56 2.08-4.56 4.8 0 2.698 1.96 4.8 4.56 4.8 2.577 0 4.538-2.08 4.538-4.8zM2 46.362c0-3.871 3.062-7.056 7.16-7.056 4.097 0 7.16 3.185 7.16 7.056 0 3.87-3.063 7.056-7.16 7.056C5.062 53.44 2 50.233 2 46.362zM38.063 9.025l-.352.11.132.354c.176.509.507.973.947 1.283a2.786 2.786 0 001.63.553c.31 0 .617-.044.904-.155l.352-.133-.11-.353c-.55-1.394-2.093-2.146-3.503-1.66zm1.146 1.172a1.831 1.831 0 01-.485-.531c.75-.11 1.498.265 1.895.93a2.03 2.03 0 01-1.41-.4zm6.543-5.685l-.286.244a2.83 2.83 0 00-.816 1.371c-.22.885 0 1.814.617 2.477l.243.288.286-.243c.55-.487.86-1.15.903-1.88a2.669 2.669 0 00-.683-1.97l-.264-.287zm-.176 3.252a2.087 2.087 0 01-.199-1.46 1.83 1.83 0 01.309-.664c.176.332.264.686.242 1.084 0 .398-.132.752-.352 1.04zm3.811-2.124l.154-.354c.573-1.393-.066-2.986-1.454-3.56l-.352-.156-.133.332a2.64 2.64 0 00-.154 1.593 2.734 2.734 0 001.609 1.99l.33.155zm-.419-1.061a2.082 2.082 0 01-.793-1.217 2.03 2.03 0 010-.73c.617.443.926 1.217.793 1.947zm-5.728 8.914a2.73 2.73 0 001.719.62c.264 0 .529-.045.771-.111l.375-.111-.11-.376c-.42-1.438-1.94-2.256-3.393-1.836l-.375.11.11.377c.177.508.485.973.903 1.327zm1.873-.155c-.484.022-.991-.11-1.388-.442a1.666 1.666 0 01-.462-.576 2.007 2.007 0 011.85 1.018zm-9.187 2.212l-.22.31.309.22c.44.332.947.51 1.498.532h.132c.86 0 1.652-.399 2.18-1.106l.221-.31-.308-.221c-1.19-.863-2.908-.62-3.812.575zm2.997-.133c-.375.332-.86.487-1.366.487-.242 0-.485-.067-.705-.177.55-.531 1.366-.642 2.07-.31zm-.507 2.964a2.704 2.704 0 00-1.432 1.526l-.132.354.352.133c.309.133.64.177.97.177.198 0 .418-.022.616-.066.882-.2 1.587-.84 1.917-1.681l.132-.354-.352-.133a2.69 2.69 0 00-2.071.044zm.22 1.394a1.619 1.619 0 01-.727.022c.199-.31.485-.553.837-.708a2.09 2.09 0 011.102-.155c-.309.42-.727.73-1.212.84zM49.079 9.334l-.353-.132-.154.354a2.64 2.64 0 00-.154 1.592 2.734 2.734 0 001.608 1.99l.352.133.155-.353a2.623 2.623 0 000-2.08 2.573 2.573 0 00-1.454-1.504zm.88 2.854c-.396-.288-.704-.73-.792-1.217a2.03 2.03 0 010-.73c.308.221.529.509.683.863a2 2 0 01.11 1.084z" fill="#4D7675"/><path d="M67.496 16.611c0-.265 0-.508-.022-.752v-.11a16.58 16.58 0 00-2.071-7.255.688.688 0 00-.088-.133c-.11-.177-.198-.354-.309-.53-.066-.111-.132-.244-.22-.355a3.241 3.241 0 00-.198-.287c-.11-.155-.242-.332-.353-.487-.022-.044-.066-.088-.088-.133l-.462-.597a19.118 19.118 0 00-1.432-1.548 16.34 16.34 0 00-9.628-4.38h-.044c-.22-.022-.44-.044-.66-.044h-1.542c-.133 0-.287 0-.441.022h-.22c-.463.022-.904.089-1.344.155-.067 0-.133.022-.22.044-.375.067-.772.133-1.146.244-.11.022-.243.066-.353.088-.352.088-.683.199-1.013.31a9.72 9.72 0 01-.419.132c-.33.111-.639.244-.969.399-.154.066-.33.132-.485.22-.286.133-.572.288-.859.443-.176.11-.352.2-.529.31-.264.155-.506.31-.77.486-.177.111-.353.244-.53.376-.154.111-.308.244-.484.376l-.727.598c-.132.11-.264.243-.397.376-.242.22-.462.442-.683.685-.132.133-.242.266-.374.42-.198.222-.375.443-.573.686l-.396.531c-.133.155-.243.332-.353.487-.176.265-.352.53-.507.818-.088.155-.176.31-.264.487-.154.287-.33.597-.463.907a8.308 8.308 0 00-.198.442c-.154.332-.286.664-.418 1.018-.044.132-.088.243-.11.354-.133.376-.243.752-.353 1.15-.022.066-.022.155-.044.243-.11.398-.176.819-.242 1.217 0 .044-.023.11-.023.154-.066.465-.11.907-.154 1.372v.199c-.022.31-.022.641-.022.973v.155c0 .288 0 .575.022.863 0 .11.022.199.022.31l.066.707c0 .11.023.221.044.332.045.265.089.509.133.774 0 .066.022.11.022.177 1.542 7.61 8.239 13.36 16.258 13.36 8.02 0 14.738-5.75 16.258-13.382v-.022c.199-1.04.309-2.124.33-3.207v-.178h.045zm-4.626 4.8c-1.94 0-3.613-1.327-4.098-3.185.242-.707.617-1.216 1.08-1.504.484-.288.969-.288 1.277-.199a.366.366 0 00.463-.265.368.368 0 00-.265-.465c-.594-.177-1.277-.066-1.872.266-.375.22-.86.641-1.212 1.393a1.365 1.365 0 00-.837-.221c-.11 0-.242.022-.374 0h-.133c1.058-3.053 4.01-3.561 6.367-3.429.22.023.375-.154.397-.354a.389.389 0 00-.353-.398c-3.79-.22-6.257 1.217-7.16 4.114a3.853 3.853 0 01-2.269-1.349 1.26 1.26 0 00-1.123-.442c.286-2.101 1.696-2.831 3.304-3.65 1.85-.973 3.944-2.057 3.922-5.596a.372.372 0 00-.375-.376c-.176 0-.375.177-.375.376 0 2.699-1.321 3.716-2.863 4.557-.441-.133-2.005-.885-2.203-4.203a.36.36 0 00-.397-.354.36.36 0 00-.352.398c.176 2.898 1.321 4.092 2.137 4.601-1.675.863-3.327 1.814-3.57 4.446-.418.11-.88.177-1.167.177-.33 0-.639-.044-.947-.11-.22-2.677-1.895-3.628-3.57-4.49.816-.487 1.962-1.704 2.138-4.602a.389.389 0 00-.353-.398c-.22-.022-.374.155-.396.354-.199 3.318-1.763 4.048-2.203 4.203-1.542-.863-2.864-1.858-2.864-4.557a.372.372 0 00-.375-.376.372.372 0 00-.374.376c0 3.54 2.093 4.623 3.921 5.596 1.608.84 3.018 1.593 3.305 3.694-.463-.088-.926.044-1.234.398a4.406 4.406 0 01-2.181 1.328c-.925-2.876-3.37-4.314-7.16-4.093-.22 0-.352.2-.352.399 0 .22.176.376.396.354 2.357-.133 5.331.376 6.367 3.428h-.22c-.133 0-.243 0-.375-.022a1.258 1.258 0 00-.749.177c-.375-.73-.815-1.15-1.19-1.372a2.353 2.353 0 00-1.872-.265.397.397 0 00-.264.465c.066.198.264.331.462.265.309-.089.793-.089 1.278.199.44.265.793.73 1.035 1.371 0 .045-.044.067-.044.111a4.27 4.27 0 01-4.12 3.23 4.195 4.195 0 01-3.436-1.792c-.088-.42-.154-.863-.198-1.305 0-.11-.022-.222-.022-.31a15.36 15.36 0 01-.066-1.438v-.044c0-.442.022-.863.066-1.283.022-.221.044-.442.066-.641.044-.31.088-.62.132-.907.044-.2.066-.376.132-.575.066-.31.154-.62.242-.951.044-.155.089-.332.155-.487.11-.332.242-.664.352-.995.044-.133.11-.244.154-.376.154-.354.33-.73.507-1.084.044-.089.088-.155.11-.244.242-.42.485-.84.75-1.216v-.022a15.952 15.952 0 015.485-5.021c.066-.022.132-.067.176-.089a18.11 18.11 0 011.146-.553c.11-.044.22-.088.308-.133.352-.132.705-.265 1.057-.376a16.178 16.178 0 011.432-.376c.177-.044.353-.088.529-.11A6.66 6.66 0 0148.88.95l.64-.066c.264-.022.55-.022.814-.044.265 0 .551-.023.815 0 .287 0 .573.022.86.044.242.022.484.044.705.066.33.044.638.089.947.133.176.022.374.066.55.11l1.058.266c.132.044.264.088.419.133.374.11.727.243 1.101.398l.33.132c.375.155.728.332 1.058.51.11.066.22.11.33.176.331.177.661.376.97.597.132.089.242.155.374.244.287.199.573.42.837.641.133.11.265.243.397.354.242.221.507.442.75.686l.352.354c.242.265.506.53.727.818.044.066.11.133.154.2a15.571 15.571 0 013.436 9.223c0 .221.022.442.022.663 0 .51-.022 1.04-.088 1.549a7.365 7.365 0 01-.11.685c-.044.266-.066.531-.11.797-.705 1.128-1.983 1.791-3.349 1.791zm-6.962-3.406c-.287.597-.837.973-1.278 1.217-.749.376-1.432.442-1.63.42-.132-.398-.22-1.99-.242-3.318.022 0 .066-.022.088-.022a.42.42 0 01.44.133c.661.796 1.587 1.327 2.622 1.57zm-6.72-1.659c-.021 1.327-.11 2.854-.242 3.274-.242.022-.903-.044-1.63-.42-.44-.244-.991-.62-1.278-1.217a5.033 5.033 0 002.556-1.57.442.442 0 01.484-.111c0 .022.045.022.11.044zM35.883 21.28a5.22 5.22 0 003.019 1.017c1.938 0 3.723-1.172 4.582-2.875.683 1.813 2.291 2.897 4.89 3.251.243.022.22.465.133 1.128l-.022.155c-.64 5.574-1.807 6.857-2.93 7.432l-.022.022a15.902 15.902 0 01-9.65-10.13zm10.62 10.44c1.255-.907 2.202-2.787 2.775-7.675l.022-.155c.088-.642.242-1.836-.793-1.99-2.622-.377-4.032-1.439-4.472-3.363a1.1 1.1 0 00-.088-.288.438.438 0 01.352-.155c.154 0 .308.023.463.023.176 0 .33 0 .484-.023.353.863 1.124 1.571 2.181 1.97.44.176.948.287 1.366.287.242 0 .463-.045.617-.133.154-.11.463-.332.507-3.672.308.066.617.089.925.089.33 0 .727-.067 1.124-.133.066 3.406.374 3.65.506 3.738.132.11.353.133.617.133.419 0 .925-.11 1.366-.288 1.08-.398 1.85-1.128 2.203-1.99.132 0 .264.022.397.022.132 0 .286 0 .44-.023.198 0 .375.111.419.266v.022a.317.317 0 01-.044.133c-.441 1.924-1.85 3.008-4.472 3.362-1.014.133-.86 1.35-.794 1.99l.022.155c.573 4.845 1.498 6.725 2.732 7.632a15.89 15.89 0 01-4.494.663c-1.498.066-2.974-.177-4.362-.597zm9.802-.332c-1.123-.575-2.269-1.88-2.907-7.41l-.023-.155c-.088-.685-.088-1.105.133-1.128 2.555-.354 4.141-1.371 4.846-3.118a5.041 5.041 0 004.494 2.742 5.129 5.129 0 003.04-1.017c-1.431 4.667-5.022 8.405-9.583 10.086z" fill="#4D7675"/><path d="M64.213 9.157l-.352-.11c-1.41-.487-2.974.243-3.459 1.68l-.132.355.352.132a2.5 2.5 0 00.904.155c.572 0 1.145-.177 1.63-.553.44-.332.749-.774.947-1.283l.11-.376zm-1.52 1.04c-.396.31-.903.442-1.41.376a1.983 1.983 0 011.895-.93c-.11.222-.264.4-.485.554zm-6.256-5.419l-.287-.244-.242.288a2.701 2.701 0 00-.683 1.969c.044.73.353 1.393.903 1.88l.287.243.242-.288c.617-.685.837-1.592.617-2.477-.154-.53-.419-1.017-.837-1.371zm-.088 2.986a1.986 1.986 0 01-.375-1.04 2.062 2.062 0 01.242-1.084c.133.2.243.42.309.664.132.509.066 1.04-.176 1.46zM54.19 1.57l-.353.155c-.66.288-1.19.819-1.454 1.482a2.824 2.824 0 000 2.08l.154.353.353-.154a2.734 2.734 0 001.608-1.991 2.82 2.82 0 00-.154-1.593l-.154-.332zm-.441 1.792c-.11.487-.375.93-.793 1.217a2.123 2.123 0 01.11-1.106 1.87 1.87 0 01.683-.863c.044.265.044.509 0 .752zM57.23 11.9a2.819 2.819 0 00-1.322 1.615l-.11.376.374.11c.243.089.507.111.771.111a2.73 2.73 0 002.6-1.947l.11-.375-.374-.111a2.656 2.656 0 00-2.05.221zm.97.995c-.398.332-.882.465-1.389.443.176-.332.44-.597.771-.774a2.04 2.04 0 011.08-.244c-.11.222-.287.42-.463.575zm7.776 2.655a2.683 2.683 0 00-3.79-.553l-.308.221.22.31a2.73 2.73 0 002.181 1.106h.133a2.792 2.792 0 001.498-.531l.308-.221-.242-.332zm-1.586.332a1.926 1.926 0 01-1.366-.487 1.962 1.962 0 012.093.31 2.908 2.908 0 01-.727.177zm-2.974 2.455l-.353.133.132.353c.33.841 1.036 1.482 1.917 1.681.198.045.418.067.617.067.33 0 .66-.067.969-.177l.353-.133-.133-.354c-.528-1.415-2.115-2.101-3.503-1.57zm1.872 1.438a1.932 1.932 0 01-1.19-.841c.75-.11 1.498.243 1.94.863a2.119 2.119 0 01-.75-.022zM53.198 9.18l-.352.132a2.734 2.734 0 00-1.454 1.482 2.824 2.824 0 000 2.08l.154.353.352-.133a2.734 2.734 0 001.609-1.99 2.815 2.815 0 00-.155-1.593l-.154-.332zm-.44 1.791c-.11.487-.375.93-.794 1.217a2.124 2.124 0 01.11-1.106c.133-.354.375-.642.684-.863.044.243.044.487 0 .752zM35.75 65.03c0 .952-.639 1.748-1.718 1.748H32.6v1.836c0 .177-.11.287-.286.287h-.265c-.176 0-.286-.11-.286-.287v-5.088c0-.177.11-.287.286-.287h2.005c1.08-.022 1.696.818 1.696 1.792zm-.88-.022c0-.641-.398-1.083-1.014-1.083H32.6v2.167h1.256c.639 0 1.013-.442 1.013-1.084zm3.942 1.062c0-1.614 1.3-2.92 2.93-2.92 1.63 0 2.953 1.306 2.953 2.92 0 1.615-1.3 2.92-2.953 2.92a2.916 2.916 0 01-2.93-2.92zm5.001 0c0-1.216-.925-2.167-2.07-2.167-1.146 0-2.071.929-2.071 2.167 0 1.217.925 2.168 2.07 2.168 1.146 0 2.071-.951 2.071-2.168zm4.208 2.522l.485-5.088c.022-.177.132-.265.308-.265h.419c.154 0 .264.066.33.221l1.763 4.225 1.762-4.225c.066-.155.176-.221.33-.221h.42c.175 0 .285.088.308.265l.484 5.088c.022.199-.088.31-.286.31h-.264c-.177 0-.309-.09-.309-.266l-.352-4.092-1.675 4.07c-.066.155-.176.221-.33.221h-.132c-.177 0-.265-.066-.33-.221l-1.675-4.07-.353 4.092c-.022.177-.11.265-.308.265h-.264c-.243 0-.353-.11-.33-.31zm14.364-3.562c0 .952-.639 1.748-1.718 1.748h-1.433v1.836c0 .177-.11.287-.286.287h-.264c-.176 0-.287-.11-.287-.287v-5.088c0-.177.11-.287.287-.287h2.005c1.079-.022 1.696.818 1.696 1.792zm-.881-.022c0-.641-.397-1.083-1.014-1.083h-1.256v2.167h1.256c.64 0 1.014-.442 1.014-1.084zm5.727 3.606v-2.035l-1.96-2.986c-.132-.2-.044-.354.176-.354h.352c.155 0 .265.044.353.199l1.498 2.411 1.52-2.411c.088-.133.198-.2.353-.2h.352c.242 0 .33.156.176.355l-1.96 2.986v2.035c0 .177-.11.287-.309.287h-.264c-.176 0-.287-.11-.287-.287z" fill="#4D7675"/></svg>