<svg width="291" height="70" fill="none" xmlns="http://www.w3.org/2000/svg"><path d="M75.232 60.36H70.85v5.045h-2.326V53.333h2.326v4.955h4.383v-4.955h2.326v12.072h-2.326V60.36zm7.246 3.333c.448 0 .806-.09 1.074-.27.268-.18.447-.45.537-.63V61.71h-.984c-.358 0-.627.09-.895.18s-.447.18-.626.36-.179.36-.179.541c0 .36.09.54.268.721.18.09.448.18.805.18zm-2.862-6.396c.447-.18.984-.36 1.61-.45.626-.09 1.252-.18 1.968-.18.626 0 1.074.09 1.521.18.358.18.716.36.984.63s.358.54.537.99c.179.451.179.812.179 1.262 0 .54 0 .991-.09 1.532 0 .54-.09.99-.09 1.531v1.442c0 .45.09.9.269 1.351h-1.789l-.358-1.171h-.09c-.268.36-.536.63-.983.9-.448.271-.895.361-1.521.361-.358 0-.716-.09-1.074-.18-.357-.09-.626-.27-.805-.54-.268-.18-.447-.451-.536-.811-.09-.27-.18-.631-.18-.992 0-.54.09-.99.358-1.35.269-.361.537-.632.985-.902.447-.18.984-.36 1.61-.45.626-.09 1.252-.09 2.057-.09.09-.63 0-1.081-.179-1.352-.179-.27-.536-.45-1.162-.45-.448 0-.895.09-1.432.18-.537.09-.894.18-1.252.36l-.537-1.801zm14.671 7.567c-.358.27-.716.45-1.253.54-.447.09-.984.181-1.52.181-.716 0-1.253-.09-1.7-.36-.448-.27-.895-.54-1.163-.901a3.51 3.51 0 01-.626-1.442c-.09-.54-.18-1.171-.18-1.892 0-1.441.359-2.612.985-3.333.626-.81 1.61-1.171 2.862-1.171.626 0 1.163.09 1.52.18.359.09.717.27 1.075.36l-.537 1.802-.805-.27c-.269-.09-.537-.09-.895-.09-.626 0-1.073.18-1.431.63-.358.451-.448 1.082-.448 1.983 0 .36 0 .72.09.99s.179.54.358.811c.179.27.358.45.626.54.268.091.537.181.894.181.358 0 .716-.09.985-.18.268-.09.536-.18.715-.36l.448 1.801zm3.041-3.784c0 .36 0 .721.09 1.081.089.36.178.631.268.811.179.27.358.45.537.54.178.091.447.181.805.181.536 0 .984-.18 1.342-.63.268-.45.447-1.082.447-1.983 0-.81-.09-1.441-.358-1.891-.268-.45-.716-.721-1.342-.721-.537 0-.984.18-1.252.63-.447.36-.537 1.082-.537 1.982zm-2.326 0c0-1.441.358-2.612 1.074-3.333.715-.81 1.7-1.171 2.952-1.171.715 0 1.252.09 1.789.36.537.18.894.541 1.252.901s.537.901.716 1.442c.179.54.268 1.17.268 1.891 0 1.442-.358 2.613-1.073 3.334-.716.81-1.7 1.171-2.952 1.171-.716 0-1.253-.09-1.79-.36-.536-.18-.894-.54-1.252-.901-.358-.36-.626-.901-.715-1.442-.18-.54-.269-1.17-.269-1.892zm15.744 3.784c-.358.27-.716.45-1.252.54-.448.09-.984.181-1.521.181-.716 0-1.252-.09-1.7-.36-.447-.27-.894-.54-1.163-.901a3.54 3.54 0 01-.626-1.442 11.37 11.37 0 01-.179-1.892c0-1.441.358-2.612.984-3.333.626-.81 1.611-1.171 2.863-1.171.626 0 1.163.09 1.521.18.357.09.715.27 1.073.36l-.537 1.802-.805-.27c-.268-.09-.536-.09-.894-.09-.626 0-1.074.18-1.432.63-.357.451-.447 1.082-.447 1.983 0 .36 0 .72.09.99.089.27.179.54.357.811.179.27.358.45.627.54.268.091.536.181.894.181s.716-.09.984-.18.537-.18.716-.36l.447 1.801zm6.442-2.883h-2.774v3.424h-2.236v-8.559h2.236V60h2.774v-3.153h2.236v8.559h-2.236V61.98zm6.082-.901c0 .36 0 .721.09 1.081.089.36.179.631.268.811.179.27.358.45.537.54.179.091.447.181.805.181.537 0 .984-.18 1.342-.63.268-.45.447-1.082.447-1.983 0-.81-.089-1.441-.358-1.891-.268-.45-.715-.721-1.341-.721-.537 0-.984.18-1.253.63-.358.36-.537 1.082-.537 1.982zm-2.236 0c0-1.441.358-2.612 1.073-3.333.716-.81 1.7-1.171 2.953-1.171.715 0 1.252.09 1.789.36.536.18.894.541 1.252.901s.537.901.716 1.442c.179.54.268 1.17.268 1.891 0 1.442-.358 2.613-1.073 3.334-.716.81-1.7 1.171-2.952 1.171-.716 0-1.253-.09-1.79-.36-.536-.18-.894-.54-1.252-.901-.358-.36-.626-.901-.716-1.442-.179-.54-.268-1.17-.268-1.892zm13.328-2.702c-.536 0-.984.18-1.252.54-.268.36-.447.811-.537 1.442h3.131c.09-.631-.089-1.081-.268-1.442a1.272 1.272 0 00-1.074-.54zm3.131 6.306a4.25 4.25 0 01-1.431.72 6.76 6.76 0 01-1.878.271c-1.342 0-2.416-.36-3.042-1.171-.626-.811-.984-1.892-.984-3.334 0-1.531.358-2.612 1.073-3.423.716-.72 1.7-1.171 3.042-1.171.447 0 .895.09 1.252.18.448.09.806.27 1.074.54.358.271.537.631.805 1.082.179.45.268.99.268 1.712v.81c0 .27-.089.54-.089.901h-5.099c0 .72.179 1.261.537 1.622.357.36.894.54 1.61.54.447 0 .894-.09 1.252-.18.358-.18.626-.27.805-.45l.805 1.351zm8.231-3.604c0 .36 0 .721.089 1.081.09.36.179.631.269.811.179.27.358.45.536.54.179.091.448.181.806.181.536 0 .983-.18 1.341-.63.269-.45.448-1.082.448-1.983 0-.81-.09-1.441-.358-1.891-.268-.45-.716-.721-1.342-.721-.537 0-.984.18-1.252.63-.358.36-.537 1.082-.537 1.982zm-2.326 0c0-1.441.358-2.612 1.073-3.333.716-.81 1.7-1.171 2.953-1.171.715 0 1.252.09 1.789.36.536.18.894.541 1.252.901s.537.901.716 1.442c.179.54.268 1.17.268 1.891 0 1.442-.358 2.613-1.073 3.334-.716.81-1.7 1.171-2.952 1.171-.716 0-1.253-.09-1.79-.36-.536-.18-.894-.54-1.252-.901-.358-.36-.626-.901-.716-1.442-.179-.54-.268-1.17-.268-1.892zm11.54.09c0 .721.179 1.352.447 1.802.269.45.716.721 1.342.721.626 0 1.074-.18 1.342-.63.268-.451.447-1.082.447-1.893 0-.72-.089-1.35-.358-1.711-.268-.36-.626-.63-1.252-.63s-1.074.18-1.431.63c-.358.45-.537.99-.537 1.711zm-.358-2.702c.358-.54.716-.901 1.163-1.081.447-.18.984-.36 1.61-.36 1.074 0 1.879.36 2.505.99.626.631.895 1.622.895 2.973 0 1.532-.358 2.703-1.074 3.514-.716.81-1.7 1.171-2.952 1.171-1.342 0-2.326-.45-3.042-1.351-.715-.901-1.073-2.252-1.073-4.144 0-.992.089-1.802.179-2.523.089-.72.268-1.261.447-1.802.179-.45.448-.9.716-1.17a3.97 3.97 0 01.984-.722c.358-.18.716-.27 1.163-.36.447-.09.805-.09 1.342-.18.626-.09 1.073-.09 1.52-.18.448-.09.716-.27.984-.45l.09 1.981c-.268.18-.537.36-.984.45-.447.09-.984.18-1.7.18-.447 0-.805.09-1.163.181-.358.09-.626.18-.894.45-.269.18-.448.45-.537.901-.089.36-.179.901-.179 1.532zm9.661 2.612c0 .36 0 .721.089 1.081.09.36.18.631.269.811.179.27.358.45.537.54.179.091.447.181.805.181.536 0 .984-.18 1.342-.63.268-.45.447-1.082.447-1.983 0-.81-.09-1.441-.358-1.891-.268-.45-.716-.721-1.342-.721-.537 0-.984.18-1.252.63-.358.36-.537 1.082-.537 1.982zm-2.326 0c0-1.441.358-2.612 1.074-3.333.715-.81 1.699-1.171 2.952-1.171.715 0 1.252.09 1.789.36.537.18.894.541 1.252.901s.537.901.716 1.442c.179.54.268 1.17.268 1.891 0 1.442-.358 2.613-1.073 3.334-.716.81-1.7 1.171-2.952 1.171-.716 0-1.253-.09-1.789-.36-.537-.18-.895-.54-1.253-.901-.358-.36-.626-.901-.715-1.442-.179-.54-.269-1.17-.269-1.892zm13.508-2.612c-.447 0-.805.09-.984.36-.268.18-.447.54-.536.991v3.604c.178.09.358.27.536.27.179.09.448.09.716.09.626 0 1.073-.27 1.431-.72.358-.45.448-1.172.448-2.253 0-.72-.09-1.351-.358-1.712-.269-.45-.716-.63-1.253-.63zm-3.846-1.622h1.61l.268.991h.09c.268-.45.626-.72 1.073-.99.448-.18.895-.271 1.521-.271 1.073 0 1.879.36 2.415.991.537.72.805 1.802.805 3.333 0 .721-.089 1.352-.268 1.982-.179.63-.447 1.081-.805 1.532-.358.45-.716.72-1.252.99-.448.18-1.074.361-1.7.361-.358 0-.626 0-.895-.09-.268-.09-.447-.09-.715-.27v3.513h-2.237V56.846h.09zm12.254 4.775l.269 1.351h.089l.179-1.351 1.342-4.775h2.326l-2.594 7.748c-.179.63-.448 1.261-.626 1.802-.179.54-.448.99-.627 1.351-.268.36-.536.72-.805.901-.268.18-.626.36-1.073.36-.626 0-1.074-.09-1.431-.27l.447-1.802c.179.09.358.09.537.09.268 0 .536-.09.805-.36.268-.18.447-.63.536-1.171l-3.578-8.559h2.684l1.52 4.685zm9.751 1.892v-4.865h-1.789c0 .45-.089.81-.089 1.351-.09.45-.09.901-.179 1.352-.09.45-.179.81-.268 1.26-.09.361-.269.722-.358.992h2.683v-.09zm3.489 3.874h-1.61l-.268-1.982h-5.725l-.269 1.982h-1.61v-3.964h.984c.089-.09.179-.36.358-.63.179-.271.268-.721.447-1.262.179-.54.268-1.171.358-1.982.089-.81.179-1.712.179-2.793h5.905v6.667h1.251v3.964zm3.131-6.307c0 .36 0 .721.089 1.081.09.36.179.631.268.811.181.27.359.45.537.54.179.091.449.181.806.181.537 0 .983-.18 1.342-.63.268-.45.446-1.082.446-1.983 0-.81-.089-1.441-.357-1.891-.267-.45-.716-.721-1.342-.721-.536 0-.984.18-1.251.63-.359.36-.538 1.082-.538 1.982zm-2.326 0c0-1.441.357-2.612 1.073-3.333.716-.81 1.699-1.171 2.953-1.171.715 0 1.253.09 1.788.36.538.18.895.541 1.254.901.356.36.537.901.715 1.442.179.54.268 1.17.268 1.891 0 1.442-.357 2.613-1.073 3.334-.716.81-1.699 1.171-2.952 1.171-.716 0-1.254-.09-1.789-.36-.537-.18-.894-.54-1.253-.901-.357-.36-.627-.901-.716-1.442-.179-.54-.268-1.17-.268-1.892zm11.898 2.613c.179 0 .268 0 .448.09h.536c.626 0 1.075-.09 1.342-.27.268-.18.357-.45.357-.81 0-.271-.089-.541-.357-.722-.178-.18-.626-.27-1.162-.27h-1.164v1.982zm1.164-3.333c.357 0 .625-.09.895-.27.267-.18.356-.36.356-.721 0-.27-.089-.54-.267-.72-.179-.181-.538-.271-1.075-.271h-1.073v1.802h1.164v.18zm-3.311-3.514c.358 0 .896-.09 1.431-.09.538 0 1.164-.09 1.789-.09 1.253 0 2.148.18 2.685.54.535.361.805.902.805 1.622 0 .36-.089.811-.359 1.171-.268.36-.625.631-1.073.811v.09c.627.18 1.073.36 1.343.721.268.36.446.81.446 1.351 0 .901-.357 1.532-.984 1.892-.626.45-1.699.63-3.131.63h-1.521c-.535 0-.983-.09-1.431-.09v-8.558zm11.449 6.847c.449 0 .806-.09 1.075-.27.268-.18.446-.45.536-.63V61.71h-.984c-.357 0-.627.09-.894.18-.268.09-.448.18-.627.36-.178.18-.178.36-.178.541 0 .36.089.54.267.721.181.09.448.18.805.18zm-2.861-6.396c.446-.18.984-.36 1.61-.45.627-.09 1.251-.18 1.967-.18.627 0 1.075.09 1.521.18.359.18.716.36.984.63.269.27.359.54.537.99.089.361.179.812.179 1.262 0 .54 0 .991-.09 1.532 0 .54-.089.99-.089 1.531v1.442c0 .45.089.9.268 1.351h-1.789l-.357-1.171h-.089c-.27.36-.537.63-.985.9-.447.271-.895.361-1.521.361-.357 0-.714-.09-1.073-.18-.357-.09-.627-.27-.805-.54-.268-.18-.447-.451-.538-.811a3.273 3.273 0 01-.178-.992c0-.54.089-.99.359-1.35.267-.361.535-.632.983-.902.446-.18.984-.36 1.61-.45.627-.09 1.252-.09 2.057-.09.091-.63 0-1.081-.179-1.352-.178-.27-.535-.45-1.162-.45-.448 0-.894.09-1.431.18-.538.09-.895.18-1.254.36l-.535-1.801zm13.687 4.684h-2.862v3.424h-2.147v-8.559h2.147V60h2.862v-3.153h2.147v8.559h-2.147V61.98zm9.393-.541v-1.17l-.716 1.261-3.042 3.874h-1.431v-8.559h2.236V60.9l-.089 1.172h.089l.627-1.262 3.131-3.964h1.341v8.559h-2.146V61.44zm7.873-3.062c-.538 0-.986.18-1.254.54-.267.36-.448.811-.537 1.442h3.131c.089-.631-.089-1.081-.268-1.442-.178-.36-.537-.54-1.072-.54zm3.129 6.306a4.25 4.25 0 01-1.43.72 6.783 6.783 0 01-1.88.271c-1.34 0-2.415-.36-3.04-1.171-.626-.811-.985-1.892-.985-3.334 0-1.531.359-2.612 1.074-3.423.716-.81 1.7-1.171 3.04-1.171.449 0 .897.09 1.254.18.448.09.805.27 1.072.54.359.271.538.631.806 1.082.18.45.269.99.269 1.712v.81c0 .27-.089.54-.089.901h-5.1c0 .72.178 1.261.537 1.622.357.36.894.54 1.61.54.447 0 .895-.09 1.252-.18.359-.18.626-.27.805-.45l.805 1.351z" fill="#00AFD7"/><path d="M25.674 52.342C11.54 52.342 0 40.18 0 26.036 0 15.496 6.978 5.856 13.955 0c0 0 1.52.81 6.352 5.676 4.83 4.864 5.725 6.306 5.725 6.306s-8.14 7.297-8.678 12.612c-.536 5.406 3.22 9.82 8.678 9.82h.09c5.456 0 9.213-4.414 8.676-9.82-.536-5.315-8.677-12.612-8.677-12.612s.805-1.442 5.725-6.306C36.587.81 38.02 0 38.02 0c6.888 5.856 13.955 15.495 13.955 26.036 0 14.144-12.166 26.306-26.3 26.306zm85.967-43.423s-1.342-.54-3.399-.54c-1.61 0-2.952.27-3.668.45v34.594c.537.27 2.595.45 4.294.45 2.326 0 3.757-.27 4.384-.45V25.585l14.044 17.928c.537.27 2.237.45 3.578.45 1.789 0 3.042-.27 3.489-.45V8.829c-.626-.27-2.415-.45-4.204-.45-2.416 0-3.847.27-4.473.45v18.018L111.641 8.919zm35.425 35.045c2.504 0 3.936-.27 4.562-.451V8.919c-.179 0-.358-.09-.716-.18-.805-.18-2.057-.27-3.936-.27-2.505 0-3.936.27-4.562.45v34.594c.626.27 2.862.45 4.652.45zm25.405-20.631h-3.488v-6.216h3.488c1.7 0 3.042 1.351 3.042 3.063 0 1.712-1.342 3.153-3.042 3.153zm8.32-11.802c-2.952-2.612-6.62-2.973-10.109-2.973h-10.734v34.865c.179.09.357.09.626.18.805.18 2.057.27 4.115.27 2.684 0 3.936-.27 4.473-.45V32.072s.536 0 1.073.09c.537 0 6.978.54 11.003-3.514 2.326-2.342 3.4-5.405 3.4-8.378-.09-2.793-.716-5.946-3.847-8.739zm98.043 11.802h-3.488v-6.216h3.488c1.7 0 3.042 1.351 3.042 3.063 0 1.712-1.342 3.153-3.042 3.153zm8.319-11.802c-2.951-2.612-6.619-2.973-10.107-2.973H266.31v34.865c.18.09.359.09.626.18.805.18 2.059.27 4.115.27 2.685 0 3.936-.27 4.474-.45V32.072s.537 0 1.072.09c.538 0 6.979.54 11.004-3.514 2.326-2.342 3.399-5.405 3.399-8.378-.089-2.793-.716-5.946-3.847-8.739zm-46.069 23.784l-7.335-10.72v18.918c-.09 0-.27.09-.538.09-.716.18-2.058.27-4.293.27-2.685 0-3.936-.27-4.384-.36V8.829c.089 0 .269-.09.448-.09.626-.18 1.878-.27 3.577-.27 2.594 0 3.758.27 4.115.45l9.126 13.243 9.124-13.243c.358-.18 1.52-.45 4.114-.45 1.7 0 2.864.18 3.58.27.178.09.357.09.446.09v34.684c-.446.18-1.7.36-4.383.36-2.237 0-3.49-.18-4.295-.27-.268-.09-.357-.09-.535-.09V24.594l-7.335 10.721h-1.432zm-37.661 9.009c6.887 0 14.581-3.964 14.581-15.225V8.919c-.716-.18-2.237-.45-4.742-.45-1.788 0-3.042.18-3.758.27-.267.09-.535.09-.624.18v18.738c0 .631 0 2.343-.089 2.883-.359 4.054-3.491 5.135-5.279 5.135-1.878 0-4.92-1.08-5.279-5.135-.089-.54-.089-2.252-.089-2.883V8.92c-.179-.09-.357-.09-.625-.18-.805-.18-1.969-.27-3.758-.27-2.505 0-4.025.27-4.741.45v20.27c-.089 11.261 7.603 15.135 14.403 15.135zm-120.319 0c6.888 0 14.582-3.964 14.582-15.225V8.919c-.716-.18-2.237-.45-4.742-.45-1.789 0-3.041.18-3.757.27-.268.09-.537.09-.626.18v18.738c0 .631 0 2.343-.09 2.883-.357 4.054-3.488 5.135-5.277 5.135-1.79 0-4.92-1.08-5.278-5.135-.09-.54-.09-2.252-.09-2.883V8.92c-.179-.09-.357-.09-.626-.18-.894-.18-2.057-.36-3.847-.36-2.504 0-4.025.27-4.74.45V29.1c0 11.351 7.693 15.225 14.491 15.225z" fill="#121212"/></svg>