<svg width="273" height="44" fill="none" xmlns="http://www.w3.org/2000/svg"><path d="M11.6 1.5v12.35c0 .9.183 1.55.55 1.95.367.367 1.167.55 2.4.55.733 0 1.517-.033 2.35-.1.867-.067 1.9-.267 3.1-.6V1.5h10.85V36H20V22.9c-1.633.733-3.3 1.3-5 1.7-1.7.4-3.183.6-4.45.6-3.367 0-5.85-.717-7.45-2.15C1.533 21.583.75 19.3.75 16.2V1.5H11.6zm55.967 0V36h-10.3V20.15c0-.9.05-1.783.15-2.65l.4-2.7h-.35a32.062 32.062 0 01-.9 2.7 22.585 22.585 0 01-1.2 2.6L46.917 36h-10.35V1.5h10.3v15.3c0 .833-.05 1.733-.15 2.7-.1.967-.233 1.933-.4 2.9h.35c.3-.933.633-1.85 1-2.75.366-.9.767-1.75 1.2-2.55l8.4-15.6h10.3zM87.686.9c1.8 0 3.333.05 4.6.15 1.266.1 2.416.25 3.45.45 1.066.167 2.166.417 3.3.75l-.8 7.9c-1.167-.033-2.25-.05-3.25-.05h-3.2a142.7 142.7 0 00-4.1-.05c-1.134 0-2.017.25-2.65.75-.6.467-1.017 1.333-1.25 2.6-.234 1.233-.35 3.017-.35 5.35 0 2.333.116 4.133.35 5.4.233 1.233.65 2.1 1.25 2.6.633.467 1.516.7 2.65.7 2.5 0 4.583-.017 6.25-.05 1.7-.067 3.383-.183 5.05-.35l.8 7.9a26.56 26.56 0 01-5.35 1.25c-1.8.267-4.05.4-6.75.4-3.8 0-6.85-.567-9.15-1.7-2.3-1.167-3.967-3.05-5-5.65-1-2.6-1.5-6.1-1.5-10.5s.5-7.9 1.5-10.5c1.033-2.6 2.7-4.467 5-5.6 2.3-1.167 5.35-1.75 9.15-1.75zm43.673.6v8.1h-9.65V36h-10.85V9.6h-9.65V1.5h30.15zm17.908-.7c2.967 0 5.467.283 7.5.85 2.067.533 3.734 1.467 5 2.8 1.267 1.333 2.184 3.167 2.75 5.5.567 2.3.85 5.233.85 8.8 0 3.533-.283 6.467-.85 8.8-.566 2.333-1.483 4.167-2.75 5.5-1.266 1.333-2.933 2.283-5 2.85-2.033.533-4.533.8-7.5.8-2.933 0-5.433-.267-7.5-.8-2.033-.567-3.683-1.517-4.95-2.85-1.266-1.333-2.183-3.167-2.75-5.5-.566-2.333-.85-5.267-.85-8.8 0-3.567.284-6.5.85-8.8.567-2.333 1.484-4.167 2.75-5.5 1.267-1.333 2.917-2.267 4.95-2.8 2.067-.567 4.567-.85 7.5-.85zm0 8.05c-1.233 0-2.183.267-2.85.8-.666.533-1.133 1.517-1.4 2.95-.266 1.433-.4 3.483-.4 6.15 0 2.667.134 4.717.4 6.15.267 1.433.734 2.417 1.4 2.95.667.533 1.617.8 2.85.8 1.234 0 2.184-.267 2.85-.8.667-.533 1.134-1.517 1.4-2.95.267-1.433.4-3.483.4-6.15 0-2.667-.133-4.717-.4-6.15-.266-1.433-.733-2.417-1.4-2.95-.666-.533-1.616-.8-2.85-.8zm35.402-7.75c3.2 0 5.75.267 7.65.8 1.9.5 3.266 1.4 4.1 2.7.833 1.3 1.25 3.133 1.25 5.5 0 2.467-.484 4.35-1.45 5.65-.967 1.267-2.584 2-4.85 2.2v.3c2.766.233 4.7 1.133 5.8 2.7 1.1 1.533 1.65 3.683 1.65 6.45 0 2.367-.45 4.2-1.35 5.5-.867 1.3-2.217 2.217-4.05 2.75-1.834.5-4.2.75-7.1.75-2.467 0-4.65-.017-6.55-.05-1.867 0-3.6-.033-5.2-.1-1.567-.067-3.167-.15-4.8-.25V1.5a67.38 67.38 0 014.4-.25c1.433-.067 2.983-.1 4.65-.1 1.7-.033 3.65-.05 5.85-.05zm-.55 7.35h-3.75v6.5h3.85c1.266 0 2.1-.217 2.5-.65.4-.433.6-1.317.6-2.65s-.217-2.2-.65-2.6c-.4-.4-1.25-.6-2.55-.6zm.2 12.85h-3.95v7.75h4c1.5 0 2.483-.25 2.95-.75.466-.5.7-1.533.7-3.1 0-1.6-.234-2.65-.7-3.15-.467-.5-1.467-.75-3-.75zM217.822.8c2.967 0 5.467.283 7.5.85 2.067.533 3.733 1.467 5 2.8 1.267 1.333 2.183 3.167 2.75 5.5.567 2.3.85 5.233.85 8.8 0 3.533-.283 6.467-.85 8.8-.567 2.333-1.483 4.167-2.75 5.5-1.267 1.333-2.933 2.283-5 2.85-2.033.533-4.533.8-7.5.8-2.933 0-5.433-.267-7.5-.8-2.033-.567-3.683-1.517-4.95-2.85-1.267-1.333-2.183-3.167-2.75-5.5-.567-2.333-.85-5.267-.85-8.8 0-3.567.283-6.5.85-8.8.567-2.333 1.483-4.167 2.75-5.5 1.267-1.333 2.917-2.267 4.95-2.8 2.067-.567 4.567-.85 7.5-.85zm0 8.05c-1.233 0-2.183.267-2.85.8-.667.533-1.133 1.517-1.4 2.95-.267 1.433-.4 3.483-.4 6.15 0 2.667.133 4.717.4 6.15.267 1.433.733 2.417 1.4 2.95.667.533 1.617.8 2.85.8s2.183-.267 2.85-.8c.667-.533 1.133-1.517 1.4-2.95.267-1.433.4-3.483.4-6.15 0-2.667-.133-4.717-.4-6.15-.267-1.433-.733-2.417-1.4-2.95-.667-.533-1.617-.8-2.85-.8zm54.933 20.05v14.65h-7.85l-.75-7.55h-20.8l-.75 7.55h-7.85V28.9h3.8a66.993 66.993 0 002.7-9.8c.667-3.3 1.167-6.617 1.5-9.95.233-2.2 1.117-4.017 2.65-5.45 1.533-1.467 3.5-2.2 5.9-2.2h16.7v27.4h4.75zM252.805 11c-.3 2.967-.633 5.517-1 7.65s-.8 4.017-1.3 5.65a27.996 27.996 0 01-1.75 4.6h8.4V8.6h-2.05c-1.367 0-2.133.8-2.3 2.4z" fill="#05114F"/></svg>