<svg width="208" height="37" fill="none" xmlns="http://www.w3.org/2000/svg"><path d="M10.818 20.644L6.79 24.916V36H.613V.453H6.79v16.675l3.418-4.224 10.4-12.45h7.471L14.871 16.2 28.836 36h-7.324L10.818 20.644zm41.236 7.08h-13.77L35.404 36h-6.422L42.41.453h5.542L61.404 36H54.96l-2.905-8.276zm-12.036-4.98H50.32L45.17 7.996l-5.151 14.746zM93.655 36h-6.177L71.635 10.78V36h-6.177V.453h6.177L87.527 25.77V.453h6.128V36zm35.498 0h-6.176l-15.845-25.22V36h-6.177V.453h6.177l15.893 25.317V.453h6.128V36zm10.425-6.25c1.107 0 1.961.317 2.564.952.602.619.903 1.4.903 2.344 0 .928-.301 1.7-.903 2.32-.603.601-1.457.903-2.564.903-1.058 0-1.896-.302-2.515-.904-.618-.602-.927-1.375-.927-2.32 0-.943.301-1.724.903-2.343.602-.635 1.449-.952 2.539-.952zm10.84 6.25V.453h12.183c4.02 0 7.08.806 9.179 2.417 2.1 1.611 3.15 4.012 3.15 7.202 0 1.628-.44 3.093-1.319 4.395-.879 1.302-2.164 2.311-3.857 3.027 1.92.521 3.402 1.506 4.443 2.954 1.058 1.433 1.587 3.158 1.587 5.176 0 3.337-1.074 5.9-3.222 7.69-2.133 1.79-5.193 2.686-9.18 2.686h-12.964zm6.177-16.04v11.108h6.86c1.937 0 3.451-.48 4.541-1.44 1.091-.96 1.636-2.295 1.636-4.004 0-3.695-1.888-5.583-5.664-5.664h-7.373zm0-4.541h6.054c1.921 0 3.418-.431 4.493-1.294 1.09-.879 1.635-2.116 1.635-3.71 0-1.759-.504-3.028-1.513-3.81-.993-.78-2.548-1.171-4.663-1.171h-6.006v9.985zm35.595 1.88L200.369.453h6.836l-11.914 22.461V36h-6.201V22.914L177.151.454h6.861l8.178 16.845z" fill="#08807D"/></svg>