<svg width="223" height="70" fill="none" xmlns="http://www.w3.org/2000/svg"><path d="M54.18 1.83c-8.323 0-15.071 6.746-15.071 15.068s6.748 15.068 15.07 15.068c8.323 0 15.071-6.746 15.071-15.068S62.502 1.83 54.18 1.83zm0 24.782c-5.367 0-9.716-4.348-9.716-9.714 0-5.365 4.35-9.714 9.715-9.714 5.366 0 9.716 4.35 9.716 9.714 0 5.366-4.35 9.715-9.716 9.715z" fill="#EE690E"/><path d="M221.734 36.698H71.197v1.011h150.537v-1.011zM71.165 43.614h2.247v8.274l8.814-8.274h2.96l-10.588 9.892L86.01 65.659h-2.934l-9.664-10.267v10.267h-2.247V43.614zm15.987 5.739h2.098v7.614c0 1.858.1 3.137.3 3.837.301.998.873 1.788 1.72 2.367.844.58 1.853.87 3.024.87 1.17 0 2.164-.283 2.98-.848a4.332 4.332 0 001.688-2.226c.21-.627.316-1.962.316-4v-7.614h2.143v8.003c0 2.248-.262 3.942-.787 5.081a5.996 5.996 0 01-2.369 2.674c-1.053.646-2.375.968-3.963.968-1.59 0-2.916-.322-3.98-.968a5.953 5.953 0 01-2.383-2.697c-.525-1.153-.787-2.89-.787-5.208v-7.853zm18.163 0h2.099v2.923c.839-1.119 1.768-1.956 2.788-2.51a6.85 6.85 0 013.327-.832c1.218 0 2.301.31 3.245.929a5.527 5.527 0 012.091 2.503c.45 1.048.675 2.682.675 4.9v8.393h-2.099v-7.778c0-1.878-.078-3.132-.233-3.762-.243-1.079-.71-1.89-1.399-2.435-.69-.545-1.589-.816-2.699-.816-1.269 0-2.407.42-3.41 1.259-1.006.84-1.667 1.877-1.987 3.117-.2.808-.299 2.288-.299 4.436v5.98h-2.099V49.353zm26.919 1.784l-1.348 1.394c-1.123-1.088-2.219-1.634-3.291-1.634-.681 0-1.266.225-1.752.674-.484.45-.729.976-.729 1.575 0 .53.202 1.033.601 1.514.401.489 1.243 1.065 2.524 1.724 1.562.808 2.625 1.587 3.185 2.337.55.76.825 1.612.825 2.563 0 1.338-.47 2.473-1.411 3.401-.94.93-2.116 1.393-3.526 1.393a6.14 6.14 0 01-2.695-.615 5.815 5.815 0 01-2.125-1.692l1.319-1.499c1.071 1.21 2.209 1.814 3.411 1.814.841 0 1.557-.27 2.148-.81.591-.538.886-1.174.886-1.903 0-.599-.196-1.134-.585-1.604-.391-.46-1.273-1.038-2.645-1.739-1.472-.758-2.473-1.508-3.004-2.246-.53-.74-.796-1.584-.796-2.532 0-1.24.423-2.27 1.269-3.09.845-.818 1.914-1.227 3.206-1.227 1.501 0 3.012.735 4.533 2.202zm5.547-7.837h2.098v6.054h3.327v1.814h-3.327V65.66h-2.098V51.17h-2.862v-1.815h2.862V43.3zm16.773 7.837l-1.348 1.394c-1.123-1.088-2.22-1.634-3.293-1.634-.681 0-1.264.225-1.75.674-.485.45-.728.976-.728 1.575 0 .53.2 1.033.601 1.514.4.489 1.241 1.065 2.521 1.724 1.564.808 2.626 1.587 3.186 2.337.55.76.827 1.612.827 2.563 0 1.338-.471 2.473-1.412 3.401-.94.93-2.118 1.393-3.527 1.393a6.153 6.153 0 01-2.695-.615 5.82 5.82 0 01-2.124-1.692l1.319-1.499c1.07 1.21 2.207 1.814 3.409 1.814.843 0 1.558-.27 2.148-.81.592-.538.888-1.174.888-1.903a2.44 2.44 0 00-.586-1.604c-.39-.46-1.272-1.038-2.644-1.739-1.471-.758-2.473-1.508-3.005-2.246a4.253 4.253 0 01-.795-2.532c0-1.24.422-2.27 1.268-3.09.846-.818 1.915-1.227 3.207-1.227 1.501 0 3.012.735 4.533 2.202zM160.1 43.3h2.099v6.054h3.326v1.814h-3.326V65.66H160.1V51.17h-2.863v-1.815h2.863V43.3zm15.524 5.635c2.513 0 4.596.909 6.247 2.728 1.501 1.657 2.253 3.62 2.253 5.89 0 2.277-.793 4.268-2.381 5.97-1.587 1.704-3.626 2.556-6.119 2.556-2.501 0-4.546-.852-6.133-2.555-1.587-1.703-2.38-3.694-2.38-5.972 0-2.258.751-4.217 2.253-5.875 1.65-1.828 3.738-2.742 6.26-2.742zm-.007 2.053c-1.743 0-3.244.644-4.498 1.933-1.253 1.29-1.879 2.848-1.879 4.676 0 1.178.285 2.278.858 3.297.57 1.018 1.343 1.806 2.315 2.36a6.352 6.352 0 003.204.832 6.358 6.358 0 003.205-.832c.973-.554 1.744-1.342 2.315-2.36a6.619 6.619 0 00.858-3.297c0-1.828-.629-3.387-1.888-4.676-1.258-1.29-2.755-1.933-4.49-1.933zm18.336-7.928v2.052c-.77-.33-1.43-.494-1.978-.494-.411 0-.749.082-1.02.247-.269.164-.44.354-.509.57-.07.214-.106.786-.106 1.716l-.002 2.202h3.405v1.814h-3.405l-.012 14.491h-2.099v-14.49h-2.144v-1.814h2.144v-2.548c0-1.169.108-2.003.322-2.502.216-.5.579-.901 1.095-1.207.515-.304 1.136-.457 1.866-.457.679 0 1.493.14 2.443.42zm9.33 0v2.052c-.769-.33-1.429-.494-1.977-.494-.411 0-.751.082-1.02.247-.269.164-.44.354-.509.57-.07.214-.106.786-.106 1.716l-.002 2.202h3.405v1.814h-3.407l-.011 14.491h-2.098v-14.49h-2.144v-1.814h2.144v-2.548c0-1.169.108-2.003.322-2.502.216-.5.579-.901 1.095-1.207.515-.304 1.136-.457 1.866-.457.679 0 1.493.14 2.442.42zm15.886 17.188l1.768.93c-.581 1.14-1.249 2.058-2.01 2.758a7.983 7.983 0 01-2.566 1.595c-.95.365-2.025.548-3.225.548-2.66 0-4.741-.87-6.241-2.616-1.5-1.743-2.25-3.714-2.25-5.912 0-2.067.633-3.912 1.904-5.53 1.611-2.057 3.766-3.086 6.466-3.086 2.781 0 5.001 1.053 6.662 3.161 1.179 1.489 1.78 3.347 1.799 5.575h-14.674c.042 1.894.647 3.447 1.816 4.658 1.172 1.212 2.617 1.817 4.338 1.817a6.94 6.94 0 002.423-.434c.786-.288 1.454-.671 2.004-1.149s1.146-1.25 1.786-2.315zm0-4.39c-.28-1.118-.689-2.013-1.224-2.683-.536-.67-1.242-1.207-2.124-1.618a6.497 6.497 0 00-2.775-.614c-1.602 0-2.978.514-4.128 1.544-.84.748-1.474 1.872-1.905 3.371h12.156z" fill="#20201E"/><path d="M85.376 12.99l-3.29 3.295c-1.335-1.324-2.547-1.986-3.637-1.986-.597 0-1.064.127-1.402.38-.337.255-.504.57-.504.946 0 .287.106.549.32.79.215.241.743.569 1.589.985l1.948.975c2.052 1.012 3.462 2.047 4.228 3.098.767 1.054 1.15 2.288 1.15 3.704 0 1.886-.693 3.457-2.078 4.719-1.385 1.26-3.24 1.89-5.569 1.89-3.095 0-5.566-1.21-7.412-3.631l3.275-3.573a7.56 7.56 0 002.194 1.762c.837.446 1.581.67 2.232.67.701 0 1.266-.17 1.695-.507.429-.337.644-.728.644-1.17 0-.817-.774-1.616-2.32-2.395l-1.793-.896c-3.431-1.727-5.146-3.89-5.146-6.487 0-1.675.646-3.106 1.94-4.295 1.292-1.19 2.945-1.782 4.959-1.782a8.62 8.62 0 013.888.906c1.215.604 2.245 1.472 3.09 2.602zm4.851-10.803h5.331v7.83h3.168v4.595h-3.168v16.64h-5.33v-16.64h-2.745v-4.595h2.744v-7.83zm32.602 19.986h-17.114c.248 1.506.908 2.705 1.981 3.595 1.073.89 2.442 1.335 4.107 1.335 1.99 0 3.699-.695 5.131-2.085l4.487 2.107c-1.119 1.587-2.459 2.76-4.019 3.521-1.562.76-3.415 1.14-5.562 1.14-3.33 0-6.042-1.049-8.136-3.148-2.094-2.1-3.142-4.728-3.142-7.886 0-3.237 1.044-5.923 3.131-8.063 2.091-2.138 4.709-3.207 7.857-3.207 3.343 0 6.062 1.069 8.156 3.207 2.095 2.137 3.143 4.961 3.143 8.471l-.02 1.013zm-5.334-4.194c-.352-1.181-1.043-2.142-2.079-2.882-1.034-.74-2.235-1.11-3.6-1.11-1.484 0-2.784.415-3.903 1.246-.702.52-1.353 1.435-1.952 2.746h11.534zm8.662-7.962h5.331v2.185c1.208-1.019 2.303-1.725 3.283-2.123a7.932 7.932 0 013.009-.597c2.102 0 3.888.735 5.355 2.204 1.234 1.25 1.852 3.094 1.852 5.54v14.026h-5.266V21.96c0-2.532-.114-4.213-.341-5.043-.226-.832-.623-1.464-1.187-1.9-.564-.434-1.262-.652-2.092-.652-1.077 0-2.002.361-2.773 1.08-.773.723-1.307 1.718-1.605 2.99-.156.663-.235 2.098-.235 4.304v8.512h-5.331V10.017zm38.652-8.209h5.332v29.444h-5.332v-2.253c-1.039.987-2.082 1.698-3.127 2.134-1.047.436-2.18.654-3.401.654-2.742 0-5.113-1.062-7.114-3.189-2-2.124-3.001-4.766-3.001-7.926 0-3.275.969-5.959 2.905-8.05 1.935-2.094 4.286-3.141 7.054-3.141a8.96 8.96 0 013.586.724c1.116.482 2.151 1.207 3.098 2.172V1.808zm-5.592 12.603c-1.647 0-3.016.58-4.107 1.741-1.088 1.16-1.634 2.65-1.634 4.465 0 1.829.555 3.335 1.663 4.514 1.11 1.18 2.476 1.77 4.097 1.77 1.673 0 3.062-.58 4.166-1.74 1.101-1.162 1.653-2.683 1.653-4.563 0-1.842-.552-3.334-1.653-4.475-1.104-1.142-2.499-1.712-4.185-1.712zm25.292-4.931c2.005 0 3.89.501 5.654 1.503 1.765 1 3.141 2.358 4.132 4.074a10.94 10.94 0 011.485 5.557c0 2.002-.5 3.873-1.495 5.615-.997 1.742-2.354 3.104-4.074 4.085-1.718.981-3.613 1.473-5.682 1.473-3.049 0-5.648-1.082-7.805-3.246-2.155-2.165-3.232-4.795-3.232-7.888 0-3.315 1.218-6.077 3.652-8.286 2.137-1.924 4.591-2.886 7.365-2.886zm.084 5.02c-1.658 0-3.035.574-4.138 1.724-1.102 1.15-1.653 2.62-1.653 4.414 0 1.844.543 3.338 1.633 4.482 1.089 1.143 2.468 1.715 4.139 1.715 1.668 0 3.057-.578 4.166-1.735 1.108-1.156 1.663-2.643 1.663-4.462s-.546-3.296-1.634-4.433c-1.09-1.137-2.481-1.706-4.176-1.706zm14.29-4.483h4.573v2.679c.494-1.052 1.151-1.85 1.97-2.396a4.765 4.765 0 012.692-.818c.689 0 1.41.183 2.164.546l-1.659 4.584c-.626-.313-1.14-.47-1.543-.47-.821 0-1.514.508-2.08 1.523-.566 1.014-.849 3.004-.849 5.968l.019 1.035v8.584h-5.287V10.017zm12.291 0h1.896c.013-2.783.059-4.43.137-4.938.144-1.17.635-2.098 1.478-2.78.84-.685 2.033-1.026 3.572-1.026 1.11 0 2.362.253 3.759.76V6.09c-.772-.222-1.407-.332-1.904-.332-.627 0-1.087.13-1.374.39-.208.196-.314.6-.314 1.212l-.019 2.658h3.388v4.506h-3.391v16.728h-5.332V14.523h-1.896v-4.506zM38.998 42.085l26.625 26.643V43.993a29.35 29.35 0 01-11.444 2.311 29.279 29.279 0 01-15.181-4.219zM27.723 4.046H.984L28.98 32.06a29.276 29.276 0 01-4.21-15.161 29.3 29.3 0 012.954-12.852z" fill="#EE690E"/><path d="M30.642 16.898A23.467 23.467 0 0134.48 4.046h-3.762a26.626 26.626 0 00-3.289 12.852c.002 14.77 11.976 26.745 26.75 26.747a26.624 26.624 0 0011.443-2.572v-3.626a23.47 23.47 0 01-11.444 2.983c-13-.022-23.513-10.538-23.536-23.532zm23.537 17.716c-9.787-.017-17.703-7.933-17.72-17.716a17.694 17.694 0 015.544-12.852h-4.339a20.84 20.84 0 00-4.418 12.852c.002 11.558 9.37 20.928 20.932 20.929a20.843 20.843 0 0011.444-3.408v-4.013a17.677 17.677 0 01-11.444 4.208z" fill="#20201E"/></svg>