<svg width="24" height="24" viewBox="0 0 24 24" fill="none" xmlns="http://www.w3.org/2000/svg">
<path fill-rule="evenodd" clip-rule="evenodd" d="M17 3H7C4.23858 3 2 5.23858 2 8V16C2 18.7614 4.23858 21 7 21H16.9919L17.2087 20.9952C19.8687 20.8794 21.9901 18.6885 21.9939 16.0014L21.997 8.006L22 7.99797C22 5.23601 19.7607 2.99747 17 3ZM17.0009 5L17.1771 5.00494C18.6929 5.09145 19.907 6.30518 19.9949 7.8217L19.998 7.99949L19.9939 15.9995C19.9916 17.6556 18.6479 18.9985 16.991 19H7C5.34315 19 4 17.6569 4 16V8C4 6.34315 5.34315 5 7 5L17.0009 5Z" fill="black"/>
<g opacity="0.5">
<path fill-rule="evenodd" clip-rule="evenodd" d="M7.29289 8.29289C7.65338 7.93241 8.22061 7.90468 8.6129 8.2097L8.70711 8.29289L9.87868 9.46447C11.0034 10.5892 12.799 10.6342 13.9773 9.59943L14.1213 9.46447L15.2929 8.29289C15.6834 7.90237 16.3166 7.90237 16.7071 8.29289C17.0676 8.65338 17.0953 9.22061 16.7903 9.6129L16.7071 9.70711L15.5355 10.8787C13.6421 12.7721 10.6078 12.8295 8.64525 11.0508L8.46447 10.8787L7.29289 9.70711C6.90237 9.31658 6.90237 8.68342 7.29289 8.29289Z" fill="black"/>
</g>
</svg>
