<svg width="24" height="24" viewBox="0 0 24 24" fill="none" xmlns="http://www.w3.org/2000/svg">
<path fill-rule="evenodd" clip-rule="evenodd" d="M12.0011 14C11.6555 13.9997 11.3185 14.0039 10.9903 14.0128L10.3457 14.037C10.0294 14.0521 9.72207 14.0721 9.42397 14.0968L8.84014 14.1527C5.12621 14.5578 3 15.7832 3 17.9973C3 20.1155 4.83487 21.3164 8.22291 21.778L8.78589 21.8464L9.37584 21.9021C9.57695 21.9185 9.78251 21.9328 9.99248 21.9451L10.6355 21.9756C10.7449 21.9797 10.8554 21.9832 10.9669 21.9862L11.6491 21.9984L11.9999 22C12.236 22 12.4678 21.9981 12.6953 21.9941L13.3647 21.9762C13.4741 21.9721 13.5824 21.9676 13.6896 21.9626L14.3196 21.9261C14.5252 21.9119 14.7264 21.8955 14.9231 21.8771L15.4996 21.8154C19.0656 21.3839 20.9994 20.1773 20.9997 18.0002C21.0001 15.6165 18.5454 14.3844 14.2811 14.0775L13.6596 14.0399C13.2372 14.019 12.7987 14.0064 12.3446 14.0019L12.0011 14ZM11.9991 16C16.6025 16.0047 18.9999 16.8754 18.9997 17.9998C18.9996 18.6393 18.3164 19.1807 16.9128 19.5383L16.5121 19.6312C16.0237 19.7341 15.462 19.8176 14.8259 19.879L14.2624 19.9261C14.1654 19.933 14.0669 19.9395 13.9669 19.9455L13.3483 19.9756C13.2421 19.9796 13.1344 19.9832 13.0252 19.9862L12.3512 19.9985L12.0003 20C11.7633 19.9999 11.5326 19.9978 11.308 19.9936L10.6527 19.975C10.5466 19.9709 10.442 19.9664 10.3389 19.9613L9.73885 19.9251L9.17537 19.8777C6.35829 19.6045 5 18.8971 5 17.9973C5 17.0732 6.62025 16.3178 9.73875 16.079L10.341 16.0403C10.8575 16.0133 11.4103 15.9994 11.9991 16Z" fill="black"/>
<g opacity="0.5">
<path fill-rule="evenodd" clip-rule="evenodd" d="M12 2C9.23858 2 7 4.23858 7 7C7 9.76142 9.23858 12 12 12C14.7614 12 17 9.76142 17 7C17 4.23858 14.7614 2 12 2ZM12 4C13.6569 4 15 5.34315 15 7C15 8.65685 13.6569 10 12 10C10.3431 10 9 8.65685 9 7C9 5.34315 10.3431 4 12 4Z" fill="black"/>
</g>
</svg>
