<svg width="110" height="114" viewBox="0 0 110 114" fill="none" xmlns="http://www.w3.org/2000/svg">
<path d="M67.3645 80.4526C67.3645 88.9505 60.4756 95.8393 51.9778 95.8393C43.4799 95.8393 36.5911 88.9505 36.5911 80.4526C36.5911 71.9547 43.4799 65.0659 51.9778 65.0659C60.4756 65.0659 67.3645 71.9547 67.3645 80.4526Z" fill="#BB0303"/>
<path d="M0.379639 47.3475H109.587L55.0553 0L0.379639 47.3475Z" fill="#BB0303"/>
<path d="M10.5009 113.187L98.3238 114V51.3137H10.5009V113.187ZM51.9777 61.0997C59.4453 61.0953 66.2489 65.3902 69.456 72.134C72.6641 78.8779 71.7025 86.8656 66.9849 92.6555L76.7521 102.422C77.5256 103.196 77.5256 104.451 76.7521 105.226C75.9774 106.001 74.7214 106.001 73.9467 105.226L64.1806 95.4598C57.5762 100.831 48.2362 101.255 41.1725 96.5033C34.1088 91.7525 30.9793 82.9426 33.4648 74.7999C35.9503 66.6573 43.4644 61.0964 51.9777 61.0986V61.0997Z" fill="#BB0303"/>
</svg>
