<svg width="110" height="114" viewBox="0 0 110 114" fill="none" xmlns="http://www.w3.org/2000/svg">
<path d="M31.7472 70.5785H39.3963V103.725H31.7472V70.5785Z" fill="#BB0303" fill-opacity="0.82"/>
<path d="M54.74 103.725H71.0696C72.4784 103.725 73.6193 102.583 73.6193 101.175C73.6193 99.7673 72.4784 98.6253 71.0696 98.6253H66.9474C65.8529 98.6253 64.9642 97.7377 64.9642 96.6422C64.9642 95.5466 65.8529 94.659 66.9474 94.659H72.744C74.1527 94.659 75.2937 93.517 75.2937 92.1093C75.2937 90.7017 74.1527 89.5596 72.744 89.5596H68.2366C67.1421 89.5596 66.2535 88.6721 66.2535 87.5765C66.2535 86.481 67.1421 85.5934 68.2366 85.5934H73.9026C75.2948 85.5934 76.428 84.5775 76.428 83.1854C76.428 81.7932 75.2948 80.7773 73.9026 80.7773H69.5247C68.4148 80.7353 67.5339 79.8278 67.5261 78.7178C67.5294 78.1999 67.7419 77.7042 68.116 77.3456C68.4889 76.9859 68.9924 76.7934 69.5092 76.8111H75.7075C77.113 76.7469 78.2229 75.5927 78.2318 74.1861C78.2008 72.7884 77.0422 71.6807 75.6445 71.7117H57.3693C56.2384 71.694 55.3154 70.7998 55.2612 69.6688V63.3565C55.2822 63.0577 55.27 62.7578 55.2258 62.4612C54.8064 60.4217 53.0092 58.9598 50.9276 58.9631H49.1348C49.6273 61.7032 49.6715 64.5052 49.2632 67.2597L48.9799 69.1819C48.7054 71.1063 47.4538 72.7508 45.6721 73.5288C45.225 73.7269 44.7946 73.9382 44.3619 74.164L43.3615 74.7029V100.625L44.3607 101.171C47.5656 102.844 51.1257 103.719 54.74 103.725Z" fill="#BB0303" fill-opacity="0.82"/>
<path d="M0.379333 47.3478H109.587L55.0542 0L0.379333 47.3478Z" fill="#BB0303" fill-opacity="0.82"/>
<path d="M10.4996 113.186L98.3229 114V51.314H10.4996V113.186ZM27.781 68.4714C27.781 67.3758 28.6464 66.6133 29.7409 66.6133H41.3086C42.4042 66.6133 43.3625 67.3758 43.3625 68.4714V70.2486C43.6458 70.1258 43.8373 70.0085 44.094 69.8956C44.6186 69.6588 44.9816 69.1652 45.0491 68.5942L45.3368 66.6498C45.7197 64.068 45.6367 61.4386 45.0911 58.8856L44.7613 57.3352C44.6363 56.7587 44.7835 56.1555 45.1597 55.7007C45.5393 55.2448 46.107 54.9858 46.7002 54.998H50.9276C54.8783 55.0024 58.2878 57.7712 59.1045 61.6367C59.2064 62.2044 59.2473 62.781 59.2263 63.3576V67.7454H75.6433C79.2255 67.7122 82.1582 70.5862 82.1969 74.1684C82.1936 76.3352 81.1013 78.3537 79.2897 79.5411C81.1854 82.3564 80.5845 86.1577 77.9142 88.2515C78.9865 89.6625 79.4336 91.4508 79.1514 93.2004C78.8692 94.9511 77.881 96.5082 76.4191 97.5097C77.7836 99.4983 77.9352 102.078 76.8142 104.213C75.692 106.347 73.481 107.686 71.0696 107.691H54.7399C50.7981 107.7 46.906 106.806 43.3625 105.076V105.694C43.3304 106.806 42.4208 107.69 41.3086 107.691H29.7409C29.2163 107.686 28.715 107.474 28.3465 107.1C27.9791 106.725 27.7755 106.219 27.781 105.694V68.4714Z" fill="#BB0303" fill-opacity="0.82"/>
</svg>
