<svg width="115" height="114" viewBox="0 0 115 114" fill="none" xmlns="http://www.w3.org/2000/svg">
<path d="M87.658 69.5001V43.8807H9.08948V96.6866L33.6738 96.9042V70.1218C33.6738 69.185 34.5629 68.5916 35.543 68.5916H62.5856C63.5657 68.5916 64.3419 69.185 64.3419 70.1218V97.1758L68.1931 97.2099C65.9774 84.5024 74.5144 72.3495 87.658 69.5001V69.5001Z" fill="#BB0303"/>
<path d="M48.9133 0L0 40.4892H97.6998L48.9133 0Z" fill="#BB0303"/>
<path d="M88.9073 85.6825C88.9073 83.8154 87.3242 82.3013 85.3709 82.3013C83.4176 82.3013 81.8335 83.8145 81.8335 85.6816C81.8335 87.5487 83.4166 89.0629 85.3699 89.0629C87.3222 89.061 88.9053 87.5487 88.9073 85.6825V85.6825Z" fill="#BB0303"/>
<path d="M37.222 96.9365L60.7926 97.1447V71.9834H37.222V96.9365Z" fill="#BB0303"/>
<path d="M93.1812 72.2976C81.1336 72.2967 71.366 81.6323 71.366 93.1483C71.366 104.664 81.1326 114 93.1802 114C105.228 114 114.994 104.664 114.994 93.1483C114.981 81.638 105.223 72.3109 93.1812 72.2976V72.2976ZM78.2853 85.6827C78.2843 81.9418 81.4573 78.9097 85.3699 78.9097C89.2835 78.9097 92.4555 81.9418 92.4555 85.6827C92.4555 89.4226 89.2835 92.4547 85.3699 92.4547C81.4593 92.4509 78.2892 89.4207 78.2853 85.6827V85.6827ZM85.3748 103.008C84.6818 103.671 83.5591 103.671 82.8661 103.008C82.1731 102.346 82.1731 101.273 82.8661 100.61L100.988 83.2884C101.681 82.626 102.803 82.626 103.496 83.2884C104.189 83.9509 104.189 85.024 103.496 85.6864L85.3748 103.008ZM100.992 107.387C97.0779 107.387 93.9059 104.355 93.9059 100.614C93.9059 96.8741 97.0779 93.842 100.992 93.842C104.905 93.842 108.077 96.8741 108.077 100.615C108.072 104.354 104.902 107.383 100.992 107.387Z" fill="#BB0303"/>
<path d="M100.992 97.2336C99.0373 97.2336 97.4542 98.7478 97.4542 100.615C97.4542 102.482 99.0383 103.996 100.992 103.996C102.945 103.996 104.529 102.482 104.529 100.615C104.526 98.7478 102.944 97.2355 100.992 97.2336V97.2336Z" fill="#BB0303"/>
</svg>
