<svg width="36" height="36" viewBox="0 0 36 36" fill="none" xmlns="http://www.w3.org/2000/svg">
<path d="M35.3 28.6258L31.309 25.9649L27.7612 23.6001C27.0765 23.1446 26.1563 23.2939 25.6508 23.9427L23.4555 26.765C22.9839 27.3774 22.1356 27.5534 21.4593 27.179C19.9697 26.3504 18.2082 25.5702 14.3215 21.6785C10.4348 17.7868 9.64962 16.0303 8.821 14.5407C8.44659 13.8644 8.62258 13.0161 9.23499 12.5446L12.0572 10.3492C12.706 9.84384 12.8554 8.92368 12.3999 8.23891L10.1077 4.80032L7.37419 0.700024C6.90894 0.00211081 5.97759 -0.207418 5.2583 0.223944L2.1058 2.11519C1.25384 2.61714 0.627569 3.4277 0.356728 4.3788C-0.505365 7.52194 -0.679176 14.4556 10.4329 25.5676C21.545 36.6797 28.478 36.5053 31.6211 35.6432C32.5722 35.3724 33.3828 34.7461 33.8848 33.8941L35.776 30.7417C36.2074 30.0223 35.9979 29.091 35.3 28.6258Z" fill="#BB0303"/>
</svg>
