<svg width="144" height="60" viewBox="0 0 144 60" fill="none" xmlns="http://www.w3.org/2000/svg">
<path d="M25.9074 60C12.4392 60 1.47736 49.0382 1.47736 35.57C1.47736 22.0952 12.4392 11.14 25.9074 11.14C39.3755 11.14 50.3374 22.1018 50.3374 35.57C50.344 49.0382 39.3821 60 25.9074 60ZM25.9074 17.5575C15.9744 17.5575 7.89485 25.637 7.89485 35.57C7.89485 45.5029 15.9744 53.5825 25.9074 53.5825C35.8403 53.5825 43.9199 45.5029 43.9199 35.57C43.9199 25.637 35.8403 17.5575 25.9074 17.5575Z" fill="#41535B"/>
<path d="M7.33428 53.6682L40.8992 50.0143L47.3101 40.2858L2.65802 47.0727C3.87161 49.513 5.45454 51.7357 7.33428 53.6682Z" fill="#D6DEEA"/>
<path d="M4.45197 50.1462L45.9052 36.2163L50.3572 21.8578L1.2597 43.6364C2.0182 45.9712 3.09988 48.1609 4.45197 50.1462Z" fill="#FFA715"/>
<path d="M2.0908 45.8524L46.5978 18.3423L47.6069 0L0 36.7967C0.151698 40.0022 0.883806 43.0559 2.0908 45.8524Z" fill="#D6DEEA"/>
<path d="M64.4907 27.3317H61.7819V31.9969H60.2532V20.4646H64.0709C65.3699 20.4646 66.3679 20.7603 67.0649 21.3517C67.7672 21.9431 68.1183 22.8038 68.1183 23.9338C68.1183 24.6519 67.923 25.2776 67.5322 25.811C67.1467 26.3443 66.6081 26.7429 65.9164 27.007L68.6252 31.9019V31.9969H66.9936L64.4907 27.3317ZM61.7819 26.0882H64.1185C64.8735 26.0882 65.4729 25.8928 65.9164 25.5021C66.3652 25.1113 66.5897 24.5885 66.5897 23.9338C66.5897 23.2209 66.3758 22.6744 65.9481 22.2942C65.5257 21.914 64.9131 21.7213 64.1105 21.716H61.7819V26.0882ZM73.5835 32.1553C72.4218 32.1553 71.4766 31.7751 70.748 31.0148C70.0193 30.2491 69.6549 29.2273 69.6549 27.9495V27.6802C69.6549 26.8301 69.816 26.0723 70.1381 25.407C70.4655 24.7364 70.9196 24.2136 71.5004 23.8387C72.0865 23.4585 72.7202 23.2685 73.4013 23.2685C74.5155 23.2685 75.3815 23.6354 75.9993 24.3694C76.6171 25.1034 76.926 26.1542 76.926 27.5218V28.1317H71.1202C71.1413 28.9765 71.3869 29.6603 71.8568 30.1831C72.3321 30.7006 72.934 30.9593 73.6627 30.9593C74.1802 30.9593 74.6185 30.8537 74.9775 30.6425C75.3366 30.4313 75.6508 30.1514 75.9201 29.8029L76.8151 30.4999C76.097 31.6035 75.0198 32.1553 73.5835 32.1553ZM73.4013 24.4724C72.8099 24.4724 72.3136 24.6889 71.9123 25.1219C71.511 25.5496 71.2628 26.1515 71.1677 26.9277H75.4607V26.8169C75.4184 26.0723 75.2178 25.4968 74.8587 25.0902C74.4997 24.6783 74.0139 24.4724 73.4013 24.4724ZM82.0664 30.9593C82.5892 30.9593 83.0459 30.8009 83.4367 30.4841C83.8274 30.1673 84.0439 29.7712 84.0862 29.296H85.4723C85.4459 29.7871 85.2769 30.2544 84.9653 30.6979C84.6538 31.1415 84.2367 31.4953 83.7139 31.7593C83.1964 32.0233 82.6473 32.1553 82.0664 32.1553C80.8995 32.1553 79.9701 31.7672 79.2784 30.991C78.5919 30.2095 78.2487 29.1429 78.2487 27.7911V27.5456C78.2487 26.7113 78.4018 25.9694 78.7081 25.3199C79.0144 24.6704 79.4526 24.1661 80.0229 23.8071C80.5985 23.448 81.277 23.2685 82.0585 23.2685C83.0195 23.2685 83.8169 23.5562 84.4505 24.1318C85.0894 24.7074 85.43 25.4545 85.4723 26.3733H84.0862C84.0439 25.8189 83.8327 25.3648 83.4525 25.011C83.0776 24.6519 82.6129 24.4724 82.0585 24.4724C81.314 24.4724 80.7358 24.7417 80.3239 25.2803C79.9173 25.8136 79.714 26.5872 79.714 27.601V27.8782C79.714 28.8656 79.9173 29.626 80.3239 30.1593C80.7305 30.6927 81.3113 30.9593 82.0664 30.9593ZM91.2622 24.7417C91.0404 24.7047 90.8001 24.6862 90.5414 24.6862C89.5804 24.6862 88.9283 25.0955 88.585 25.9139V31.9969H87.1197V23.4269H88.5454L88.5692 24.4169C89.0497 23.6513 89.7309 23.2685 90.6127 23.2685C90.8978 23.2685 91.1143 23.3054 91.2622 23.3793V24.7417ZM97.9075 31.1494C97.3372 31.82 96.5003 32.1553 95.3967 32.1553C94.4832 32.1553 93.7862 31.8913 93.3057 31.3633C92.8304 30.8299 92.5902 30.0432 92.5849 29.0029V23.4269H94.0502V28.9633C94.0502 30.2623 94.5783 30.9118 95.6343 30.9118C96.7538 30.9118 97.4983 30.4946 97.8679 29.6603V23.4269H99.3332V31.9969H97.9392L97.9075 31.1494ZM103.159 31.9969H101.694V23.4269H103.159V31.9969ZM101.575 21.1537C101.575 20.9161 101.646 20.7154 101.789 20.5517C101.936 20.388 102.153 20.3062 102.438 20.3062C102.723 20.3062 102.94 20.388 103.088 20.5517C103.235 20.7154 103.309 20.9161 103.309 21.1537C103.309 21.3913 103.235 21.5893 103.088 21.7477C102.94 21.9061 102.723 21.9853 102.438 21.9853C102.153 21.9853 101.936 21.9061 101.789 21.7477C101.646 21.5893 101.575 21.3913 101.575 21.1537ZM107.499 21.3517V23.4269H109.099V24.5595H107.499V29.8742C107.499 30.2174 107.571 30.4762 107.713 30.6504C107.856 30.8194 108.099 30.9039 108.442 30.9039C108.611 30.9039 108.843 30.8722 109.139 30.8088V31.9969C108.753 32.1025 108.378 32.1553 108.014 32.1553C107.359 32.1553 106.866 31.9573 106.533 31.5613C106.2 31.1652 106.034 30.6029 106.034 29.8742V24.5595H104.474V23.4269H106.034V21.3517H107.499ZM112.41 31.9969H110.945V23.4269H112.41V31.9969ZM110.826 21.1537C110.826 20.9161 110.897 20.7154 111.04 20.5517C111.188 20.388 111.404 20.3062 111.689 20.3062C111.974 20.3062 112.191 20.388 112.339 20.5517C112.487 20.7154 112.561 20.9161 112.561 21.1537C112.561 21.3913 112.487 21.5893 112.339 21.7477C112.191 21.9061 111.974 21.9853 111.689 21.9853C111.404 21.9853 111.188 21.9061 111.04 21.7477C110.897 21.5893 110.826 21.3913 110.826 21.1537ZM116.149 23.4269L116.196 24.5041C116.851 23.6803 117.706 23.2685 118.762 23.2685C120.573 23.2685 121.487 24.2902 121.503 26.3337V31.9969H120.038V26.3258C120.032 25.708 119.89 25.2512 119.61 24.9555C119.335 24.6598 118.905 24.512 118.319 24.512C117.844 24.512 117.426 24.6387 117.067 24.8922C116.708 25.1456 116.428 25.4783 116.228 25.8902V31.9969H114.762V23.4269H116.149ZM123.364 27.6406C123.364 26.3047 123.673 25.2433 124.291 24.4565C124.909 23.6645 125.727 23.2685 126.746 23.2685C127.792 23.2685 128.608 23.6381 129.194 24.3773L129.265 23.4269H130.604V31.791C130.604 32.8998 130.274 33.7737 129.613 34.4127C128.959 35.0516 128.077 35.3711 126.968 35.3711C126.35 35.3711 125.746 35.239 125.154 34.975C124.563 34.711 124.111 34.3493 123.8 33.8899L124.56 33.0107C125.189 33.7869 125.957 34.1751 126.865 34.1751C127.578 34.1751 128.132 33.9744 128.528 33.5731C128.93 33.1718 129.13 32.6068 129.13 31.8781V31.1415C128.544 31.8174 127.744 32.1553 126.73 32.1553C125.727 32.1553 124.914 31.7514 124.291 30.9435C123.673 30.1356 123.364 29.0346 123.364 27.6406ZM124.837 27.8069C124.837 28.7732 125.035 29.5336 125.431 30.088C125.827 30.6372 126.382 30.9118 127.095 30.9118C128.019 30.9118 128.697 30.492 129.13 29.6524V25.7397C128.682 24.9212 128.008 24.512 127.111 24.512C126.398 24.512 125.841 24.7892 125.439 25.3436C125.038 25.8981 124.837 26.7192 124.837 27.8069ZM68.7441 47.3376C68.6015 48.5574 68.15 49.4999 67.3896 50.1652C66.6345 50.8253 65.6286 51.1553 64.3719 51.1553C63.0096 51.1553 61.9165 50.6669 61.0928 49.69C60.2743 48.7131 59.8651 47.4063 59.8651 45.7693V44.6605C59.8651 43.5885 60.0552 42.646 60.4354 41.8328C60.8209 41.0196 61.3647 40.3966 62.067 39.9636C62.7693 39.5253 63.5825 39.3062 64.5066 39.3062C65.7316 39.3062 66.7138 39.6494 67.453 40.3358C68.1923 41.017 68.6226 41.9622 68.7441 43.1714H67.2154C67.0834 42.2526 66.7956 41.5873 66.352 41.1754C65.9138 40.7636 65.2986 40.5576 64.5066 40.5576C63.535 40.5576 62.772 40.9167 62.2175 41.6348C61.6684 42.3529 61.3938 43.3747 61.3938 44.7001V45.8169C61.3938 47.0683 61.6552 48.0637 62.1779 48.8029C62.7007 49.5422 63.432 49.9118 64.3719 49.9118C65.2168 49.9118 65.8636 49.7217 66.3124 49.3415C66.7666 48.956 67.0675 48.2881 67.2154 47.3376H68.7441ZM70.2094 46.6327C70.2094 45.7931 70.373 45.038 70.7004 44.3674C71.0331 43.6968 71.4925 43.1793 72.0786 42.815C72.67 42.4506 73.3433 42.2685 74.0983 42.2685C75.2653 42.2685 76.2079 42.6724 76.926 43.4803C77.6494 44.2882 78.0111 45.3628 78.0111 46.704V46.8069C78.0111 47.6412 77.85 48.391 77.5279 49.0564C77.2111 49.7164 76.7544 50.2312 76.1577 50.6009C75.5663 50.9705 74.8851 51.1553 74.1142 51.1553C72.9525 51.1553 72.01 50.7514 71.2865 49.9435C70.5684 49.1356 70.2094 48.0663 70.2094 46.7356V46.6327ZM71.6826 46.8069C71.6826 47.7574 71.9017 48.5204 72.34 49.096C72.7835 49.6715 73.3749 49.9593 74.1142 49.9593C74.8587 49.9593 75.4501 49.6689 75.8884 49.088C76.3267 48.5019 76.5458 47.6835 76.5458 46.6327C76.5458 45.6928 76.3214 44.9324 75.8725 44.3516C75.429 43.7654 74.8376 43.4724 74.0983 43.4724C73.3749 43.4724 72.7915 43.7602 72.3479 44.3357C71.9044 44.9113 71.6826 45.735 71.6826 46.8069ZM81.2268 42.4269L81.2664 43.3773C81.8948 42.6381 82.7423 42.2685 83.8089 42.2685C85.0076 42.2685 85.8234 42.7278 86.2564 43.6466C86.5415 43.2348 86.9112 42.9021 87.3653 42.6486C87.8247 42.3952 88.3659 42.2685 88.989 42.2685C90.8688 42.2685 91.8245 43.2638 91.8562 45.2545V50.9969H90.3909V45.3416C90.3909 44.7291 90.251 44.2724 89.9711 43.9714C89.6913 43.6651 89.2213 43.512 88.5613 43.512C88.0174 43.512 87.5659 43.6757 87.2069 44.0031C86.8478 44.3252 86.6392 44.7608 86.5811 45.3099V50.9969H85.1079V45.3812C85.1079 44.1351 84.498 43.512 83.2783 43.512C82.3172 43.512 81.6598 43.9212 81.306 44.7397V50.9969H79.8407V42.4269H81.2268ZM101.313 46.8069C101.313 48.1112 101.015 49.162 100.418 49.9593C99.8217 50.7566 99.0138 51.1553 97.9946 51.1553C96.9544 51.1553 96.136 50.8253 95.5393 50.1652V54.2919H94.074V42.4269H95.4125L95.4838 43.3773C96.0805 42.6381 96.9095 42.2685 97.9709 42.2685C99.0006 42.2685 99.8137 42.6566 100.41 43.4328C101.012 44.209 101.313 45.2888 101.313 46.6723V46.8069ZM99.8481 46.6406C99.8481 45.6743 99.6421 44.9113 99.2303 44.3516C98.8184 43.7918 98.2534 43.512 97.5353 43.512C96.6482 43.512 95.9828 43.9054 95.5393 44.6921V48.7871C95.9775 49.5686 96.6482 49.9593 97.5511 49.9593C98.2534 49.9593 98.8105 49.6821 99.2223 49.1277C99.6395 48.5679 99.8481 47.7389 99.8481 46.6406ZM108.474 50.9969C108.389 50.8279 108.32 50.5269 108.268 50.094C107.586 50.8015 106.773 51.1553 105.828 51.1553C104.983 51.1553 104.289 50.9177 103.745 50.4425C103.206 49.962 102.937 49.3547 102.937 48.6207C102.937 47.7284 103.275 47.0366 103.951 46.5456C104.632 46.0492 105.588 45.801 106.818 45.801H108.244V45.1278C108.244 44.6156 108.091 44.209 107.784 43.908C107.478 43.6017 107.027 43.4486 106.43 43.4486C105.907 43.4486 105.469 43.5806 105.115 43.8446C104.761 44.1087 104.585 44.4281 104.585 44.803H103.111C103.111 44.3753 103.262 43.9635 103.563 43.5674C103.869 43.1661 104.281 42.8493 104.798 42.617C105.321 42.3846 105.894 42.2685 106.517 42.2685C107.505 42.2685 108.278 42.5166 108.838 43.013C109.398 43.5041 109.688 44.1826 109.709 45.0486V48.993C109.709 49.7798 109.809 50.4055 110.01 50.8702V50.9969H108.474ZM106.042 49.8801C106.501 49.8801 106.937 49.7613 107.349 49.5237C107.761 49.2861 108.059 48.9772 108.244 48.597V46.8386H107.095C105.3 46.8386 104.402 47.364 104.402 48.4148C104.402 48.8742 104.556 49.2333 104.862 49.492C105.168 49.7507 105.561 49.8801 106.042 49.8801ZM113.392 42.4269L113.44 43.5041C114.094 42.6803 114.95 42.2685 116.006 42.2685C117.817 42.2685 118.731 43.2902 118.746 45.3337V50.9969H117.281V45.3258C117.276 44.708 117.133 44.2512 116.853 43.9555C116.579 43.6598 116.149 43.512 115.562 43.512C115.087 43.512 114.67 43.6387 114.311 43.8922C113.952 44.1456 113.672 44.4783 113.471 44.8902V50.9969H112.006V42.4269H113.392ZM123.76 48.8504L125.756 42.4269H127.324L123.879 52.3196C123.346 53.7453 122.498 54.4582 121.337 54.4582L121.059 54.4344L120.513 54.3315V53.1434L120.909 53.1751C121.405 53.1751 121.791 53.0747 122.065 52.8741C122.345 52.6734 122.575 52.3064 122.754 51.7731L123.079 50.9019L120.022 42.4269H121.622L123.76 48.8504Z" fill="#FFA715"/>
</svg>
