<svg width="234" height="339" viewBox="0 0 234 339" fill="none" xmlns="http://www.w3.org/2000/svg">
<path d="M5.31934 339V295.167L113.64 178.814C130.01 160.302 141.332 145.156 147.604 133.375C153.877 121.594 157.014 110.043 157.014 98.7217C157.014 85.7171 153.265 74.7015 145.769 65.6748C138.272 56.6481 127.409 52.1348 113.181 52.1348C97.7282 52.1348 86.0241 57.1836 78.0684 67.2812C70.1126 77.2259 66.1348 90.9954 66.1348 108.59H0.958984L0.5 107.213C0.0410156 87.1706 4.32487 69.0407 13.3516 52.8232C22.5312 36.6058 35.6888 23.7542 52.8242 14.2686C69.9596 4.78288 90.3079 0.0400391 113.869 0.0400391C136.665 0.0400391 156.325 4.1709 172.849 12.4326C189.372 20.6943 202.071 32.1689 210.944 46.8564C219.818 61.391 224.255 78.2969 224.255 97.5742C224.255 110.732 221.883 123.201 217.141 134.981C212.398 146.762 204.978 159.155 194.88 172.159C184.782 185.164 171.778 200.081 155.866 216.91L90.9199 286.676L91.3789 287.823H177.897L181.34 255.924H233.205V339H5.31934Z" fill="#7D8083" fill-opacity="0.2"/>
</svg>
