<svg width="232" height="344" viewBox="0 0 232 344" fill="none" xmlns="http://www.w3.org/2000/svg">
<path d="M114.541 343.819C93.2747 343.819 73.9209 340.071 56.4795 332.574C39.0381 325.077 25.1921 314.215 14.9414 299.986C4.84375 285.605 0.0244141 268.24 0.483398 247.892L0.942383 246.515H65.8887C65.8887 259.825 70.249 270.841 78.9697 279.562C87.6904 288.129 99.5475 292.413 114.541 292.413C129.993 292.413 142.157 288.129 151.03 279.562C160.057 270.841 164.57 258.754 164.57 243.302C164.57 227.696 160.133 215.533 151.26 206.812C142.386 198.092 128.999 193.731 111.099 193.731H74.8389V143.473H112.476C128.387 143.473 140.168 139.342 147.817 131.08C155.467 122.818 159.292 111.65 159.292 97.5742C159.292 83.3457 155.467 72.1771 147.817 64.0684C140.168 55.8066 129.076 51.6758 114.541 51.6758C101.383 51.6758 90.6738 55.5007 82.4121 63.1504C74.1504 70.8001 70.0195 80.8213 70.0195 93.2139H5.07324L4.61426 91.8369C4.00228 74.0895 8.28613 58.3311 17.4658 44.5615C26.7985 30.639 39.8031 19.7764 56.4795 11.9736C73.1559 4.0179 92.3568 0.0400391 114.082 0.0400391C147.894 0.0400391 175.05 8.30176 195.552 24.8252C216.053 41.1956 226.304 64.4508 226.304 94.5908C226.304 110.196 221.943 124.272 213.223 136.817C204.655 149.363 191.803 159.614 174.668 167.569C193.18 174.148 207.256 184.246 216.895 197.862C226.686 211.479 231.582 227.314 231.582 245.367C231.582 265.715 226.533 283.31 216.436 298.15C206.338 312.838 192.415 324.16 174.668 332.115C157.074 339.918 137.031 343.819 114.541 343.819Z" fill="#7D8083" fill-opacity="0.2"/>
</svg>
