<svg width="273" height="401" viewBox="0 0 273 401" fill="none" xmlns="http://www.w3.org/2000/svg">
<path d="M31 30.9998C47 14.6665 94 -12.7002 154 8.49985C229 34.9999 263 64.5 266.5 93C270 121.5 202.5 145.5 106 146C28.8 146.4 0.5 158 0.5 174C19 191 76.5 199.5 142.5 199.5C192.002 199.5 234.473 223.69 257.886 242.956C264.494 248.393 267.798 251.112 270.542 259.222C270.846 260.119 271.504 262.692 271.669 263.625C273.156 272.056 271.787 275.471 269.048 282.302C260.306 304.104 237.018 322.616 158 329.5C52.4 338.7 -7.5 356 4.5 379C48 395.5 102.2 405.9 153 395.5" stroke="white" stroke-opacity="0.3" stroke-dasharray="3 3"/>
</svg>
