<svg width="138" height="43" viewBox="0 0 138 43" fill="none" xmlns="http://www.w3.org/2000/svg">
<g clip-path="url(#clip0)">
<path d="M18.737 19.8002L1.6608 28.334V10.7235L18.737 2.18968V19.8002ZM37.2424 28.334L20.1663 19.8002V2.18968L37.2424 10.7235V28.334ZM20.1663 39.1696L37.2424 30.6357V32.6012L20.1663 41.1345V39.1696ZM1.66024 30.6357L18.737 39.1696V41.1345L1.6608 32.6012L1.66024 30.6357ZM7.70528 26.9021L8.1155 27.0795L3.52075 29.9245L2.54043 29.4849L7.70528 26.9021ZM13.7573 23.8797L18.2131 26.104L13.7573 28.3293L9.302 26.104L13.7573 23.8797ZM25.8571 28.3288L21.4018 26.1045L25.5017 24.0576L29.9571 26.2819L25.8571 28.3288ZM32.2633 31.5343L27.4516 29.1295L31.5516 27.08L36.3628 29.4849L32.2633 31.5343ZM26.2129 34.5567L21.4018 32.1519L25.8576 29.9245L30.6688 32.3293L26.2129 34.5567ZM15.3519 29.1295L19.8072 26.9021L24.263 29.1295L19.8072 31.3564L15.3519 29.1295ZM19.4519 21.0347L23.9072 23.2621L19.8072 25.3116L15.3519 23.0842L19.4519 21.0347ZM0.286953 33.2904C0.305256 33.3313 0.327333 33.3699 0.352635 33.4064C0.374169 33.4467 0.400518 33.4848 0.429588 33.5203C0.465657 33.5553 0.504973 33.5866 0.54804 33.613C0.573881 33.6361 19.1332 42.9218 19.1332 42.9218C19.341 43.0202 19.5623 43.0201 19.7501 42.9266L38.2728 33.6767C38.3431 33.6295 38.41 33.5774 38.4731 33.5208C38.5269 33.4477 38.5743 33.3705 38.6158 33.2904C38.6314 33.2415 38.6416 33.1908 38.6459 33.1398C38.655 33.107 38.6664 10.2837 38.6664 10.2837C38.6556 10.1992 38.6387 10.1158 38.6158 10.0338C38.5744 9.95348 38.5267 9.87644 38.4731 9.80366C38.437 9.76889 38.3973 9.73813 38.3546 9.7118C38.3293 9.68815 19.77 0.402392 19.77 0.402392C19.5622 0.30403 19.341 0.30413 19.1531 0.398193L0.630415 9.6475C0.559914 9.6949 0.492792 9.74691 0.429588 9.80366C0.400131 9.83913 0.374369 9.87769 0.352635 9.91835C0.327333 9.95436 0.305244 9.99351 0.287478 10.0338C0.271328 10.0827 0.261634 10.1339 0.256789 10.185C0.247637 10.2172 0.236877 33.0406 0.236877 33.0406C0.261641 33.1911 0.271866 33.2415 0.287478 33.2904H0.286953Z" fill="white"/>
<path d="M2.1803 29.4496L19.4072 20.8496L36.3031 29.4496L19.4072 38.0496L2.1803 29.4496Z" fill="#F1F1F1"/>
<path d="M2.1803 29.4496L19.4072 20.8496C19.4072 20.8496 11.4559 28.4574 19.4072 38.0496C27.3585 47.6418 2.1803 29.4496 2.1803 29.4496Z" fill="url(#paint0_linear)"/>
</g>
<path d="M47.6852 15.8633C46.9811 15.8633 46.3447 15.7115 45.7762 15.4079C45.2142 15.1043 44.7717 14.6876 44.4487 14.1579C44.1321 13.6217 43.9739 13.0209 43.9739 12.3555C43.9739 11.6901 44.1321 11.0925 44.4487 10.5628C44.7717 10.0266 45.2142 9.60672 45.7762 9.30309C46.3447 8.99947 46.9811 8.84766 47.6852 8.84766C48.3894 8.84766 49.0224 8.99947 49.5845 9.30309C50.1465 9.60672 50.589 10.0266 50.912 10.5628C51.235 11.0925 51.3965 11.6901 51.3965 12.3555C51.3965 13.0209 51.235 13.6217 50.912 14.1579C50.589 14.6876 50.1465 15.1043 49.5845 15.4079C49.0224 15.7115 48.3894 15.8633 47.6852 15.8633ZM47.6852 14.5261C48.0857 14.5261 48.4475 14.4356 48.7705 14.2548C49.0935 14.0674 49.3454 13.809 49.5263 13.4795C49.7137 13.1501 49.8073 12.7754 49.8073 12.3555C49.8073 11.9356 49.7137 11.5609 49.5263 11.2314C49.3454 10.902 49.0935 10.6468 48.7705 10.4659C48.4475 10.2786 48.0857 10.1849 47.6852 10.1849C47.2847 10.1849 46.9229 10.2786 46.5999 10.4659C46.2769 10.6468 46.0217 10.902 45.8344 11.2314C45.6535 11.5609 45.5631 11.9356 45.5631 12.3555C45.5631 12.7754 45.6535 13.1501 45.8344 13.4795C46.0217 13.809 46.2769 14.0674 46.5999 14.2548C46.9229 14.4356 47.2847 14.5261 47.6852 14.5261Z" fill="white"/>
<path d="M55.8423 15.8633C55.1382 15.8633 54.5019 15.7115 53.9334 15.4079C53.3713 15.1043 52.9288 14.6876 52.6058 14.1579C52.2893 13.6217 52.131 13.0209 52.131 12.3555C52.131 11.6901 52.2893 11.0925 52.6058 10.5628C52.9288 10.0266 53.3713 9.60672 53.9334 9.30309C54.5019 8.99947 55.1382 8.84766 55.8423 8.84766C56.5465 8.84766 57.1796 8.99947 57.7416 9.30309C58.3036 9.60672 58.7461 10.0266 59.0691 10.5628C59.3922 11.0925 59.5537 11.6901 59.5537 12.3555C59.5537 13.0209 59.3922 13.6217 59.0691 14.1579C58.7461 14.6876 58.3036 15.1043 57.7416 15.4079C57.1796 15.7115 56.5465 15.8633 55.8423 15.8633ZM55.8423 14.5261C56.2429 14.5261 56.6046 14.4356 56.9276 14.2548C57.2506 14.0674 57.5026 13.809 57.6835 13.4795C57.8708 13.1501 57.9645 12.7754 57.9645 12.3555C57.9645 11.9356 57.8708 11.5609 57.6835 11.2314C57.5026 10.902 57.2506 10.6468 56.9276 10.4659C56.6046 10.2786 56.2429 10.1849 55.8423 10.1849C55.4418 10.1849 55.08 10.2786 54.757 10.4659C54.434 10.6468 54.1789 10.902 53.9915 11.2314C53.8106 11.5609 53.7202 11.9356 53.7202 12.3555C53.7202 12.7754 53.8106 13.1501 53.9915 13.4795C54.1789 13.809 54.434 14.0674 54.757 14.2548C55.08 14.4356 55.4418 14.5261 55.8423 14.5261Z" fill="white"/>
<path d="M63.9995 15.8633C63.2953 15.8633 62.659 15.7115 62.0905 15.4079C61.5285 15.1043 61.086 14.6876 60.763 14.1579C60.4464 13.6217 60.2881 13.0209 60.2881 12.3555C60.2881 11.6901 60.4464 11.0925 60.763 10.5628C61.086 10.0266 61.5285 9.60672 62.0905 9.30309C62.659 8.99947 63.2953 8.84766 63.9995 8.84766C64.7036 8.84766 65.3367 8.99947 65.8987 9.30309C66.4608 9.60672 66.9033 10.0266 67.2263 10.5628C67.5493 11.0925 67.7108 11.6901 67.7108 12.3555C67.7108 13.0209 67.5493 13.6217 67.2263 14.1579C66.9033 14.6876 66.4608 15.1043 65.8987 15.4079C65.3367 15.7115 64.7036 15.8633 63.9995 15.8633ZM63.9995 14.5261C64.4 14.5261 64.7618 14.4356 65.0848 14.2548C65.4078 14.0674 65.6597 13.809 65.8406 13.4795C66.0279 13.1501 66.1216 12.7754 66.1216 12.3555C66.1216 11.9356 66.0279 11.5609 65.8406 11.2314C65.6597 10.902 65.4078 10.6468 65.0848 10.4659C64.7618 10.2786 64.4 10.1849 63.9995 10.1849C63.5989 10.1849 63.2372 10.2786 62.9142 10.4659C62.5912 10.6468 62.336 10.902 62.1486 11.2314C61.9678 11.5609 61.8773 11.9356 61.8773 12.3555C61.8773 12.7754 61.9678 13.1501 62.1486 13.4795C62.336 13.809 62.5912 14.0674 62.9142 14.2548C63.2372 14.4356 63.5989 14.5261 63.9995 14.5261Z" fill="white"/>
<path d="M71.1702 12.966L72.4008 11.2605H73.6315L72.4299 12.966L73.6315 14.6617H72.4008L71.1702 12.966ZM73.2342 12.966L74.4648 11.2605H75.6955L74.4939 12.966L75.6955 14.6617H74.4648L73.2342 12.966Z" fill="white"/>
<path d="M82.9565 15.747L82.9468 11.6869L80.9506 15.03H80.2529L78.2568 11.7644V15.747H76.7839V8.96394H78.0823L80.6212 13.1791L83.1212 8.96394H84.4197L84.4294 15.747H82.9565Z" fill="white"/>
<path d="M89.3218 15.8633C88.6306 15.8633 88.004 15.7147 87.442 15.4176C86.8864 15.1139 86.4471 14.6973 86.1241 14.1675C85.8076 13.6314 85.6493 13.0273 85.6493 12.3555C85.6493 11.6836 85.8076 11.0828 86.1241 10.5531C86.4471 10.0169 86.8864 9.60026 87.442 9.30309C88.004 8.99947 88.6338 8.84766 89.3315 8.84766C89.9194 8.84766 90.4491 8.95102 90.9207 9.15774C91.3988 9.36446 91.7993 9.66163 92.1223 10.0492L91.1145 10.9795C90.6559 10.4498 90.0874 10.1849 89.4091 10.1849C88.9891 10.1849 88.6145 10.2786 88.285 10.4659C87.9555 10.6468 87.6971 10.902 87.5098 11.2314C87.3289 11.5609 87.2385 11.9356 87.2385 12.3555C87.2385 12.7754 87.3289 13.1501 87.5098 13.4795C87.6971 13.809 87.9555 14.0674 88.285 14.2548C88.6145 14.4356 88.9891 14.5261 89.4091 14.5261C90.0874 14.5261 90.6559 14.258 91.1145 13.7218L92.1223 14.6521C91.7993 15.0461 91.3988 15.3465 90.9207 15.5532C90.4427 15.76 89.9097 15.8633 89.3218 15.8633Z" fill="white"/>
<path d="M95.7715 13.0144H94.6862V15.747H93.1261V8.96394H94.6862V11.7062H95.8102L97.5932 8.96394H99.2502L97.0312 12.2392L99.3181 15.747H97.5351L95.7715 13.0144Z" fill="white"/>
<path d="M99.6703 14.6617L100.872 12.966L99.6703 11.2605H100.901L102.132 12.966L100.901 14.6617H99.6703ZM101.734 14.6617L102.936 12.966L101.734 11.2605H102.965L104.196 12.966L102.965 14.6617H101.734Z" fill="white"/>
<path d="M49.172 19.3203V24.8315H48.5973V19.8242H45.1094V24.8315H44.5347V19.3203H49.172Z" fill="white"/>
<path d="M52.6063 24.8709C52.2074 24.8709 51.8478 24.7817 51.5277 24.6032C51.2075 24.4195 50.9555 24.1676 50.7718 23.8474C50.5881 23.5272 50.4963 23.165 50.4963 22.7609C50.4963 22.3567 50.5881 21.9946 50.7718 21.6744C50.9555 21.3542 51.2075 21.1049 51.5277 20.9264C51.8478 20.748 52.2074 20.6587 52.6063 20.6587C53.0052 20.6587 53.3648 20.748 53.6849 20.9264C54.0051 21.1049 54.2544 21.3542 54.4329 21.6744C54.6166 21.9946 54.7085 22.3567 54.7085 22.7609C54.7085 23.165 54.6166 23.5272 54.4329 23.8474C54.2544 24.1676 54.0051 24.4195 53.6849 24.6032C53.3648 24.7817 53.0052 24.8709 52.6063 24.8709ZM52.6063 24.3749C52.9002 24.3749 53.1627 24.3093 53.3936 24.1781C53.6298 24.0416 53.8135 23.85 53.9448 23.6033C54.076 23.3566 54.1416 23.0758 54.1416 22.7609C54.1416 22.446 54.076 22.1651 53.9448 21.9184C53.8135 21.6718 53.6298 21.4828 53.3936 21.3516C53.1627 21.2151 52.9002 21.1469 52.6063 21.1469C52.3124 21.1469 52.0473 21.2151 51.8111 21.3516C51.5802 21.4828 51.3964 21.6718 51.26 21.9184C51.1288 22.1651 51.0631 22.446 51.0631 22.7609C51.0631 23.0758 51.1288 23.3566 51.26 23.6033C51.3964 23.85 51.5802 24.0416 51.8111 24.1781C52.0473 24.3093 52.3124 24.3749 52.6063 24.3749Z" fill="white"/>
<path d="M59.2656 20.6902V24.8315H58.7066V21.1862H56.7225L56.6674 22.2098C56.6254 23.0706 56.5257 23.7319 56.3682 24.1938C56.2108 24.6557 55.93 24.8867 55.5258 24.8867C55.4156 24.8867 55.2817 24.8657 55.1243 24.8237L55.1636 24.3434C55.2581 24.3644 55.3237 24.3749 55.3605 24.3749C55.5757 24.3749 55.7384 24.2752 55.8486 24.0757C55.9588 23.8763 56.0323 23.6296 56.0691 23.3356C56.1058 23.0417 56.1373 22.6533 56.1635 22.1704L56.2344 20.6902H59.2656Z" fill="white"/>
<path d="M64.374 20.6902L62.3034 25.3276C62.1354 25.716 61.9412 25.9915 61.7207 26.1542C61.5003 26.317 61.2352 26.3983 60.9255 26.3983C60.7261 26.3983 60.5398 26.3668 60.3665 26.3038C60.1933 26.2409 60.0437 26.1464 59.9178 26.0204L60.1776 25.6031C60.3875 25.8131 60.6395 25.9181 60.9334 25.9181C61.1224 25.9181 61.2825 25.8656 61.4137 25.7606C61.5502 25.6556 61.6761 25.4771 61.7916 25.2252L61.9727 24.8237L60.1225 20.6902H60.7051L62.264 24.2096L63.8229 20.6902H64.374Z" fill="white"/>
<path d="M66.8617 24.8709C66.4523 24.8709 66.0849 24.7817 65.7595 24.6032C65.4393 24.4248 65.1873 24.1754 65.0036 23.8553C64.8199 23.5298 64.7281 23.165 64.7281 22.7609C64.7281 22.3567 64.8199 21.9946 65.0036 21.6744C65.1873 21.3542 65.4393 21.1049 65.7595 20.9264C66.0849 20.748 66.4523 20.6587 66.8617 20.6587C67.2186 20.6587 67.5362 20.7296 67.8144 20.8713C68.0978 21.0078 68.3209 21.2099 68.4836 21.4775L68.0663 21.761C67.9299 21.5563 67.7566 21.4041 67.5467 21.3043C67.3367 21.1994 67.1084 21.1469 66.8617 21.1469C66.5625 21.1469 66.2922 21.2151 66.0508 21.3516C65.8146 21.4828 65.6283 21.6718 65.4918 21.9184C65.3606 22.1651 65.295 22.446 65.295 22.7609C65.295 23.0811 65.3606 23.3645 65.4918 23.6112C65.6283 23.8526 65.8146 24.0416 66.0508 24.1781C66.2922 24.3093 66.5625 24.3749 66.8617 24.3749C67.1084 24.3749 67.3367 24.325 67.5467 24.2253C67.7566 24.1256 67.9299 23.9734 68.0663 23.7687L68.4836 24.0521C68.3209 24.3198 68.0978 24.5245 67.8144 24.6662C67.531 24.8027 67.2134 24.8709 66.8617 24.8709Z" fill="white"/>
<path d="M73.0238 20.6902L70.9532 25.3276C70.7852 25.716 70.591 25.9915 70.3705 26.1542C70.1501 26.317 69.885 26.3983 69.5753 26.3983C69.3759 26.3983 69.1896 26.3668 69.0163 26.3038C68.8431 26.2409 68.6935 26.1464 68.5676 26.0204L68.8274 25.6031C69.0373 25.8131 69.2893 25.9181 69.5832 25.9181C69.7722 25.9181 69.9323 25.8656 70.0635 25.7606C70.2 25.6556 70.3259 25.4771 70.4414 25.2252L70.6225 24.8237L68.7723 20.6902H69.3549L70.9138 24.2096L72.4727 20.6902H73.0238Z" fill="white"/>
<path d="M76.2467 24.8315L74.9319 23.0994L73.6092 24.8315H72.9793L74.6169 22.7058L73.058 20.6902H73.6879L74.9319 22.3121L76.1758 20.6902H76.7899L75.231 22.7058L76.8844 24.8315H76.2467Z" fill="white"/>
<path d="M79.1488 20.6587C79.6894 20.6587 80.1041 20.7952 80.3927 21.0681C80.6814 21.3358 80.8258 21.7347 80.8258 22.2649V24.8315H80.2904V24.1859C80.1644 24.4011 79.9781 24.5691 79.7314 24.6898C79.4899 24.8105 79.2013 24.8709 78.8653 24.8709C78.4034 24.8709 78.036 24.7607 77.7631 24.5402C77.4901 24.3198 77.3537 24.0285 77.3537 23.6663C77.3537 23.3146 77.4796 23.0312 77.7316 22.816C77.9888 22.6008 78.3956 22.4932 78.9519 22.4932H80.2668V22.2412C80.2668 21.8843 80.167 21.614 79.9676 21.4303C79.7681 21.2413 79.4768 21.1469 79.0937 21.1469C78.8312 21.1469 78.5793 21.1915 78.3378 21.2807C78.0964 21.3647 77.8891 21.4828 77.7158 21.635L77.4639 21.2177C77.6739 21.0393 77.9258 20.9028 78.2197 20.8083C78.5137 20.7086 78.8233 20.6587 79.1488 20.6587ZM78.9519 24.43C79.2669 24.43 79.5372 24.3591 79.7629 24.2174C79.9886 24.0705 80.1566 23.8605 80.2668 23.5876V22.9105H78.9677C78.2591 22.9105 77.9048 23.1572 77.9048 23.6506C77.9048 23.892 77.9967 24.0836 78.1804 24.2253C78.3641 24.3618 78.6213 24.43 78.9519 24.43Z" fill="white"/>
<path d="M85.4947 20.6902V24.8315H84.9829V23.4616H83.5264L82.5658 24.8315H81.9596L82.991 23.3829C82.6708 23.2936 82.4241 23.1414 82.2509 22.9262C82.0777 22.711 81.9911 22.4381 81.9911 22.1074C81.9911 21.6455 82.1485 21.2938 82.4635 21.0524C82.7784 20.8109 83.2088 20.6902 83.7547 20.6902H85.4947ZM82.5579 22.1231C82.5579 22.7373 82.949 23.0443 83.7311 23.0443H84.9829V21.1862H83.7704C82.9621 21.1862 82.5579 21.4985 82.5579 22.1231Z" fill="white"/>
<path d="M90.8813 24.8709C90.4718 24.8709 90.1044 24.7817 89.779 24.6032C89.4588 24.4248 89.2069 24.1754 89.0232 23.8553C88.8395 23.5298 88.7476 23.165 88.7476 22.7609C88.7476 22.3567 88.8395 21.9946 89.0232 21.6744C89.2069 21.3542 89.4588 21.1049 89.779 20.9264C90.1044 20.748 90.4718 20.6587 90.8813 20.6587C91.2382 20.6587 91.5557 20.7296 91.8339 20.8713C92.1174 21.0078 92.3404 21.2099 92.5031 21.4775L92.0859 21.761C91.9494 21.5563 91.7762 21.4041 91.5662 21.3043C91.3563 21.1994 91.128 21.1469 90.8813 21.1469C90.5821 21.1469 90.3118 21.2151 90.0703 21.3516C89.8341 21.4828 89.6478 21.6718 89.5113 21.9184C89.3801 22.1651 89.3145 22.446 89.3145 22.7609C89.3145 23.0811 89.3801 23.3645 89.5113 23.6112C89.6478 23.8526 89.8341 24.0416 90.0703 24.1781C90.3118 24.3093 90.5821 24.3749 90.8813 24.3749C91.128 24.3749 91.3563 24.325 91.5662 24.2253C91.7762 24.1256 91.9494 23.9734 92.0859 23.7687L92.5031 24.0521C92.3404 24.3198 92.1174 24.5245 91.8339 24.6662C91.5505 24.8027 91.2329 24.8709 90.8813 24.8709Z" fill="white"/>
<path d="M96.4217 21.1862H94.855V24.8315H94.296V21.1862H92.7292V20.6902H96.4217V21.1862Z" fill="white"/>
<path d="M100.326 20.6902V24.8315H99.8144V23.4616H98.3579L97.3973 24.8315H96.7911L97.8225 23.3829C97.5023 23.2936 97.2556 23.1414 97.0824 22.9262C96.9092 22.711 96.8226 22.4381 96.8226 22.1074C96.8226 21.6455 96.9801 21.2938 97.295 21.0524C97.6099 20.8109 98.0403 20.6902 98.5862 20.6902H100.326ZM97.3895 22.1231C97.3895 22.7373 97.7805 23.0443 98.5626 23.0443H99.8144V21.1862H98.602C97.7936 21.1862 97.3895 21.4985 97.3895 22.1231Z" fill="white"/>
<path d="M105.55 22.9892H104.652V24.8315H104.093V22.9892H103.196L101.928 24.8315H101.259L102.747 22.6979L101.377 20.6902H101.983L103.196 22.5089H104.093V20.6902H104.652V22.5089H105.55L106.77 20.6902H107.376L106.006 22.7058L107.494 24.8315H106.825L105.55 22.9892Z" fill="white"/>
<path d="M109.929 22.9892H108.984V24.8315H108.425V20.6902H108.984V22.5089H109.936L111.393 20.6902H111.999L110.369 22.6979L112.117 24.8315H111.456L109.929 22.9892Z" fill="white"/>
<path d="M114.348 20.6587C114.888 20.6587 115.303 20.7952 115.592 21.0681C115.88 21.3358 116.025 21.7347 116.025 22.2649V24.8315H115.489V24.1859C115.363 24.4011 115.177 24.5691 114.93 24.6898C114.689 24.8105 114.4 24.8709 114.064 24.8709C113.602 24.8709 113.235 24.7607 112.962 24.5402C112.689 24.3198 112.553 24.0285 112.553 23.6663C112.553 23.3146 112.679 23.0312 112.931 22.816C113.188 22.6008 113.594 22.4932 114.151 22.4932H115.466V22.2412C115.466 21.8843 115.366 21.614 115.167 21.4303C114.967 21.2413 114.676 21.1469 114.293 21.1469C114.03 21.1469 113.778 21.1915 113.537 21.2807C113.295 21.3647 113.088 21.4828 112.915 21.635L112.663 21.2177C112.873 21.0393 113.125 20.9028 113.419 20.8083C113.713 20.7086 114.022 20.6587 114.348 20.6587ZM114.151 24.43C114.466 24.43 114.736 24.3591 114.962 24.2174C115.188 24.0705 115.355 23.8605 115.466 23.5876V22.9105H114.167C113.458 22.9105 113.104 23.1572 113.104 23.6506C113.104 23.892 113.196 24.0836 113.379 24.2253C113.563 24.3618 113.82 24.43 114.151 24.43Z" fill="white"/>
<path d="M123.29 20.6902V24.8315H122.731V21.1862H120.132V24.8315H119.573V20.6902H123.29Z" fill="white"/>
<path d="M126.587 24.8709C126.188 24.8709 125.829 24.7817 125.508 24.6032C125.188 24.4195 124.936 24.1676 124.753 23.8474C124.569 23.5272 124.477 23.165 124.477 22.7609C124.477 22.3567 124.569 21.9946 124.753 21.6744C124.936 21.3542 125.188 21.1049 125.508 20.9264C125.829 20.748 126.188 20.6587 126.587 20.6587C126.986 20.6587 127.346 20.748 127.666 20.9264C127.986 21.1049 128.235 21.3542 128.414 21.6744C128.597 21.9946 128.689 22.3567 128.689 22.7609C128.689 23.165 128.597 23.5272 128.414 23.8474C128.235 24.1676 127.986 24.4195 127.666 24.6032C127.346 24.7817 126.986 24.8709 126.587 24.8709ZM126.587 24.3749C126.881 24.3749 127.143 24.3093 127.374 24.1781C127.611 24.0416 127.794 23.85 127.926 23.6033C128.057 23.3566 128.122 23.0758 128.122 22.7609C128.122 22.446 128.057 22.1651 127.926 21.9184C127.794 21.6718 127.611 21.4828 127.374 21.3516C127.143 21.2151 126.881 21.1469 126.587 21.1469C126.293 21.1469 126.028 21.2151 125.792 21.3516C125.561 21.4828 125.377 21.6718 125.241 21.9184C125.11 22.1651 125.044 22.446 125.044 22.7609C125.044 23.0758 125.11 23.3566 125.241 23.6033C125.377 23.85 125.561 24.0416 125.792 24.1781C126.028 24.3093 126.293 24.3749 126.587 24.3749Z" fill="white"/>
<path d="M133.246 20.6902V24.8315H132.687V21.1862H130.703L130.648 22.2098C130.606 23.0706 130.506 23.7319 130.349 24.1938C130.192 24.6557 129.911 24.8867 129.507 24.8867C129.396 24.8867 129.262 24.8657 129.105 24.8237L129.144 24.3434C129.239 24.3644 129.304 24.3749 129.341 24.3749C129.556 24.3749 129.719 24.2752 129.829 24.0757C129.94 23.8763 130.013 23.6296 130.05 23.3356C130.087 23.0417 130.118 22.6533 130.144 22.1704L130.215 20.6902H133.246Z" fill="white"/>
<path d="M136.261 20.6587C136.801 20.6587 137.216 20.7952 137.504 21.0681C137.793 21.3358 137.938 21.7347 137.938 22.2649V24.8315H137.402V24.1859C137.276 24.4011 137.09 24.5691 136.843 24.6898C136.602 24.8105 136.313 24.8709 135.977 24.8709C135.515 24.8709 135.148 24.7607 134.875 24.5402C134.602 24.3198 134.465 24.0285 134.465 23.6663C134.465 23.3146 134.591 23.0312 134.843 22.816C135.101 22.6008 135.507 22.4932 136.064 22.4932H137.379V22.2412C137.379 21.8843 137.279 21.614 137.079 21.4303C136.88 21.2413 136.589 21.1469 136.205 21.1469C135.943 21.1469 135.691 21.1915 135.45 21.2807C135.208 21.3647 135.001 21.4828 134.828 21.635L134.576 21.2177C134.786 21.0393 135.038 20.9028 135.331 20.8083C135.625 20.7086 135.935 20.6587 136.261 20.6587ZM136.064 24.43C136.379 24.43 136.649 24.3591 136.875 24.2174C137.1 24.0705 137.268 23.8605 137.379 23.5876V22.9105H136.079C135.371 22.9105 135.017 23.1572 135.017 23.6506C135.017 23.892 135.108 24.0836 135.292 24.2253C135.476 24.3618 135.733 24.43 136.064 24.43Z" fill="white"/>
<path d="M47.0384 31.7745C47.6 31.9057 47.8808 32.2443 47.8808 32.7902C47.8808 33.1523 47.747 33.4305 47.4793 33.6247C47.2116 33.8189 46.8127 33.916 46.2826 33.916H44.4008V29.7747H46.2274C46.6998 29.7747 47.0699 29.8666 47.3376 30.0503C47.6053 30.234 47.7391 30.4964 47.7391 30.8376C47.7391 31.0633 47.6761 31.2575 47.5501 31.4202C47.4294 31.5777 47.2588 31.6958 47.0384 31.7745ZM44.9441 31.6171H46.1881C46.5083 31.6171 46.7523 31.5567 46.9203 31.436C47.0935 31.3153 47.1801 31.1394 47.1801 30.9085C47.1801 30.6775 47.0935 30.5043 46.9203 30.3888C46.7523 30.2734 46.5083 30.2156 46.1881 30.2156H44.9441V31.6171ZM46.2589 33.4751C46.6159 33.4751 46.8835 33.4174 47.062 33.3019C47.2405 33.1865 47.3297 33.0054 47.3297 32.7587C47.3297 32.512 47.2483 32.3309 47.0856 32.2154C46.9229 32.0947 46.6657 32.0343 46.314 32.0343H44.9441V33.4751H46.2589Z" fill="white"/>
<path d="M57.1092 28.4048V33.916H56.5502V29.507L54.385 33.2153H54.1095L51.9443 29.5307V33.916H51.3853V28.4048H51.8656L54.2591 32.491L56.6289 28.4048H57.1092Z" fill="white"/>
<path d="M60.5411 33.9554C60.1421 33.9554 59.7826 33.8662 59.4624 33.6877C59.1422 33.504 58.8903 33.2521 58.7066 32.9319C58.5229 32.6117 58.431 32.2495 58.431 31.8454C58.431 31.4412 58.5229 31.0791 58.7066 30.7589C58.8903 30.4387 59.1422 30.1894 59.4624 30.0109C59.7826 29.8325 60.1421 29.7432 60.5411 29.7432C60.94 29.7432 61.2995 29.8325 61.6197 30.0109C61.9399 30.1894 62.1892 30.4387 62.3676 30.7589C62.5514 31.0791 62.6432 31.4412 62.6432 31.8454C62.6432 32.2495 62.5514 32.6117 62.3676 32.9319C62.1892 33.2521 61.9399 33.504 61.6197 33.6877C61.2995 33.8662 60.94 33.9554 60.5411 33.9554ZM60.5411 33.4594C60.835 33.4594 61.0974 33.3938 61.3284 33.2626C61.5646 33.1261 61.7483 32.9345 61.8795 32.6878C62.0107 32.4411 62.0763 32.1603 62.0763 31.8454C62.0763 31.5305 62.0107 31.2496 61.8795 31.003C61.7483 30.7563 61.5646 30.5673 61.3284 30.4361C61.0974 30.2996 60.835 30.2314 60.5411 30.2314C60.2471 30.2314 59.982 30.2996 59.7459 30.4361C59.5149 30.5673 59.3312 30.7563 59.1947 31.003C59.0635 31.2496 58.9979 31.5305 58.9979 31.8454C58.9979 32.1603 59.0635 32.4411 59.1947 32.6878C59.3312 32.9345 59.5149 33.1261 59.7459 33.2626C59.982 33.3938 60.2471 33.4594 60.5411 33.4594Z" fill="white"/>
<path d="M65.57 33.9554C65.1606 33.9554 64.7932 33.8662 64.4678 33.6877C64.1476 33.5093 63.8956 33.2599 63.7119 32.9398C63.5282 32.6143 63.4364 32.2495 63.4364 31.8454C63.4364 31.4412 63.5282 31.0791 63.7119 30.7589C63.8956 30.4387 64.1476 30.1894 64.4678 30.0109C64.7932 29.8325 65.1606 29.7432 65.57 29.7432C65.9269 29.7432 66.2445 29.8141 66.5227 29.9558C66.8061 30.0923 67.0292 30.2944 67.1919 30.562L66.7746 30.8455C66.6382 30.6408 66.4649 30.4886 66.255 30.3888C66.045 30.2839 65.8167 30.2314 65.57 30.2314C65.2708 30.2314 65.0005 30.2996 64.7591 30.4361C64.5229 30.5673 64.3365 30.7563 64.2001 31.003C64.0689 31.2496 64.0032 31.5305 64.0032 31.8454C64.0032 32.1656 64.0689 32.449 64.2001 32.6957C64.3365 32.9371 64.5229 33.1261 64.7591 33.2626C65.0005 33.3938 65.2708 33.4594 65.57 33.4594C65.8167 33.4594 66.045 33.4095 66.255 33.3098C66.4649 33.2101 66.6382 33.0579 66.7746 32.8532L67.1919 33.1366C67.0292 33.4043 66.8061 33.609 66.5227 33.7507C66.2392 33.8872 65.9217 33.9554 65.57 33.9554Z" fill="white"/>
<path d="M69.7781 32.0737H68.8333V33.916H68.2743V29.7747H68.8333V31.5934H69.786L71.2425 29.7747H71.8487L70.219 31.7824L71.9668 33.916H71.3055L69.7781 32.0737Z" fill="white"/>
<path d="M75.4866 31.7745C76.0482 31.9057 76.329 32.2443 76.329 32.7902C76.329 33.1523 76.1952 33.4305 75.9275 33.6247C75.6598 33.8189 75.2609 33.916 74.7308 33.916H72.8491V29.7747H74.6757C75.1481 29.7747 75.5181 29.8666 75.7858 30.0503C76.0535 30.234 76.1873 30.4964 76.1873 30.8376C76.1873 31.0633 76.1243 31.2575 75.9984 31.4202C75.8776 31.5777 75.7071 31.6958 75.4866 31.7745ZM73.3923 31.6171H74.6363C74.9565 31.6171 75.2006 31.5567 75.3685 31.436C75.5417 31.3153 75.6283 31.1394 75.6283 30.9085C75.6283 30.6775 75.5417 30.5043 75.3685 30.3888C75.2006 30.2734 74.9565 30.2156 74.6363 30.2156H73.3923V31.6171ZM74.7072 33.4751C75.0641 33.4751 75.3318 33.4174 75.5102 33.3019C75.6887 33.1865 75.7779 33.0054 75.7779 32.7587C75.7779 32.512 75.6966 32.3309 75.5339 32.2154C75.3711 32.0947 75.1139 32.0343 74.7623 32.0343H73.3923V33.4751H74.7072Z" fill="white"/>
<path d="M81.2608 32.0186H77.7966C77.8281 32.449 77.9934 32.798 78.2926 33.0657C78.5918 33.3282 78.9697 33.4594 79.4264 33.4594C79.6836 33.4594 79.9198 33.4148 80.135 33.3256C80.3502 33.2311 80.5365 33.0946 80.694 32.9161L81.0089 33.2783C80.8252 33.4988 80.5942 33.6667 80.316 33.7822C80.0431 33.8977 79.7413 33.9554 79.4106 33.9554C78.9855 33.9554 78.6076 33.8662 78.2769 33.6877C77.9514 33.504 77.6969 33.2521 77.5132 32.9319C77.3295 32.6117 77.2376 32.2495 77.2376 31.8454C77.2376 31.4412 77.3242 31.0791 77.4974 30.7589C77.6759 30.4387 77.9173 30.1894 78.2218 30.0109C78.5314 29.8325 78.8779 29.7432 79.261 29.7432C79.6442 29.7432 79.988 29.8325 80.2924 30.0109C80.5969 30.1894 80.8357 30.4387 81.0089 30.7589C81.1821 31.0738 81.2687 31.436 81.2687 31.8454L81.2608 32.0186ZM79.261 30.2235C78.8621 30.2235 78.5262 30.3521 78.2533 30.6093C77.9856 30.8612 77.8334 31.1919 77.7966 31.6013H80.7333C80.6966 31.1919 80.5417 30.8612 80.2688 30.6093C80.0011 30.3521 79.6652 30.2235 79.261 30.2235Z" fill="white"/>
<path d="M84.5667 29.7747H85.1257V33.0657L87.8892 29.7747H88.3852V33.916H87.8262V30.625L85.0706 33.916H84.5667V29.7747Z" fill="white"/>
<path d="M93.7563 33.9554C93.3574 33.9554 92.9978 33.8662 92.6776 33.6877C92.3575 33.504 92.1055 33.2521 91.9218 32.9319C91.7381 32.6117 91.6463 32.2495 91.6463 31.8454C91.6463 31.4412 91.7381 31.0791 91.9218 30.7589C92.1055 30.4387 92.3575 30.1894 92.6776 30.0109C92.9978 29.8325 93.3574 29.7432 93.7563 29.7432C94.1552 29.7432 94.5147 29.8325 94.8349 30.0109C95.1551 30.1894 95.4044 30.4387 95.5829 30.7589C95.7666 31.0791 95.8584 31.4412 95.8584 31.8454C95.8584 32.2495 95.7666 32.6117 95.5829 32.9319C95.4044 33.2521 95.1551 33.504 94.8349 33.6877C94.5147 33.8662 94.1552 33.9554 93.7563 33.9554ZM93.7563 33.4594C94.0502 33.4594 94.3127 33.3938 94.5436 33.2626C94.7798 33.1261 94.9635 32.9345 95.0947 32.6878C95.226 32.4411 95.2916 32.1603 95.2916 31.8454C95.2916 31.5305 95.226 31.2496 95.0947 31.003C94.9635 30.7563 94.7798 30.5673 94.5436 30.4361C94.3127 30.2996 94.0502 30.2314 93.7563 30.2314C93.4623 30.2314 93.1973 30.2996 92.9611 30.4361C92.7301 30.5673 92.5464 30.7563 92.41 31.003C92.2787 31.2496 92.2131 31.5305 92.2131 31.8454C92.2131 32.1603 92.2787 32.4411 92.41 32.6878C92.5464 32.9345 92.7301 33.1261 92.9611 33.2626C93.1973 33.3938 93.4623 33.4594 93.7563 33.4594Z" fill="white"/>
<path d="M99.0608 29.8771C99.444 29.8771 99.7851 29.9637 100.084 30.1369C100.389 30.3049 100.625 30.5437 100.793 30.8534C100.961 31.1578 101.045 31.5068 101.045 31.9005C101.045 32.3047 100.956 32.6642 100.777 32.9791C100.604 33.2888 100.36 33.5303 100.045 33.7035C99.73 33.8767 99.3679 33.9633 98.9585 33.9633C98.2709 33.9633 97.7381 33.7218 97.3602 33.239C96.9823 32.7561 96.7933 32.0895 96.7933 31.2391C96.7933 30.3521 96.9613 29.6724 97.2972 29.2C97.6384 28.7276 98.1685 28.4074 98.8876 28.2394L100.746 27.8143L100.84 28.326L99.0923 28.7276C98.4992 28.8588 98.0635 29.0924 97.7854 29.4283C97.5072 29.759 97.3549 30.2497 97.3287 30.9006C97.4967 30.5804 97.7302 30.3311 98.0294 30.1526C98.3286 29.9689 98.6724 29.8771 99.0608 29.8771ZM98.9742 33.4988C99.2629 33.4988 99.5201 33.4332 99.7458 33.3019C99.9767 33.1655 100.155 32.9765 100.281 32.7351C100.412 32.4936 100.478 32.2207 100.478 31.9162C100.478 31.6118 100.415 31.3441 100.289 31.1132C100.163 30.8822 99.9846 30.7038 99.7537 30.5778C99.528 30.4466 99.2681 30.381 98.9742 30.381C98.6803 30.381 98.4178 30.4466 98.1869 30.5778C97.9612 30.7038 97.7827 30.8822 97.6515 31.1132C97.5255 31.3441 97.4625 31.6118 97.4625 31.9162C97.4625 32.2207 97.5255 32.4936 97.6515 32.7351C97.7827 32.9765 97.9638 33.1655 98.1948 33.3019C98.4257 33.4332 98.6855 33.4988 98.9742 33.4988Z" fill="white"/>
<path d="M105.605 29.7747V33.916H105.046V30.2707H103.062L103.007 31.2943C102.965 32.1551 102.866 32.8164 102.708 33.2783C102.551 33.7402 102.27 33.9712 101.866 33.9712C101.755 33.9712 101.622 33.9502 101.464 33.9082L101.503 33.4279C101.598 33.4489 101.664 33.4594 101.7 33.4594C101.916 33.4594 102.078 33.3597 102.188 33.1602C102.299 32.9608 102.372 32.7141 102.409 32.4201C102.446 32.1262 102.477 31.7378 102.503 31.2549L102.574 29.7747H105.605Z" fill="white"/>
<path d="M108.62 29.7432C109.16 29.7432 109.575 29.8797 109.864 30.1526C110.152 30.4203 110.297 30.8192 110.297 31.3494V33.916H109.761V33.2704C109.635 33.4856 109.449 33.6536 109.202 33.7743C108.961 33.8951 108.672 33.9554 108.336 33.9554C107.874 33.9554 107.507 33.8452 107.234 33.6247C106.961 33.4043 106.825 33.113 106.825 32.7508C106.825 32.3991 106.95 32.1157 107.202 31.9005C107.46 31.6853 107.866 31.5777 108.423 31.5777H109.738V31.3258C109.738 30.9688 109.638 30.6985 109.438 30.5148C109.239 30.3259 108.948 30.2314 108.564 30.2314C108.302 30.2314 108.05 30.276 107.809 30.3652C107.567 30.4492 107.36 30.5673 107.187 30.7195L106.935 30.3022C107.145 30.1238 107.397 29.9873 107.691 29.8928C107.984 29.7931 108.294 29.7432 108.62 29.7432ZM108.423 33.5145C108.738 33.5145 109.008 33.4437 109.234 33.3019C109.459 33.155 109.627 32.945 109.738 32.6721V31.995H108.439C107.73 31.995 107.376 32.2417 107.376 32.7351C107.376 32.9765 107.467 33.1681 107.651 33.3098C107.835 33.4463 108.092 33.5145 108.423 33.5145Z" fill="white"/>
<path d="M113.517 33.9554C113.107 33.9554 112.74 33.8662 112.415 33.6877C112.094 33.5093 111.842 33.2599 111.659 32.9398C111.475 32.6143 111.383 32.2495 111.383 31.8454C111.383 31.4412 111.475 31.0791 111.659 30.7589C111.842 30.4387 112.094 30.1894 112.415 30.0109C112.74 29.8325 113.107 29.7432 113.517 29.7432C113.874 29.7432 114.191 29.8141 114.469 29.9558C114.753 30.0923 114.976 30.2944 115.139 30.562L114.721 30.8455C114.585 30.6408 114.412 30.4886 114.202 30.3888C113.992 30.2839 113.764 30.2314 113.517 30.2314C113.218 30.2314 112.947 30.2996 112.706 30.4361C112.47 30.5673 112.283 30.7563 112.147 31.003C112.016 31.2496 111.95 31.5305 111.95 31.8454C111.95 32.1656 112.016 32.449 112.147 32.6957C112.283 32.9371 112.47 33.1261 112.706 33.2626C112.947 33.3938 113.218 33.4594 113.517 33.4594C113.764 33.4594 113.992 33.4095 114.202 33.3098C114.412 33.2101 114.585 33.0579 114.721 32.8532L115.139 33.1366C114.976 33.4043 114.753 33.609 114.469 33.7507C114.186 33.8872 113.868 33.9554 113.517 33.9554Z" fill="white"/>
<path d="M119.057 30.2707H117.491V33.916H116.932V30.2707H115.365V29.7747H119.057V30.2707Z" fill="white"/>
<path d="M119.866 29.7747H120.425V33.0657L123.188 29.7747H123.684V33.916H123.125V30.625L120.369 33.916H119.866V29.7747Z" fill="white"/>
<defs>
<linearGradient id="paint0_linear" x1="11.57" y1="20.8496" x2="11.57" y2="40.8427" gradientUnits="userSpaceOnUse">
<stop stop-color="#FF5B14"/>
<stop offset="1" stop-color="#FF7F47"/>
</linearGradient>
<clipPath id="clip0">
<rect width="38.7606" height="43" fill="white"/>
</clipPath>
</defs>
</svg>
