<svg width="64" height="71" viewBox="0 0 64 71" fill="none" xmlns="http://www.w3.org/2000/svg">
<path d="M30.9378 32.6928L2.74224 46.7836V17.7058L30.9378 3.615V32.6928ZM61.4933 46.7836L33.2978 32.6928V3.615L61.4933 17.7058V46.7836ZM33.2978 64.6748L61.4933 50.584V53.8294L33.2978 67.9193V64.6748ZM2.74132 50.584L30.9378 64.6748V67.9193L2.74224 53.8294L2.74132 50.584ZM12.7227 44.4192L13.4 44.7121L5.81331 49.4097L4.19466 48.6838L12.7227 44.4192ZM22.7155 39.4287L30.0729 43.1014L22.7155 46.7758L15.3591 43.1014L22.7155 39.4287ZM42.6942 46.7749L35.3378 43.1022L42.1075 39.7226L49.464 43.3952L42.6942 46.7749ZM53.272 52.0678L45.3271 48.097L52.0969 44.713L60.0409 48.6838L53.272 52.0678ZM43.2818 57.0583L35.3378 53.0875L42.6951 49.4097L50.6391 53.3804L43.2818 57.0583ZM25.3485 48.097L32.7049 44.4192L40.0622 48.097L32.7049 51.774L25.3485 48.097ZM32.1182 34.7312L39.4747 38.4091L32.7049 41.7931L25.3485 38.1153L32.1182 34.7312ZM0.473796 54.9674C0.504018 55.0348 0.54047 55.0986 0.582248 55.1589C0.617804 55.2255 0.66131 55.2884 0.70931 55.347C0.768865 55.4047 0.833783 55.4565 0.904894 55.5C0.94756 55.5381 31.592 70.8704 31.592 70.8704C31.9351 71.0328 32.3005 71.0327 32.6107 70.8782L63.1947 55.6053C63.3107 55.5272 63.4212 55.4412 63.5253 55.3478C63.6142 55.2271 63.6925 55.0996 63.7609 54.9674C63.7867 54.8866 63.8035 54.8029 63.8107 54.7186C63.8258 54.6645 63.8445 16.9795 63.8445 16.9795C63.8267 16.8401 63.7988 16.7023 63.7609 16.567C63.6926 16.4343 63.6138 16.3071 63.5253 16.1869C63.4658 16.1295 63.4002 16.0787 63.3298 16.0352C63.288 15.9962 32.6436 0.663887 32.6436 0.663887C32.3004 0.501474 31.9351 0.501641 31.6249 0.656953L1.04091 15.9291C0.9245 16.0073 0.81367 16.0932 0.70931 16.1869C0.660672 16.2455 0.618135 16.3092 0.582248 16.3763C0.54047 16.4357 0.503997 16.5004 0.474664 16.567C0.447997 16.6477 0.431991 16.7322 0.423991 16.8166C0.40888 16.8698 0.391113 54.5548 0.391113 54.5548C0.432002 54.8033 0.448886 54.8866 0.474664 54.9674H0.473796Z" fill="black"/>
<path d="M3.6001 48.6261L32.0445 34.4261L59.9423 48.6261L32.0445 62.8261L3.6001 48.6261Z" fill="#F1F1F1"/>
<path d="M3.6001 48.6261L32.0445 34.4261C32.0445 34.4261 18.9157 46.9878 32.0445 62.8261C45.1734 78.6645 3.6001 48.6261 3.6001 48.6261Z" fill="url(#paint0_linear)"/>
<defs>
<linearGradient id="paint0_linear" x1="19.1041" y1="34.4261" x2="19.1041" y2="67.438" gradientUnits="userSpaceOnUse">
<stop stop-color="#FF5B14"/>
<stop offset="1" stop-color="#FF7F47"/>
</linearGradient>
</defs>
</svg>
