<svg width="76" height="76" viewBox="0 0 76 76" fill="none" xmlns="http://www.w3.org/2000/svg">
<path d="M38 76C58.9868 76 76 58.9868 76 38C76 17.0132 58.9868 0 38 0C17.0132 0 0 17.0132 0 38C0 58.9868 17.0132 76 38 76Z" fill="#89E0F0"/>
<path d="M76 38C76 36.7726 75.9396 35.5595 75.8257 34.3619L56.4063 14.9736L11.4148 49.5418L18.794 56.9402C18.7873 56.9881 19.1156 60.3393 20.3137 61.7507L34.3611 75.8257C35.559 75.9394 36.7723 76 38 76C58.9868 76 76 58.9868 76 38Z" fill="#6ACEE0"/>
<path d="M42.715 11.3075C44.0242 13.9568 47.2585 15.0077 49.8749 13.634C53.732 11.6087 58.2381 14.8825 57.5038 19.1768C57.0058 22.0896 59.0047 24.8408 61.9289 25.2673C66.2398 25.8959 67.9609 31.1932 64.8428 34.2357C62.7278 36.2995 62.7278 39.7003 64.8428 41.7642C67.9609 44.8067 66.2398 50.104 61.9289 50.7326C59.0047 51.1591 57.0058 53.9104 57.5038 56.8232C58.238 61.1175 53.732 64.3913 49.8749 62.366C47.2585 60.9922 44.0242 62.0431 42.715 64.6924C40.7848 68.5981 35.2152 68.5981 33.285 64.6924C31.9758 62.0431 28.7415 60.9922 26.1252 62.366C22.268 64.3913 17.7619 61.1175 18.4962 56.8232C18.9942 53.9102 16.9954 51.159 14.0711 50.7326C9.76021 50.104 8.03908 44.8067 11.1572 41.7642C13.2722 39.7003 13.2722 36.2996 11.1572 34.2357C8.03908 31.1932 9.76021 25.8959 14.0711 25.2673C16.9954 24.8408 18.9942 22.0896 18.4962 19.1768C17.762 14.8825 22.268 11.6087 26.1252 13.634C28.7415 15.0077 31.9758 13.9568 33.285 11.3075C35.2152 7.40181 40.7848 7.40181 42.715 11.3075Z" fill="white"/>
<path d="M64.8434 41.7643C65.9374 42.8316 66.4347 44.1765 66.4347 45.499C66.4347 47.9483 64.7277 50.3247 61.9296 50.7329C59.3067 51.1144 57.429 53.3677 57.429 55.9297C57.429 56.2236 57.4527 56.5235 57.5047 56.8233C57.5581 57.1365 57.5834 57.4453 57.5834 57.7451C57.5834 61.5674 53.4494 64.2422 49.875 62.366C49.0942 61.9563 48.2585 61.7618 47.4347 61.7618C45.4991 61.7618 43.6332 62.8336 42.7144 64.692C41.7495 66.6454 39.8748 67.6207 38 67.6207V8.37927C39.8748 8.37927 41.7495 9.35451 42.7144 11.3079C44.0236 13.9561 47.2581 15.007 49.875 13.634C50.6795 13.2109 51.5123 13.0194 52.3198 13.0194C55.3835 13.0194 58.0851 15.7789 57.5047 19.1766C57.4527 19.4765 57.429 19.7763 57.429 20.0702C57.429 22.6322 59.3067 24.8855 61.9296 25.267C64.7277 25.6752 66.4347 28.0517 66.4347 30.5009C66.4347 31.8235 65.9374 33.1683 64.8434 34.2356C63.7866 35.2672 63.2566 36.6344 63.2566 38C63.2566 39.3656 63.7866 40.7327 64.8434 41.7643Z" fill="#FFF3DC"/>
<path d="M38 57.7089C48.8849 57.7089 57.7089 48.8849 57.7089 38C57.7089 27.115 48.8849 18.291 38 18.291C27.1151 18.291 18.2911 27.115 18.2911 38C18.2911 48.8849 27.1151 57.7089 38 57.7089Z" fill="#FFDD9B"/>
<path d="M57.7095 38C57.7095 48.8849 48.8849 57.7095 38 57.7095V18.2905C48.8849 18.2905 57.7095 27.1151 57.7095 38Z" fill="#FFDD9B"/>
<path d="M33.0946 45.8043L27.8001 41.588C25.7149 39.9275 25.3717 36.8904 27.0337 34.8064L27.0361 34.8034C28.6955 32.7226 31.7267 32.3788 33.8101 34.0352L36.5545 36.2173L42.1993 29.9308C43.9794 27.9484 47.0295 27.7844 49.0118 29.5645C50.9942 31.3445 51.1583 34.3946 49.3783 36.377L41.5472 45.0984C39.3604 47.5337 35.6548 47.8432 33.0946 45.8043Z" fill="white"/>
<path d="M50.6127 33.1549C50.6127 34.3038 50.2045 35.4557 49.3777 36.3775L41.5477 45.0982C40.5843 46.1714 39.3256 46.832 38 47.0605V34.6066L42.1993 29.9309C43.9791 27.9477 47.0295 27.7845 49.0111 29.5642C50.0724 30.5172 50.6127 31.8323 50.6127 33.1549Z" fill="#FFFCEE"/>
</svg>
