<svg width="48" height="48" viewBox="0 0 48 48" fill="none" xmlns="http://www.w3.org/2000/svg">
<path d="M24 48C37.2548 48 48 37.2548 48 24C48 10.7452 37.2548 0 24 0C10.7452 0 0 10.7452 0 24C0 37.2548 10.7452 48 24 48Z" fill="#89E0F0"/>
<path d="M35.1291 12.4614C32.2615 12.8244 29.2717 12.8118 26.2627 12.5253C22.0606 12.202 15.9192 10.2626 13.6566 14.1414C10.0217 20.3511 11.8145 28.301 12.6615 35.3363L25.2931 47.9651C37.517 47.3161 47.3137 37.5207 47.9648 25.2973L35.1291 12.4614Z" fill="#6ACEE0"/>
<path d="M29.5525 10.2626H18.4474C13.9343 10.2626 10.2626 13.9343 10.2626 18.4474V29.5525C10.2626 34.0655 13.9343 37.7374 18.4475 37.7374H29.5526C34.0656 37.7374 37.7375 34.0657 37.7375 29.5525V18.4474C37.7374 13.9343 34.0657 10.2626 29.5525 10.2626ZM34.9734 29.5526C34.9734 32.5464 32.5464 34.9734 29.5526 34.9734H18.4475C15.4537 34.9734 13.0267 32.5464 13.0267 29.5526V18.4475C13.0267 15.4537 15.4537 13.0266 18.4475 13.0266H29.5526C32.5464 13.0266 34.9734 15.4538 34.9734 18.4475V29.5526Z" fill="#FFF3DC"/>
<path d="M24 16.894C20.0818 16.894 16.894 20.0818 16.894 24C16.894 27.9179 20.0818 31.1058 24 31.1058C27.9182 31.1058 31.1058 27.9182 31.1058 24C31.1058 20.0818 27.9182 16.894 24 16.894ZM24 28.3419C21.602 28.3419 19.6579 26.3981 19.6579 24C19.6579 21.6019 21.602 19.6579 24 19.6579C26.398 19.6579 28.3419 21.6018 28.3419 24C28.3419 26.398 26.398 28.3419 24 28.3419Z" fill="#FFF3DC"/>
<path d="M32.8221 16.9476C32.8221 17.8879 32.0598 18.6503 31.1193 18.6503C30.179 18.6503 29.4166 17.8879 29.4166 16.9476C29.4166 16.0072 30.179 15.2448 31.1193 15.2448C32.0599 15.2448 32.8221 16.007 32.8221 16.9476Z" fill="#FFDD9B"/>
<path d="M29.5526 10.2626H23.9462V13.0266H29.5526C32.5464 13.0266 34.9734 15.4538 34.9734 18.4475V29.5526C34.9734 32.5464 32.5464 34.9734 29.5526 34.9734H23.9462V37.7374H29.5526C34.0655 37.7374 37.7374 34.0657 37.7374 29.5525V18.4474C37.7374 13.9343 34.0656 10.2626 29.5526 10.2626Z" fill="#FFDD9B"/>
<path d="M24 16.894C23.9819 16.894 23.9643 16.8953 23.9462 16.8953V19.6592C23.9641 19.659 23.9819 19.6579 24 19.6579C26.398 19.6579 28.3418 21.6018 28.3418 24C28.3418 26.398 26.3981 28.3419 24 28.3419C23.9819 28.3419 23.9641 28.3407 23.9462 28.3405V31.1045C23.9643 31.1047 23.9819 31.1058 24 31.1058C27.9182 31.1058 31.1058 27.9181 31.1058 24C31.1058 20.0818 27.9182 16.894 24 16.894Z" fill="#FFDD9B"/>
</svg>
