<svg width="76" height="76" viewBox="0 0 76 76" fill="none" xmlns="http://www.w3.org/2000/svg">
<path d="M38 76C58.9868 76 76 58.9868 76 38C76 17.0132 58.9868 0 38 0C17.0132 0 0 17.0132 0 38C0 58.9868 17.0132 76 38 76Z" fill="#89E0F0"/>
<path d="M76 38.0001C76 34.1952 75.4382 30.5221 74.3975 27.0561L68.7401 21.3987L7.25978 50.7152L14.0273 57.5196L13.3677 59.672L28.4981 74.8023C31.5351 75.5842 34.7189 76.0001 38 76.0001C58.9868 76.0001 76 58.9869 76 38.0001Z" fill="#6ACEE0"/>
<path d="M7.25978 21.3987V50.7151H13.3677V59.6719L27.9883 50.7151H68.7402V21.3987H7.25978Z" fill="white"/>
<path d="M38 21.3987H68.7399V50.7151H38V21.3987Z" fill="#FFF5CA"/>
<path d="M19.1251 28.451L21.9689 32.9449L27.1216 34.2608L23.7264 38.3542L24.0672 43.6614L19.1251 41.6971L14.1829 43.6614L14.5239 38.3542L11.1285 34.2608L16.2814 32.9449L19.1251 28.451Z" fill="#FFE767"/>
<path d="M38 28.4517L40.8438 32.9457L45.9966 34.2616L42.6013 38.3549L42.9421 43.6621L38 41.6978L33.0579 43.6621L33.3987 38.3549L30.0034 34.2616L35.1562 32.9457L38 28.4517Z" fill="#FFE767"/>
<path d="M42.6016 38.3547L42.9415 43.6614L38 41.6975V28.451L40.8441 32.9457L45.9963 34.2608L42.6016 38.3547Z" fill="#FFC100"/>
<path d="M56.8749 28.4517L59.7186 32.9457L64.8715 34.2616L61.4761 38.3549L61.8171 43.6621L56.8749 41.6978L51.9328 43.6621L52.2736 38.3549L48.8784 34.2616L54.0311 32.9457L56.8749 28.4517Z" fill="#FFE767"/>
<path d="M56.8749 28.4517L59.7186 32.9457L64.8715 34.2616L61.4761 38.3549L61.8171 43.6621L56.8749 41.6978L51.9328 43.6621L52.2736 38.3549L48.8784 34.2616L54.0311 32.9457L56.8749 28.4517Z" fill="#FFC100"/>
</svg>
