<svg width="76" height="76" viewBox="0 0 76 76" fill="none" xmlns="http://www.w3.org/2000/svg">
<path d="M38 76C58.9868 76 76 58.9868 76 38C76 17.0132 58.9868 0 38 0C17.0132 0 0 17.0132 0 38C0 58.9868 17.0132 76 38 76Z" fill="#89E0F0"/>
<path d="M76 38C76 37.89 75.9967 37.7807 75.9958 37.671L65.9138 27.6269C65.9138 27.6269 65.4375 27.1302 64.5391 26.8117L50.5225 12.6767L37.856 27.3946L34.7234 24.312L10.3494 56.906L28.1518 74.7086C31.293 75.5492 34.5937 76 38 76C58.9868 76 76 58.9868 76 38Z" fill="#6ACEE0"/>
<path d="M66.4892 37.0347C66.4892 35.781 65.9697 34.649 65.1352 33.8405C66.1717 33.026 66.8382 31.762 66.8382 30.3415C66.8382 27.8847 64.8466 25.893 62.3898 25.893H49.8259C49.8259 25.893 51.904 21.7706 51.9535 17.169C51.9918 13.608 50.0115 11.2995 48.3353 12.0317C47.2275 12.5158 45.8181 13.7673 44.3031 16.1507C41.4552 20.6316 37.7032 25.8933 37.7032 25.8933H26.3568V54.5834H61.3853C63.067 53.9486 64.2634 52.3248 64.2634 50.4209C64.2634 49.4255 63.9364 48.5065 63.3839 47.7654C64.9077 47.0596 65.9652 45.5176 65.9652 43.7277C65.9652 42.5128 65.4776 41.4121 64.6881 40.6092C65.7809 39.7987 66.4892 38.4996 66.4892 37.0347Z" fill="white"/>
<path d="M61.3859 54.5828C63.0667 53.9492 64.2642 52.3243 64.2642 50.4209C64.2642 49.4262 63.9362 48.5069 63.384 47.7652C64.9083 47.0595 65.9661 45.5172 65.9661 43.7281C65.9661 42.5124 65.4786 41.4125 64.6886 40.609H26.357V54.5834H61.3859V54.5828Z" fill="#FFF3DC"/>
<path d="M10.3494 24.312H34.7235V56.906H10.3494V24.312Z" fill="#FFA700"/>
<path d="M10.3491 40.6096H34.724V56.9065H10.3491V40.6096Z" fill="#FFDD9B"/>
</svg>
