<svg width="76" height="76" viewBox="0 0 76 76" fill="none" xmlns="http://www.w3.org/2000/svg">
<path d="M38 76C58.9868 76 76 58.9868 76 38C76 17.0132 58.9868 0 38 0C17.0132 0 0 17.0132 0 38C0 58.9868 17.0132 76 38 76Z" fill="#89E0F0"/>
<path d="M76 38C76 36.7726 75.9396 35.5595 75.8257 34.3619L56.4063 14.9736L11.4149 49.5418L18.794 56.9402C18.7873 56.9881 19.1156 60.3393 20.3137 61.7507L34.3611 75.8257C35.559 75.9394 36.7723 76 38 76C58.9868 76 76 58.9868 76 38Z" fill="#6ACEE0"/>
<path d="M42.715 11.3076C44.0242 13.9569 47.2585 15.0078 49.8748 13.634C53.732 11.6087 58.2381 14.8825 57.5038 19.1768C57.0058 22.0896 59.0046 24.8409 61.9289 25.2674C66.2398 25.896 67.9609 31.1933 64.8428 34.2358C62.7278 36.2995 62.7278 39.7004 64.8428 41.7643C67.9609 44.8068 66.2398 50.1041 61.9289 50.7327C59.0046 51.1592 57.0058 53.9105 57.5038 56.8232C58.238 61.1175 53.732 64.3913 49.8748 62.3661C47.2585 60.9923 44.0242 62.0432 42.715 64.6925C40.7848 68.5982 35.2152 68.5982 33.285 64.6925C31.9758 62.0432 28.7415 60.9923 26.1251 62.3661C22.268 64.3913 17.7619 61.1175 18.4962 56.8232C18.9942 53.9103 16.9953 51.159 14.0711 50.7327C9.7602 50.1041 8.03907 44.8068 11.1571 41.7643C13.2722 39.7004 13.2722 36.2997 11.1571 34.2358C8.03907 31.1933 9.7602 25.896 14.0711 25.2674C16.9953 24.8409 18.9942 22.0896 18.4962 19.1768C17.762 14.8825 22.268 11.6087 26.1251 13.634C28.7415 15.0078 31.9758 13.9569 33.285 11.3076C35.2152 7.40187 40.7848 7.40187 42.715 11.3076Z" fill="#FFDD9B"/>
<path d="M64.8434 41.7644C65.9374 42.8317 66.4347 44.1765 66.4347 45.4991C66.4347 47.9483 64.7277 50.3248 61.9296 50.733C59.3067 51.1145 57.429 53.3678 57.429 55.9298C57.429 56.2237 57.4527 56.5236 57.5047 56.8234C57.5581 57.1366 57.5834 57.4453 57.5834 57.7452C57.5834 61.5675 53.4494 64.2423 49.875 62.3661C49.0942 61.9564 48.2585 61.7619 47.4347 61.7619C45.4991 61.7619 43.6332 62.8336 42.7144 64.6921C41.7495 66.6455 39.8748 67.6207 38 67.6207V8.37933C39.8748 8.37933 41.7495 9.35457 42.7144 11.308C44.0236 13.9561 47.258 15.0071 49.875 13.634C50.6795 13.211 51.5123 13.0195 52.3198 13.0195C55.3835 13.0195 58.0851 15.7789 57.5047 19.1767C57.4527 19.4765 57.429 19.7764 57.429 20.0703C57.429 22.6323 59.3067 24.8856 61.9296 25.2671C64.7277 25.6753 66.4347 28.0518 66.4347 30.501C66.4347 31.8236 65.9374 33.1684 64.8434 34.2357C63.7866 35.2673 63.2566 36.6344 63.2566 38C63.2566 39.3657 63.7866 40.7328 64.8434 41.7644Z" fill="#FFDD9B"/>
<path d="M38 57.7089C48.8849 57.7089 57.7089 48.885 57.7089 38C57.7089 27.1151 48.8849 18.2911 38 18.2911C27.115 18.2911 18.291 27.1151 18.291 38C18.291 48.885 27.115 57.7089 38 57.7089Z" fill="#FFF3DC"/>
<path d="M57.7095 38.0001C57.7095 48.885 48.8849 57.7096 38 57.7096V18.2905C48.8849 18.2905 57.7095 27.1151 57.7095 38.0001Z" fill="#FFF3DC"/>
<path d="M32.0631 49.3851L42.1778 25.2874L44.2307 26.1491L34.116 50.2468L32.0631 49.3851Z" fill="#FFA700"/>
<path d="M44.2329 26.1444L38 40.9956V35.2421L42.18 25.282L44.2329 26.1444Z" fill="#FFA700"/>
<path d="M31.752 36.3272C28.8839 36.3272 26.5504 33.6966 26.5504 30.4631C26.5504 27.2297 28.8839 24.5991 31.752 24.5991C34.6201 24.5991 36.9535 27.2297 36.9535 30.4631C36.9535 33.6966 34.6201 36.3272 31.752 36.3272ZM31.752 26.8258C30.1116 26.8258 28.777 28.4576 28.777 30.4633C28.777 32.469 30.1116 34.1008 31.752 34.1008C33.3924 34.1008 34.727 32.469 34.727 30.4633C34.727 28.4576 33.3925 26.8258 31.752 26.8258Z" fill="#FFA700"/>
<path d="M44.2481 51.4008C41.38 51.4008 39.0465 48.7702 39.0465 45.5368C39.0465 42.3033 41.38 39.6727 44.2481 39.6727C47.1162 39.6727 49.4496 42.3033 49.4496 45.5368C49.4496 48.7703 47.1162 51.4008 44.2481 51.4008ZM44.2481 41.8994C42.6077 41.8994 41.2731 43.5312 41.2731 45.5369C41.2731 47.5426 42.6077 49.1744 44.2481 49.1744C45.8885 49.1744 47.2231 47.5426 47.2231 45.5369C47.2231 43.5312 45.8885 41.8994 44.2481 41.8994Z" fill="#FFA700"/>
</svg>
