<svg width="48" height="48" viewBox="0 0 48 48" fill="none" xmlns="http://www.w3.org/2000/svg">
<path d="M24 48C37.2548 48 48 37.2548 48 24C48 10.7452 37.2548 0 24 0C10.7452 0 0 10.7452 0 24C0 37.2548 10.7452 48 24 48Z" fill="#89E0F0"/>
<path d="M47.9929 23.4447L37.339 12.8086L19.9852 33.9614L32.4805 46.4568C41.5497 43.0301 48 34.2689 48 24C48 23.8143 47.9971 23.6292 47.9929 23.4447Z" fill="#6ACEE0"/>
<path d="M35.9735 12.5175C36.9303 12.1442 37.9194 12.9814 37.7093 13.9866L33.4183 34.4973C33.2179 35.4589 32.0882 35.892 31.2963 35.3102L24.8187 30.5555L21.517 33.9268C20.9367 34.5184 19.9363 34.2775 19.6874 33.4888L17.3052 25.9267L10.9197 24.0407C10.081 23.7934 10.0325 22.6266 10.8454 22.3082L35.9735 12.5175ZM32.8236 17.0686C33.1031 16.8213 32.7783 16.385 32.4615 16.5821L18.6789 25.13C18.4364 25.2802 18.325 25.576 18.4106 25.8491L20.2901 34.1029C20.3274 34.229 20.5083 34.2112 20.5245 34.0803L20.9447 27.7902C20.9608 27.6351 21.0352 27.4928 21.1516 27.3894L32.8236 17.0686Z" fill="#FFF3DC"/>
<path d="M32.4616 16.5821C32.7784 16.385 33.1032 16.8213 32.8237 17.0686L21.1518 27.3894C21.0354 27.4928 20.9611 27.6351 20.9449 27.7902L20.5247 34.0803C20.5086 34.2111 20.3275 34.229 20.2903 34.1029L18.4107 25.8491C18.325 25.576 18.4366 25.2802 18.679 25.13L32.4616 16.5821Z" fill="#C4D4E3"/>
<path d="M20.3582 34.1886C20.0543 34.0803 19.7974 33.8379 19.6875 33.4887L17.3053 25.9267L10.9198 24.0406C10.081 23.7933 10.0326 22.6265 10.8455 22.3081L35.9735 12.5175C36.5908 12.2767 37.2228 12.5401 37.5347 13.0283C37.4765 12.9394 37.407 12.857 37.3295 12.7842L20.2821 26.701V27.3102L20.1884 27.2424L20.2821 31.0792V34.1563C20.3064 34.1677 20.3322 34.1773 20.3581 34.1854V34.1886H20.3582Z" fill="#FFF3DC"/>
<path d="M37.7367 13.6423C37.7416 13.7522 37.7335 13.8685 37.7092 13.9866L33.4183 34.4973C33.2179 35.4589 32.0882 35.892 31.2963 35.3102L24.8187 30.5555L20.2822 27.3102V26.7009L37.3295 12.7841C37.407 12.8569 37.4766 12.9393 37.5347 13.0281C37.546 13.0476 37.5573 13.0653 37.5686 13.0831C37.5783 13.1025 37.5896 13.1219 37.5994 13.1396C37.609 13.159 37.6188 13.1784 37.6268 13.1978C37.6365 13.2188 37.6447 13.2382 37.6527 13.2592C37.6592 13.2771 37.6672 13.2964 37.6737 13.3175C37.6947 13.3805 37.7108 13.4452 37.7222 13.513C37.7287 13.555 37.7335 13.5971 37.7367 13.6423Z" fill="#FFDD9B"/>
<path d="M24.8188 30.5555L21.517 33.9268C21.4895 33.9543 21.4604 33.9817 21.4313 34.006C21.4022 34.0303 21.3731 34.0513 21.3424 34.0723C21.3408 34.0739 21.3408 34.0739 21.3408 34.0739C21.2794 34.1143 21.2164 34.1482 21.1501 34.1757C21.1162 34.1886 21.0839 34.2016 21.0499 34.2096C20.9093 34.2516 20.7655 34.263 20.6233 34.2485C20.5861 34.2453 20.5489 34.2388 20.5134 34.2323C20.5085 34.2323 20.5037 34.2307 20.4989 34.2291C20.4633 34.2195 20.4277 34.2097 20.3922 34.1984C20.3808 34.1952 20.3696 34.1919 20.3582 34.1855L20.2823 31.0792V27.3103L24.8188 30.5555Z" fill="#FFDD9B"/>
<path d="M21.4313 34.0059C21.4022 34.0302 21.373 34.0528 21.3424 34.0738V34.0722C21.3731 34.0512 21.4022 34.0302 21.4313 34.0059Z" fill="#DADDE0"/>
<path d="M21.343 34.0722V34.0744C21.343 34.0744 21.343 34.0722 21.3408 34.0744C21.3408 34.0744 21.3408 34.0744 21.343 34.0722Z" fill="#DADDE0"/>
<path d="M21.1501 34.1757C21.2164 34.1482 21.2794 34.1143 21.3408 34.0739C21.2794 34.1142 21.2147 34.1481 21.1501 34.1757Z" fill="#DADDE0"/>
<path d="M20.6232 34.2483C20.7654 34.2629 20.9093 34.2515 21.0499 34.2095C20.9481 34.2419 20.843 34.2564 20.738 34.2564C20.7056 34.2564 20.6733 34.2548 20.6426 34.2515C20.6362 34.2516 20.6297 34.2516 20.6232 34.2483Z" fill="#DADDE0"/>
<path d="M20.738 34.2564C20.7056 34.2564 20.6733 34.2548 20.6426 34.2516C20.6733 34.2548 20.7056 34.2564 20.738 34.2564Z" fill="#FFF3DC"/>
<path d="M20.6232 34.2484C20.6297 34.2516 20.6362 34.2516 20.6427 34.2516C20.6087 34.25 20.578 34.2451 20.5457 34.2386C20.5715 34.2436 20.5974 34.2468 20.6232 34.2484Z" fill="#FFF3DC"/>
<path d="M20.6232 34.2484C20.5974 34.2468 20.5715 34.2435 20.5457 34.2387C20.5344 34.2371 20.5231 34.2355 20.5134 34.2322C20.5489 34.2387 20.586 34.2452 20.6232 34.2484Z" fill="#DADDE0"/>
<path d="M20.3922 34.1983C20.4277 34.2096 20.4633 34.2193 20.4988 34.229C20.4843 34.2259 20.4698 34.2226 20.4552 34.2194C20.4488 34.2178 20.4423 34.2162 20.4374 34.2129C20.4228 34.2096 20.4067 34.2048 20.3922 34.1983Z" fill="#DADDE0"/>
<path d="M20.4551 34.2193C20.4696 34.2225 20.4842 34.2258 20.4987 34.229C20.4842 34.2274 20.4696 34.2242 20.4551 34.2193Z" fill="#FFF3DC"/>
<path d="M20.3921 34.1983C20.4066 34.2048 20.4228 34.2097 20.4374 34.2128C20.4131 34.208 20.3889 34.1999 20.3646 34.1902C20.3743 34.1934 20.3823 34.1967 20.3921 34.1983Z" fill="#FFF3DC"/>
<path d="M20.3922 34.1983C20.3825 34.1967 20.3743 34.1935 20.3647 34.1903C20.3631 34.1919 20.3598 34.1903 20.3582 34.1887V34.1855C20.3695 34.1919 20.3808 34.195 20.3922 34.1983Z" fill="#DADDE0"/>
<path d="M20.2822 31.0792L20.3581 34.1854C20.3322 34.1773 20.3064 34.1676 20.2822 34.1563V31.0792Z" fill="#FFDD9B"/>
<path d="M20.2822 27.3102V31.0792L20.1884 27.2423L20.2822 27.3102Z" fill="#DADDE0"/>
<path d="M32.8235 17.0686L21.1517 27.3894C21.0353 27.4928 20.961 27.6351 20.9448 27.7902L20.5253 34.0808C20.5092 34.2117 20.3282 34.2295 20.2893 34.1034L18.4106 25.8492C18.3249 25.5761 18.4365 25.2803 18.6789 25.1301L32.4616 16.5822C32.7784 16.385 33.1032 16.8214 32.8235 17.0686Z" fill="#FEFEFD"/>
</svg>
