<svg width="48" height="48" viewBox="0 0 48 48" fill="none" xmlns="http://www.w3.org/2000/svg">
<path d="M24 48C37.2548 48 48 37.2548 48 24C48 10.7452 37.2548 0 24 0C10.7452 0 0 10.7452 0 24C0 37.2548 10.7452 48 24 48Z" fill="#89E0F0"/>
<path d="M34.412 13.1665C28.5702 11.7556 22.7181 10.1052 16.7272 12.202C12.8484 13.6566 12.8484 17.8586 13.0101 21.4142C13.0101 22.3838 11.8788 23.6768 12.3636 24.8081C13.3332 28.0404 14.1413 31.2728 17.5353 32.8889C18.0202 33.2122 17.5353 33.8586 17.8585 34.3434C17.6969 34.3434 17.3737 34.5051 17.3737 34.6667C17.3737 35.4414 17.7213 36.6263 17.4904 37.3901L27.8034 47.6989C38.4056 46.0104 46.692 37.38 47.8579 26.6125L34.412 13.1665Z" fill="#6ACEE0"/>
<path d="M36.6962 16.8679L36.6884 16.8362C36.0471 14.2437 33.1561 11.462 30.5011 10.8832L30.4712 10.8771C26.1768 10.0579 21.8226 10.0579 17.5293 10.8771L17.4984 10.8832C14.8443 11.462 11.9532 14.2439 11.3111 16.8362L11.304 16.8679C10.5112 20.4882 10.5112 24.1598 11.304 27.7802L11.3111 27.8119C11.9259 30.2936 14.6016 32.9477 17.1575 33.6775V36.5714C17.1575 37.6189 18.4339 38.1333 19.1598 37.3774L22.0918 34.3296C22.7278 34.3652 23.3641 34.3851 24.0002 34.3851C26.1618 34.3851 28.3244 34.1806 30.4711 33.7711L30.501 33.7649C33.156 33.1862 36.047 30.4042 36.6883 27.812L36.6961 27.7803C37.4889 24.1598 37.4889 20.4884 36.6962 16.8679ZM34.3758 27.2553C33.9477 28.9466 31.7526 31.0492 30.0085 31.4377C27.7252 31.872 25.4237 32.0575 23.1246 31.9939C23.0789 31.9926 23.0349 32.0104 23.0031 32.0432C22.6768 32.3781 20.8623 34.2409 20.8623 34.2409L18.5853 36.5779C18.4188 36.7515 18.1263 36.6333 18.1263 36.3937V31.5997C18.1263 31.5205 18.0698 31.4533 17.992 31.4379C17.9915 31.4377 17.9912 31.4377 17.9907 31.4376C16.2466 31.0491 14.0523 28.9465 13.6233 27.2552C12.9098 23.9827 12.9098 20.6653 13.6233 17.3929C14.0523 15.7015 16.2466 13.5989 17.9907 13.2104C21.9784 12.452 26.0217 12.452 30.0086 13.2104C31.7536 13.5989 33.9478 15.7015 34.3759 17.3929C35.0902 20.6654 35.0902 23.9828 34.3758 27.2553Z" fill="#FFF3DC"/>
<path d="M27.794 29.4681C27.5259 29.3867 27.2705 29.332 27.033 29.2337C24.5738 28.2134 22.3107 26.8971 20.5181 24.8795C19.4987 23.7322 18.7008 22.4369 18.0263 21.0661C17.7064 20.416 17.4369 19.7405 17.1621 19.0693C16.9116 18.4573 17.2806 17.825 17.6691 17.3638C18.0337 16.931 18.5029 16.5998 19.0111 16.3556C19.4076 16.1651 19.7988 16.275 20.0884 16.6111C20.7145 17.3378 21.2898 18.1017 21.7553 18.9441C22.0417 19.4623 21.9632 20.0957 21.4441 20.4483C21.3179 20.534 21.203 20.6346 21.0855 20.7314C20.9824 20.8162 20.8854 20.9019 20.8147 21.0168C20.6856 21.2269 20.6794 21.4748 20.7625 21.7033C21.4025 23.4621 22.4813 24.83 24.2518 25.5667C24.5351 25.6846 24.8195 25.8217 25.146 25.7838C25.6925 25.7199 25.8695 25.1203 26.2526 24.8071C26.627 24.501 27.1055 24.497 27.5087 24.7521C27.9121 25.0075 28.303 25.2815 28.6917 25.5585C29.0733 25.8304 29.4531 26.0961 29.8049 26.4062C30.1433 26.7042 30.2599 27.0951 30.0693 27.4995C29.7205 28.2402 29.2129 28.8562 28.4808 29.2496C28.2741 29.3604 28.0271 29.3963 27.794 29.4681C27.5259 29.3867 28.0271 29.3963 27.794 29.4681Z" fill="#FFF3DC"/>
<path d="M24.0066 15.5087C27.2231 15.5989 29.8651 17.7335 30.4312 20.9135C30.5277 21.4553 30.562 22.0092 30.6049 22.5592C30.623 22.7905 30.492 23.0103 30.2424 23.0134C29.9846 23.0165 29.8686 22.8007 29.8518 22.5696C29.8187 22.1119 29.7957 21.652 29.7326 21.1983C29.3997 18.8021 27.4891 16.8198 25.1041 16.3944C24.7451 16.3304 24.378 16.3136 24.0143 16.2755C23.7845 16.2514 23.4836 16.2375 23.4327 15.9517C23.39 15.7122 23.5922 15.5215 23.8203 15.5093C23.882 15.5056 23.9444 15.5085 24.0066 15.5087C27.2233 15.5989 23.9444 15.5085 24.0066 15.5087Z" fill="#FFF3DC"/>
<path d="M28.8949 21.8455C28.8895 21.8857 28.8868 21.9801 28.8632 22.069C28.7779 22.3919 28.2881 22.4323 28.1755 22.1065C28.1421 22.0099 28.1371 21.8998 28.1369 21.7957C28.1358 21.1146 27.9877 20.4339 27.6441 19.8411C27.291 19.2319 26.7514 18.7199 26.1186 18.4099C25.736 18.2225 25.3222 18.106 24.9028 18.0367C24.7195 18.0064 24.5343 17.9881 24.3501 17.9624C24.1268 17.9314 24.0076 17.7891 24.0183 17.5692C24.0281 17.3631 24.1788 17.2147 24.4034 17.2276C25.1415 17.2694 25.8546 17.4291 26.5109 17.7766C27.8453 18.4834 28.6077 19.5988 28.8303 21.0884C28.8403 21.156 28.8564 21.2227 28.8616 21.2904C28.8741 21.4575 28.8821 21.6248 28.8949 21.8455C28.8895 21.8856 28.8821 21.6248 28.8949 21.8455Z" fill="#FFF3DC"/>
<path d="M26.8942 21.7676C26.6252 21.7725 26.4812 21.6234 26.4533 21.3769C26.4341 21.2049 26.4187 21.0306 26.3777 20.8631C26.2969 20.5334 26.1216 20.228 25.8443 20.0259C25.7135 19.9306 25.565 19.8611 25.4097 19.8161C25.2124 19.759 25.0072 19.7748 24.8105 19.7266C24.5966 19.6742 24.4783 19.5009 24.512 19.3004C24.5425 19.1178 24.7201 18.9753 24.9197 18.9898C26.1667 19.0798 27.058 19.7245 27.1852 21.1927C27.1943 21.2963 27.2048 21.4057 27.1819 21.5049C27.1423 21.6743 27.0167 21.7594 26.8942 21.7676C26.6251 21.7724 27.0167 21.7594 26.8942 21.7676Z" fill="#FFF3DC"/>
<path d="M36.6963 16.8679L36.6884 16.8362C36.329 15.383 35.2623 13.8704 33.9267 12.7195L32.1212 14.3197C33.1948 15.1751 34.1147 16.3602 34.3761 17.3928C35.0904 20.6653 35.0904 23.9827 34.3761 27.2553C33.9479 28.9466 31.7528 31.0493 30.0087 31.4378C27.7254 31.872 25.424 32.0576 23.1248 31.9939C23.0791 31.9926 23.0351 32.0104 23.0033 32.0432C22.677 32.3781 20.8626 34.2409 20.8626 34.2409L18.5856 36.5779C18.4191 36.7515 18.1266 36.6335 18.1266 36.3938V31.5998C18.1266 31.5205 18.07 31.4533 17.9922 31.438C17.9918 31.438 17.9914 31.4378 17.9909 31.4378C16.9997 31.217 15.8635 30.4423 14.9883 29.5045L13.2042 31.0855C14.3184 32.2976 15.7555 33.2774 17.1575 33.6777V36.5716C17.1575 37.6191 18.4339 38.1335 19.1597 37.3776L22.0917 34.3299C22.7277 34.3654 23.3638 34.3853 24.0001 34.3853C26.1617 34.3853 28.3243 34.1808 30.471 33.7713L30.5009 33.7652C33.1559 33.1865 36.047 30.4047 36.6882 27.8123L36.6961 27.7806C37.4889 24.1599 37.4889 20.4884 36.6963 16.8679Z" fill="#FFDD9B"/>
<path d="M27.7941 29.4681C28.0271 29.3963 27.5259 29.3867 27.7941 29.4681V29.4681Z" fill="#FFF3DC"/>
<path d="M29.8051 26.406C29.4532 26.0962 29.0733 25.8302 28.6919 25.5583C28.3032 25.2813 27.9123 25.0073 27.5089 24.752C27.1056 24.4968 26.6272 24.5008 26.2528 24.8069C25.8697 25.1201 25.6928 25.7198 25.1462 25.7836C24.8198 25.8216 24.5353 25.6843 24.252 25.5666C23.1627 25.1134 22.3362 24.4204 21.7115 23.5454L20.384 24.722C20.4291 24.7742 20.4722 24.8278 20.518 24.8794C22.3107 26.897 24.5739 28.2132 27.0329 29.2335C27.2702 29.3319 27.5258 29.3867 27.7939 29.468C27.5258 29.3865 28.0272 29.3963 27.7939 29.468C28.0272 29.3963 28.2739 29.3602 28.4808 29.2493C29.2131 28.856 29.7206 28.2398 30.0693 27.4992C30.26 27.095 30.1435 26.704 29.8051 26.406Z" fill="#FFDD9B"/>
<path d="M24.0155 15.5091C24.0126 15.5091 24.0098 15.5088 24.0069 15.5088C24.0041 15.5086 24.0077 15.5088 24.0155 15.5091Z" fill="#FFF3DC"/>
<path d="M24.007 15.5087C24.0097 15.5087 24.0124 15.509 24.0151 15.509C24.1936 15.5154 27.0968 15.5953 24.007 15.5087Z" fill="#FFF3DC"/>
<path d="M28.6204 17.4222L28.0545 17.9239C28.9439 18.7892 29.5572 19.936 29.7325 21.1981C29.7955 21.652 29.8187 22.1117 29.8518 22.5694C29.8685 22.8007 29.9844 23.0164 30.2424 23.0134C30.4921 23.0103 30.623 22.7906 30.6049 22.5592C30.5619 22.0093 30.5277 21.4552 30.4312 20.9135C30.1834 19.5215 29.5378 18.3298 28.6204 17.4222Z" fill="#FFDD9B"/>
<path d="M28.8301 21.088C28.668 20.0026 28.2177 19.1168 27.4698 18.442L26.9054 18.9422C27.1972 19.2012 27.4497 19.5054 27.6441 19.841C27.9877 20.4337 28.1358 21.1144 28.1369 21.7955C28.1371 21.8996 28.1421 22.0097 28.1755 22.1065C28.2883 22.4325 28.7779 22.3921 28.8632 22.069C28.8868 21.98 28.8895 21.8855 28.8949 21.8455C28.8895 21.8857 28.8819 21.6249 28.8949 21.8455C28.8819 21.6249 28.8741 21.4575 28.8614 21.2902C28.8564 21.2223 28.8402 21.1555 28.8301 21.088Z" fill="#FFDD9B"/>
<path d="M28.8949 21.8455C28.8821 21.6248 28.8896 21.8855 28.8949 21.8455V21.8455Z" fill="#FFF3DC"/>
<path d="M26.8943 21.7676C26.8985 21.7673 26.9025 21.7652 26.9065 21.7647C26.8952 21.7647 26.8778 21.765 26.8599 21.7656C26.8715 21.7659 26.8821 21.7677 26.8943 21.7676Z" fill="#FFF3DC"/>
<path d="M26.8943 21.7682C26.8822 21.7684 26.8715 21.7666 26.8599 21.7663C26.8016 21.7679 26.7415 21.771 26.8943 21.7682Z" fill="#FFF3DC"/>
<path d="M26.9065 21.7647C26.9023 21.7652 26.8983 21.7673 26.8943 21.7676C26.9257 21.7655 26.923 21.7647 26.9065 21.7647Z" fill="#FFF3DC"/>
<path d="M26.3263 19.4555L25.7518 19.9647C25.7835 19.9839 25.8145 20.004 25.8446 20.0258C26.122 20.2279 26.2972 20.5333 26.378 20.863C26.4191 21.0305 26.4342 21.2047 26.4536 21.3768C26.4802 21.6124 26.614 21.7572 26.8601 21.7657C26.8781 21.7652 26.8957 21.7648 26.9068 21.7647C27.0253 21.7516 27.1441 21.6685 27.1821 21.5047C27.2051 21.4056 27.1946 21.296 27.1855 21.1924C27.114 20.3716 26.8037 19.8084 26.3263 19.4555Z" fill="#FFDD9B"/>
</svg>
