<svg width="110" height="69" viewBox="0 0 110 69" fill="none" xmlns="http://www.w3.org/2000/svg">
<path d="M1.5 53.2934V17.965L55 1.56886L108.5 17.965V53.2934L55 67.4484L1.5 53.2934Z" stroke="#FC832C" stroke-width="3"/>
<path d="M50.1213 15.1131C50.044 15.1527 49.9575 15.1737 49.8677 15.1737C49.6849 15.1737 49.5157 15.0868 49.4099 14.9331C49.101 14.4846 49.62 13.9088 50.1234 14.1691C50.2129 14.2153 50.3232 14.1965 50.3948 14.1268C50.5054 14.019 50.4801 13.8359 50.342 13.7646C50.1975 13.6901 50.0357 13.6506 49.8677 13.6506C49.3384 13.6506 48.9193 14.0408 48.8599 14.5153C48.8211 14.8256 48.9276 15.1243 49.1495 15.3406C49.3413 15.5276 49.5964 15.6306 49.8677 15.6306C50.0357 15.6306 50.1975 15.5911 50.3419 15.5166C50.4801 15.4453 50.5053 15.2621 50.3948 15.1544C50.3226 15.084 50.2117 15.0669 50.1213 15.1131Z" fill="#FC832C"/>
<path d="M60.1802 13.6506C60.0122 13.6506 59.8504 13.6901 59.706 13.7646C59.5678 13.8359 59.5426 14.019 59.6531 14.1268C59.7253 14.1972 59.8361 14.2143 59.9266 14.168C60.0039 14.1285 60.0904 14.1075 60.1802 14.1075C60.4539 14.1075 60.6725 14.3024 60.7173 14.5381C60.776 14.8459 60.5634 15.1097 60.2943 15.1625C60.1636 15.1882 60.0346 15.169 59.9245 15.1121C59.8351 15.0659 59.7247 15.0847 59.6531 15.1544C59.5406 15.2641 59.5709 15.4481 59.7121 15.5197C59.8917 15.6109 60.0978 15.6481 60.309 15.6229C60.4883 15.6016 60.6595 15.5324 60.8017 15.424C61.0544 15.2313 61.1958 14.9466 61.1958 14.6406C61.1958 14.0934 60.7416 13.6506 60.1802 13.6506Z" fill="#FC832C"/>
<path d="M58.6401 9.6184C57.6706 9.27187 56.3863 9.08099 55.0239 9.08099C53.6615 9.08099 52.3773 9.27187 51.4077 9.6184C50.3642 9.9914 49.7896 10.5163 49.7896 11.0966C49.7896 11.2655 49.8389 11.5141 49.9363 11.8355C49.973 11.9565 50.1034 12.0257 50.2275 11.9898C50.3516 11.9541 50.4225 11.827 50.3858 11.706C50.2707 11.3261 50.2583 11.1533 50.2583 11.0966C50.2583 10.3594 52.2155 9.53795 55.0239 9.53795C57.8323 9.53795 59.7895 10.3594 59.7895 11.0966C59.7895 11.2831 59.6758 11.7432 59.4244 12.3775C58.1802 12.019 56.6284 11.8226 55.0239 11.8226C53.3282 11.8226 51.6911 12.0419 50.4139 12.4401C50.2906 12.4785 50.2227 12.6071 50.2621 12.7273C50.3016 12.8475 50.4334 12.9138 50.5568 12.8753C51.789 12.4911 53.3754 12.2795 55.0239 12.2795C57.8044 12.2795 59.3411 12.8584 59.5305 12.8838C59.5504 12.8865 59.5625 12.8862 59.5625 12.8862C59.6549 12.8862 59.7435 12.8297 59.7796 12.7438C60.0793 12.0264 60.2583 11.4106 60.2583 11.0966C60.2583 10.5163 59.6836 9.99137 58.6401 9.6184Z" fill="#FC832C"/>
<path d="M63 13.7075C63 13.1003 62.3446 12.6063 61.5391 12.6063C61.3684 12.6063 61.2019 12.6284 61.0455 12.6701C61.1293 12.3554 61.1719 12.0908 61.1719 11.8803C61.1719 11.0918 60.6613 10.1599 58.939 9.54417C57.8686 9.1616 56.4697 8.95093 55 8.95093C54.0967 8.95093 53.1972 9.03244 52.3987 9.18658C52.2717 9.21113 52.1891 9.3313 52.2143 9.45507C52.2395 9.57884 52.3627 9.65925 52.4897 9.63479C53.2587 9.48629 54.1268 9.40782 55 9.40782C57.8518 9.40782 60.7031 10.2342 60.7031 11.8803C60.7031 12.1384 60.6165 12.5287 60.4527 13.0095C60.451 13.0139 60.4495 13.0184 60.4481 13.023C60.376 13.2334 60.2914 13.4556 60.1965 13.6836C60.1954 13.6864 60.1946 13.6893 60.1935 13.6921C59.5073 13.6826 58.9098 13.9772 58.5327 14.4399C58.5011 14.4365 58.4694 14.4341 58.4375 14.4341H51.5625C51.5303 14.4341 51.4983 14.4365 51.4664 14.4401C51.446 14.4155 51.4251 14.391 51.4032 14.367C50.9918 13.9177 50.4203 13.6789 49.8064 13.6919C49.8054 13.6892 49.8046 13.6864 49.8035 13.6836C49.7078 13.4538 49.6226 13.2298 49.5501 13.0178C49.3844 12.5332 49.2969 12.1399 49.2969 11.8803C49.2969 10.7921 50.5299 10.1678 51.6026 9.84933C51.7264 9.81257 51.7962 9.68493 51.7585 9.56421C51.7207 9.44349 51.5899 9.37553 51.466 9.41224C50.1658 9.79843 48.8281 10.5568 48.8281 11.8803C48.8281 12.0908 48.8707 12.3555 48.9545 12.6701C48.7981 12.6284 48.6316 12.6063 48.4609 12.6063C47.6554 12.6063 47 13.1003 47 13.7075C47 14.1988 47.4227 14.6146 48.0143 14.7564C47.9336 14.922 47.8906 15.0996 47.8906 15.2717C47.8906 15.6264 48.074 16.3018 48.3847 17.098C48.2689 17.2221 48.2031 17.3836 48.2031 17.5564V17.861C48.2031 18.2389 48.5186 18.5464 48.9062 18.5464H49.1406V19.2318C49.1406 19.6097 49.456 19.9172 49.8437 19.9172H51.0938C51.4814 19.9172 51.7969 19.6097 51.7969 19.2318V18.5464H58.2031V19.2318C58.2031 19.6097 58.5186 19.9172 58.9062 19.9172H60.1563C60.544 19.9172 60.8594 19.6097 60.8594 19.2318V18.5464H61.0938C61.4814 18.5464 61.7969 18.2389 61.7969 17.861V17.5564C61.7969 17.3836 61.7311 17.2221 61.6154 17.098C61.8392 16.5252 62.1445 15.6424 62.1051 15.1782C62.0929 15.0353 62.0524 14.8942 61.9854 14.7565C62.5769 14.6146 63 14.1982 63 13.7075ZM51.1719 15.2719C51.1719 15.1071 51.2798 14.9618 51.4406 14.9104C51.4805 14.8976 51.5215 14.8911 51.5625 14.8911H58.4375C58.4785 14.8911 58.5195 14.8976 58.5594 14.9104C58.7202 14.9618 58.8281 15.1071 58.8281 15.2719V16.871H57.5781V15.5765C57.5781 15.4503 57.4732 15.348 57.3438 15.348C57.2143 15.348 57.1094 15.4503 57.1094 15.5765V16.871H56.6406V15.5765C56.6406 15.4503 56.5357 15.348 56.4062 15.348C56.2768 15.348 56.1719 15.4503 56.1719 15.5765V16.871H55.7031V15.5765C55.7031 15.4503 55.5982 15.348 55.4688 15.348C55.3393 15.348 55.2344 15.4503 55.2344 15.5765V16.871H54.7656V15.5765C54.7656 15.4503 54.6607 15.348 54.5312 15.348C54.4018 15.348 54.2969 15.4503 54.2969 15.5765V16.871H53.8281V15.5765C53.8281 15.4503 53.7232 15.348 53.5938 15.348C53.4643 15.348 53.3594 15.4503 53.3594 15.5765V16.871H52.8906V15.5765C52.8906 15.4503 52.7857 15.348 52.6562 15.348C52.5268 15.348 52.4219 15.4503 52.4219 15.5765V16.871H51.1719V15.2719ZM48.2984 14.3426C47.8315 14.2909 47.4688 14.0207 47.4688 13.7075C47.4688 13.3583 47.9231 13.0633 48.4609 13.0633C48.712 13.0633 48.9471 13.1246 49.1316 13.2368C49.1901 13.4037 49.2557 13.5766 49.3275 13.7534C48.9193 13.8504 48.5611 14.0568 48.2984 14.3426ZM48.3594 15.2717C48.3594 14.8872 48.7928 14.2731 49.6166 14.1641C50.1473 14.0939 50.6522 14.2633 51.0121 14.6289C50.8203 14.7846 50.7031 15.0175 50.7031 15.2719V16.871H48.9062C48.8708 16.871 48.8357 16.8739 48.8009 16.8791C48.4773 16.0411 48.3594 15.5028 48.3594 15.2717ZM51.3281 19.2318C51.3281 19.3578 51.223 19.4603 51.0938 19.4603H49.8437C49.7145 19.4603 49.6093 19.3578 49.6093 19.2318V18.5464H51.3281V19.2318ZM60.3907 19.2318C60.3907 19.3578 60.2855 19.4603 60.1563 19.4603H58.9062C58.777 19.4603 58.6719 19.3578 58.6719 19.2318V18.5464H60.3907V19.2318ZM61.3281 17.861C61.3281 17.987 61.223 18.0895 61.0938 18.0895H48.9062C48.777 18.0895 48.6719 17.987 48.6719 17.861V17.5564C48.6719 17.4769 48.7143 17.4041 48.7856 17.3616C48.823 17.3393 48.8636 17.3279 48.9062 17.3279H61.0938C61.1364 17.3279 61.177 17.3393 61.2145 17.3616C61.2856 17.4041 61.3281 17.4769 61.3281 17.5564V17.861ZM61.199 16.8791C61.1643 16.8739 61.1291 16.871 61.0938 16.871H59.2969V15.2719C59.2969 15.0169 59.179 14.7834 58.9863 14.6277C59.2816 14.3242 59.7028 14.1486 60.1578 14.1486C60.1621 14.1486 60.1664 14.1486 60.1707 14.1486C61.021 14.1549 61.5999 14.769 61.6379 15.2159C61.6648 15.5331 61.4414 16.2491 61.199 16.8791ZM61.6966 14.3433C61.4267 14.0525 61.0704 13.8477 60.6729 13.7523C60.7446 13.5759 60.81 13.4033 60.8684 13.2368C61.0529 13.1246 61.288 13.0633 61.539 13.0633C62.0768 13.0633 62.5312 13.3583 62.5312 13.7075C62.5312 14.0213 62.1656 14.293 61.6966 14.3433Z" fill="#FC832C"/>
<line x1="39" y1="28.5" x2="71" y2="28.5" stroke="#FC832C"/>
<line x1="39" y1="41.5" x2="71" y2="41.5" stroke="#FC832C"/>
<path d="M34.9844 38V37.3984H35.1406C35.375 37.3984 35.5612 37.3216 35.6992 37.168C35.8398 37.0117 35.9453 36.7578 36.0156 36.4062C36.0859 36.0547 36.1341 35.5833 36.1602 34.9922L36.2539 32.9141L35.6445 32.8086V32.3125H40.3906V32.8086L39.7539 32.918V37.3984L40.3906 37.5078V38H38.3477V37.5078L38.9844 37.3984V32.918H37.0195L36.9258 34.9922C36.8919 35.7031 36.8164 36.2799 36.6992 36.7227C36.5846 37.1654 36.4062 37.4896 36.1641 37.6953C35.9219 37.8984 35.5964 38 35.1875 38H34.9844ZM43.3047 38.082C42.8151 38.082 42.3932 37.9596 42.0391 37.7148C41.6875 37.4701 41.4167 37.1315 41.2266 36.6992C41.0365 36.2643 40.9414 35.7643 40.9414 35.1992V35.1172C40.9414 34.5521 41.0352 34.0534 41.2227 33.6211C41.4128 33.1862 41.6849 32.8464 42.0391 32.6016C42.3932 32.3542 42.8151 32.2305 43.3047 32.2305C43.8229 32.2305 44.2565 32.3542 44.6055 32.6016C44.957 32.8464 45.2227 33.1862 45.4023 33.6211C45.582 34.0534 45.6719 34.5521 45.6719 35.1172V35.1992C45.6719 35.7643 45.582 36.2643 45.4023 36.6992C45.2227 37.1315 44.957 37.4701 44.6055 37.7148C44.2565 37.9596 43.8229 38.082 43.3047 38.082ZM43.3047 37.4414C43.6823 37.4414 43.987 37.3477 44.2188 37.1602C44.4531 36.9727 44.625 36.7109 44.7344 36.375C44.8438 36.0365 44.8984 35.6445 44.8984 35.1992V35.1094C44.8984 34.6667 44.8424 34.2786 44.7305 33.9453C44.6211 33.6094 44.4492 33.3477 44.2148 33.1602C43.9805 32.9701 43.6771 32.875 43.3047 32.875C42.9635 32.875 42.6745 32.9701 42.4375 33.1602C42.2005 33.3503 42.0208 33.6133 41.8984 33.9492C41.776 34.2826 41.7148 34.6693 41.7148 35.1094V35.1992C41.7148 35.6419 41.776 36.0326 41.8984 36.3711C42.0208 36.707 42.2005 36.9701 42.4375 37.1602C42.6745 37.3477 42.9635 37.4414 43.3047 37.4414ZM46.6836 38V37.5078L47.3203 37.3984V32.918L46.6836 32.8086V32.3125H48.3477L50.1797 36.6289H50.2031L51.9766 32.3125H53.6914V32.8086L53.0547 32.918V37.3984L53.6914 37.5078V38H51.6484V37.5078L52.3203 37.3984V33.3633L52.3008 33.3594L50.4531 37.7969H49.9414L48.0312 33.3672L48.0117 33.3711L48.0391 35.75V37.3984L48.7266 37.5078V38H46.6836ZM54.293 38V37.5078L54.9297 37.3984V32.918L54.293 32.8086V32.3125H58.418V33.5703H57.7578L57.6992 32.918H55.7383V34.6406H57.1406C57.75 34.6406 58.2214 34.7904 58.5547 35.0898C58.8906 35.3893 59.0586 35.7943 59.0586 36.3047C59.0586 36.8177 58.8906 37.2292 58.5547 37.5391C58.2188 37.8464 57.7474 38 57.1406 38H54.293ZM55.7383 37.3984H57.1406C57.526 37.3984 57.8138 37.2943 58.0039 37.0859C58.194 36.8776 58.2891 36.6146 58.2891 36.2969C58.2891 35.9896 58.194 35.7383 58.0039 35.543C57.8138 35.3451 57.526 35.2461 57.1406 35.2461H55.7383V37.3984ZM59.6445 38V37.5078L60.0664 37.4492L62.0547 32.3125H62.7148L64.668 37.4492L65.0859 37.5078V38H63.4531V37.5078L63.8828 37.4336L63.5078 36.3867H61.2305L60.8438 37.4336L61.2734 37.5078V38H59.6445ZM61.4688 35.7422H63.2734L62.4375 33.4297L62.3906 33.3008H62.3672L62.3203 33.4297L61.4688 35.7422ZM65.6797 38V37.5078L66.3164 37.3984V32.918L65.6797 32.8086V32.3125H68.293C68.8997 32.3125 69.3711 32.4688 69.707 32.7812C70.0456 33.0938 70.2148 33.5052 70.2148 34.0156C70.2148 34.5312 70.0456 34.944 69.707 35.2539C69.3711 35.5638 68.8997 35.7188 68.293 35.7188H67.0859V37.3984L67.7227 37.5078V38H65.6797ZM67.0859 35.1172H68.293C68.6784 35.1172 68.9661 35.0143 69.1562 34.8086C69.349 34.6003 69.4453 34.3385 69.4453 34.0234C69.4453 33.7083 69.349 33.4453 69.1562 33.2344C68.9661 33.0234 68.6784 32.918 68.293 32.918H67.0859V35.1172ZM70.4336 39.4023L70.3203 37.3984H70.8086C70.9414 37.2448 71.0677 37.0469 71.1875 36.8047C71.3099 36.5625 71.4115 36.263 71.4922 35.9062C71.5729 35.5469 71.6185 35.1159 71.6289 34.6133L71.7227 32.9141L71.1211 32.8086V32.3125H75.8164V32.8086L75.1797 32.918V37.3984H75.9609L75.8828 39.3945H75.1914V38H71.0898V39.4023H70.4336ZM71.6602 37.3984H74.4102V32.918H72.4961L72.4062 34.6133C72.3828 35.2331 72.3047 35.7786 72.1719 36.25C72.0391 36.7214 71.8685 37.1042 71.6602 37.3984Z" fill="#FC832C"/>
<path d="M30.9023 47.9297H28.1602V49.6328H29.5742C30.168 49.6406 30.6315 49.793 30.9648 50.0898C31.2982 50.3867 31.4648 50.7904 31.4648 51.3008C31.4648 51.8138 31.2969 52.2227 30.9609 52.5273C30.625 52.832 30.1667 52.9896 29.5859 53H27.4062V47.3125H30.9023V47.9297ZM28.1602 50.25V52.3867H29.5312C29.9036 52.3867 30.1927 52.2878 30.3984 52.0898C30.6068 51.8919 30.7109 51.6263 30.7109 51.293C30.7109 50.9727 30.6107 50.7201 30.4102 50.5352C30.2122 50.3503 29.9297 50.2552 29.5625 50.25H28.1602ZM36.8555 50.3398C36.8555 50.8971 36.7617 51.3841 36.5742 51.8008C36.3867 52.2148 36.1211 52.5312 35.7773 52.75C35.4336 52.9688 35.0326 53.0781 34.5742 53.0781C34.1263 53.0781 33.7292 52.9688 33.3828 52.75C33.0365 52.5286 32.7669 52.2148 32.5742 51.8086C32.3841 51.3997 32.2865 50.9271 32.2812 50.3906V49.9805C32.2812 49.4336 32.3763 48.9505 32.5664 48.5312C32.7565 48.112 33.0247 47.7917 33.3711 47.5703C33.7201 47.3464 34.1185 47.2344 34.5664 47.2344C35.0221 47.2344 35.4232 47.3451 35.7695 47.5664C36.1185 47.7852 36.3867 48.1042 36.5742 48.5234C36.7617 48.9401 36.8555 49.4258 36.8555 49.9805V50.3398ZM36.1094 49.9727C36.1094 49.2982 35.974 48.7812 35.7031 48.4219C35.4323 48.0599 35.0534 47.8789 34.5664 47.8789C34.0924 47.8789 33.7188 48.0599 33.4453 48.4219C33.1745 48.7812 33.0352 49.2812 33.0273 49.9219V50.3398C33.0273 50.9935 33.1641 51.5078 33.4375 51.8828C33.7135 52.2552 34.0924 52.4414 34.5742 52.4414C35.0586 52.4414 35.4336 52.2656 35.6992 51.9141C35.9648 51.5599 36.1016 51.0534 36.1094 50.3945V49.9727ZM41.5078 47.9297H38.7656V53H38.0117V47.3125H41.5078V47.9297ZM44.8164 51.5156H42.4336L41.8984 53H41.125L43.2969 47.3125H43.9531L46.1289 53H45.3594L44.8164 51.5156ZM42.6602 50.8984H44.5938L43.625 48.2383L42.6602 50.8984ZM50.3164 47.9297H48.4883V53H47.7422V47.9297H45.918V47.3125H50.3164V47.9297ZM51.9453 49.6328H53.3594C53.9531 49.6406 54.4167 49.793 54.75 50.0898C55.0833 50.3867 55.25 50.7904 55.25 51.3008C55.25 51.8138 55.082 52.2227 54.7461 52.5273C54.4102 52.832 53.9518 52.9896 53.3711 53H51.1953V47.3125H51.9453V49.6328ZM51.9453 50.25V52.3867H53.3164C53.6888 52.3867 53.9779 52.2878 54.1836 52.0898C54.3919 51.8919 54.4961 51.6263 54.4961 51.293C54.4961 50.9727 54.3958 50.7201 54.1953 50.5352C53.9974 50.3503 53.7148 50.2552 53.3477 50.25H51.9453ZM56.6875 53H55.9375V47.3125H56.6875V53ZM58.832 50.7734V53H58.082V47.3125H60.1797C60.8021 47.3125 61.2891 47.4714 61.6406 47.7891C61.9948 48.1068 62.1719 48.5273 62.1719 49.0508C62.1719 49.6029 61.9987 50.0286 61.6523 50.3281C61.3086 50.625 60.8151 50.7734 60.1719 50.7734H58.832ZM58.832 50.1602H60.1797C60.5807 50.1602 60.888 50.0664 61.1016 49.8789C61.3151 49.6888 61.4219 49.4154 61.4219 49.0586C61.4219 48.7201 61.3151 48.4492 61.1016 48.2461C60.888 48.043 60.5951 47.9375 60.2227 47.9297H58.832V50.1602ZM67.3125 51.1953C67.2422 51.7969 67.0195 52.2617 66.6445 52.5898C66.2721 52.9154 65.776 53.0781 65.1562 53.0781C64.4844 53.0781 63.9453 52.8372 63.5391 52.3555C63.1354 51.8737 62.9336 51.2292 62.9336 50.4219V49.875C62.9336 49.3464 63.0273 48.8815 63.2148 48.4805C63.4049 48.0794 63.6732 47.7721 64.0195 47.5586C64.3659 47.3424 64.7669 47.2344 65.2227 47.2344C65.8268 47.2344 66.3112 47.4036 66.6758 47.7422C67.0404 48.0781 67.2526 48.5443 67.3125 49.1406H66.5586C66.4935 48.6875 66.3516 48.3594 66.1328 48.1562C65.9167 47.9531 65.6133 47.8516 65.2227 47.8516C64.7435 47.8516 64.3672 48.0286 64.0938 48.3828C63.8229 48.737 63.6875 49.2409 63.6875 49.8945V50.4453C63.6875 51.0625 63.8164 51.5534 64.0742 51.918C64.332 52.2826 64.6927 52.4648 65.1562 52.4648C65.5729 52.4648 65.8919 52.3711 66.1133 52.1836C66.3372 51.9935 66.4857 51.6641 66.5586 51.1953H67.3125ZM69.8164 50.4453H69.125V53H68.375V47.3125H69.125V49.8203H69.7109L71.6992 47.3125H72.6328L70.4609 50.0703L72.793 53H71.875L69.8164 50.4453ZM77.0664 47.3125H77.8164V53H77.0664V48.6172L74.2656 53H73.5117V47.3125H74.2656V51.6953L77.0664 47.3125ZM82.7695 47.3125H83.5195V53H82.7695V48.6172L79.9688 53H79.2148V47.3125H79.9688V51.6953L82.7695 47.3125ZM82.5586 45.8984C82.5586 46.2135 82.4505 46.4674 82.2344 46.6602C82.0208 46.8503 81.7396 46.9453 81.3906 46.9453C81.0417 46.9453 80.7591 46.849 80.543 46.6562C80.3268 46.4635 80.2188 46.2109 80.2188 45.8984H80.8086C80.8086 46.0807 80.8581 46.224 80.957 46.3281C81.056 46.4297 81.2005 46.4805 81.3906 46.4805C81.5729 46.4805 81.7148 46.4297 81.8164 46.3281C81.9206 46.2266 81.9727 46.0833 81.9727 45.8984H82.5586Z" fill="#FC832C"/>
</svg>
