<svg width="29" height="30" viewBox="0 0 29 30" fill="none" xmlns="http://www.w3.org/2000/svg">
<path d="M22.7451 0.917236H6.2549C2.80167 0.917236 0 3.71032 0 7.15296V23.5926C0 27.0352 2.80167 29.8283 6.2549 29.8283H22.7451C26.1983 29.8283 29 27.0352 29 23.5926V7.15296C29 3.71032 26.1983 0.917236 22.7451 0.917236ZM23.4618 22.5061C22.9998 22.9962 22.4845 23.4273 22.0521 23.941C21.3887 24.6614 20.5831 24.9153 19.6354 24.8622C18.3086 24.7736 17.0707 24.3189 15.8623 23.7402C13.185 22.447 10.8809 20.6401 8.95588 18.343C7.54616 16.6483 6.36744 14.8413 5.58558 12.745C5.21242 11.7412 4.9518 10.7078 5.04065 9.64489C5.09988 8.98352 5.35458 8.41073 5.8462 7.92062C6.36152 7.40688 6.88276 6.88723 7.39808 6.3735C8.09109 5.71213 8.94996 5.71213 9.61336 6.3735C10.0458 6.77504 10.4485 7.20611 10.8809 7.63717C11.2837 8.03872 11.6865 8.44026 12.1189 8.87133C12.8356 9.58584 12.8356 10.4184 12.1189 11.1389C11.6036 11.6526 11.1119 12.1722 10.567 12.6624C10.4248 12.8041 10.4248 12.8927 10.4781 13.0639C10.8217 13.8965 11.3133 14.611 11.8583 15.3019C12.9837 16.6778 14.2453 17.8824 15.7439 18.8331C16.0578 19.0339 16.4369 19.1756 16.7508 19.3764C16.9226 19.465 17.0411 19.4354 17.1832 19.2878C17.6985 18.7741 18.2198 18.2544 18.7351 17.7407C19.4281 17.0498 20.287 17.0498 20.9504 17.7407C21.7855 18.5733 22.6207 19.4059 23.4559 20.2385C24.1489 20.9235 24.1489 21.7857 23.4618 22.5061Z" fill="#FC832C"/>
</svg>
