<svg width="70" height="70" fill="none" xmlns="http://www.w3.org/2000/svg"><circle cx="35" cy="35" r="35" fill="#1E2028"/><path d="M12.645 29.684v-5.152h8.624V45h-5.74V29.684h-2.884zm11.416 4.788c0-3.21.653-5.74 1.96-7.588 1.306-1.848 3.36-2.772 6.16-2.772 2.8 0 4.853.924 6.16 2.772 1.325 1.848 1.988 4.377 1.988 7.588 0 3.248-.654 5.796-1.96 7.644-1.307 1.848-3.37 2.772-6.188 2.772-2.819 0-4.882-.924-6.188-2.772-1.288-1.848-1.932-4.396-1.932-7.644zm10.836 0c0-1.68-.178-2.959-.532-3.836-.355-.896-1.083-1.344-2.184-1.344-1.102 0-1.83.448-2.184 1.344-.355.877-.532 2.156-.532 3.836 0 1.717.168 3.024.504 3.92.354.877 1.092 1.316 2.212 1.316s1.848-.439 2.184-1.316c.354-.896.532-2.203.532-3.92zm21.874 3.36h-4.508v4.648H47v-4.648h-4.536v-4.956H47V28.2h5.264v4.676h4.508v4.956z" fill="#A1C5E9"/></svg>