<svg width="80" height="68" fill="none" xmlns="http://www.w3.org/2000/svg"><path fill-rule="evenodd" clip-rule="evenodd" d="M.35 57.38c11.93-5.9 17.895-12.833 17.895-20.799-5.085-.59-9.29-2.68-12.614-6.269C2.306 26.723.644 22.568.644 17.848c0-5.015 1.614-9.243 4.84-12.685C8.711 1.72 12.77 0 17.66 0c5.475 0 10.218 2.237 14.227 6.712 4.01 4.474 6.014 9.907 6.014 16.299C37.9 42.187 27.24 57.183 5.925 68L.35 57.38zm42.101 0c12.027-5.9 18.041-12.833 18.041-20.799-5.182-.59-9.436-2.68-12.76-6.269-3.325-3.589-4.987-7.744-4.987-12.464 0-5.015 1.637-9.243 4.913-12.685C50.934 1.72 55.016 0 59.906 0 65.38 0 70.099 2.237 74.06 6.712 78.02 11.186 80 16.619 80 23.01 80 42.187 69.39 57.183 48.171 68l-5.72-10.62z" fill="#fff"/></svg>