<svg width="40" height="40" fill="none" xmlns="http://www.w3.org/2000/svg"><path d="M9.167 3.333h19.166A4.167 4.167 0 0132.5 7.5v11.355A10.833 10.833 0 0018.855 32.5H7.5a1.667 1.667 0 001.667 1.667h10.386a10.865 10.865 0 001.797 2.5H9.167A4.167 4.167 0 015 32.5v-25a4.167 4.167 0 014.167-4.167zm2.5 5A1.666 1.666 0 0010 10v1.667a1.667 1.667 0 001.667 1.666H25a1.667 1.667 0 001.667-1.666V10A1.667 1.667 0 0025 8.333H11.667z" fill="#A1C5E9"/><path d="M38.333 29.167a9.166 9.166 0 10-18.332 0 9.166 9.166 0 0018.332 0zM28.19 25.162l4.677 3.066a1.015 1.015 0 01.466.867c0 .173-.04.344-.12.498a.956.956 0 01-.33.377l-4.678 3.192c-.081.054-.17.098-.263.128a.919.919 0 01-.659-.038 1.144 1.144 0 01-.321-.225 1.2 1.2 0 01-.217-.334 1.02 1.02 0 01-.078-.395v-6.263a1.036 1.036 0 01.611-.95.92.92 0 01.912.075v.002z" fill="#A1C5E9"/></svg>