<svg width="70" height="70" fill="none" xmlns="http://www.w3.org/2000/svg"><circle cx="35" cy="35" r="35" fill="#1E2028"/><path d="M33.333 18.333l12.164 3.8a1.666 1.666 0 011.17 1.592v2.942H50a1.666 1.666 0 011.667 1.666v3.334H30v-3.334a1.666 1.666 0 011.667-1.666h11.666V24.95l-10-3.127-10 3.127v12.34a6.667 6.667 0 002.597 5.282l.315.226 7.088 4.835 6.304-4.3h-7.97A1.666 1.666 0 0130 41.667V35h21.667v6.667A1.666 1.666 0 0150 43.333l-5.367.002a9.98 9.98 0 01-2.333 2.217l-8.967 6.115-8.966-6.114A10 10 0 0120 37.29V23.725a1.666 1.666 0 011.17-1.59l12.163-3.802z" fill="#A1C5E9"/></svg>