<svg width="70" height="70" fill="none" xmlns="http://www.w3.org/2000/svg"><circle cx="35" cy="35" r="35" fill="#1E2028"/><path d="M22.328 23.953c-.367.086-.133.07-.437.11-1.305.28-.336.53.437-.11zm22.945.524c.094-.063.422-.383-.601-.696.062.32-.211.29-.211.469.758.688 1.07 1.883 2.039 2.133.188-.86-.86-1.281-1.227-1.906zm-23.64-.774c.117.695.64-.734.648-1.242a6.7 6.7 0 01-.617.328c.492.25.063.516-.469.914-1.078 1.344 1.008-1.047.438 0zM35 15c-11.047 0-20 8.953-20 20 0 11.04 8.953 20 20 20s20-8.96 20-20c0-11.047-8.953-20-20-20zm.531 6.703l.094.031c-.375.485 1.953 1.899.281 2.016-1.562.445.657-.406-.554-.258.64-.89-.508-.906.18-1.789zm-9.484 1.281c-.563-.468-2.328.641-1.711.375 1.531-.601.102.063.46.782-.327.68-.108-.672-.921.132-.586.133-2.023 1.461-1.844 1.055-.047.633-1.71 1.383-1.937 2.438-.547 1.46-.133-.055-.235-.625-.78-.993-2.203 1.68-1.78 2.734.71-1.25.655-.133.14.422.523.96-.477 2.21.515 2.922.438.101 1.313-1.469.93.164.266-1.414.734.336 1.492-.055.047.742.508.399.61 1.297 1.265-.094 2.422 2.047.914 2.453.226-.062.672.336 1.187.031.875.696 3.18.782 3.242 2.5-1.586.758-.39 2.836-1.765 3.578-1.578-.234-.54 1.946-1.203 1.696.265 1.57-1.594-.203-.875.664 1.32.812-.578.648.015 1.242-.664-.14.414 1.234.594 1.742.953 1.547-.82-.343-1.344-.86-.5-1-1.68-2.913-2.008-4.483-.187-2.282-1.953-3.813-2.359-6.04-.406-1.242 1.117-3.234.297-3.93-.711-.554-.422-2.452-.844-3.452 1.055-4.57 4.406-8.422 8.43-10.703-.414.304 2.367-.79 2.047-.524-.086.195 1.625-.742 2.656-.883-.11.016-2.68.938-1.969.813-1.101.539-.11.234.438-.04-1.094.805-1.938.579-3.18 1.29-1.25.328-.992 1.625-1.883 2.273.524.094 1.836-1.351 2.602-1.86 1.758-.85-.89 1.548.781.516-.562.524-.445 1.36-.789 1.594-.172-.047.68.406-.703.742zm2.734-3.593c-.18.242-.43.765-.578.445-.203.102-.281.539-.664.187.227-.164.461-.554.016-.312.203-.219 2.015-.836 1.914-1.07.32-.203.289-.305-.078-.18-.188-.063.445-.594 1.289-.664.117 0 .164.078-.047.055-1.274.39-.727.28.133 0-.328.187-.555.242-.61.328.86-.313-.047.226.149.187-.242.125.039.164-.43.344.086-.07-.766.508-.258.336-.492.469-.71.476-.836.344zm.75 1.117c.016-.75 1.094-1.227.961-1.266 1.328-.625-.46.024.586-.539.39-.039 1.219-1.289 2.367-1.367 1.266-.383.68.023 1.617-.336l-.187.156c-.164.024.04.313-.555.75-.062.68-1.133.367-.601 1.094-.344-.492-.86-.016-.211.031-.696.532-2.313.625-3.086 1.508-.5.719-.961.492-.89-.031zm5.555 2.5c-.531 1.281-1.047-.188-.11-.422.235.125.329.164.11.422zm-2-2.563c-.156-.578-.031-.273.898-.547.641.461-.57.766-.898.547zm14.547 22.93c-.735-1.266.89-2.438 1.437-3.5-.07 1.242-.226 2.469-1.437 3.5zm2.765-14.46c-.796.062-1.515.25-2.234-.204-1.656-1.813.305 2.047.852.469 1.968.75-.032 3.984-1.274 3.648-.695-1.5-1.554-3.148-3.07-3.883 1.164 1.29 1.742 2.875 2.992 4.04.086 1.624 1.734-.594 1.633.663.156 2.164-2.445 3.461-1.992 5.633.968 1.977-1.867 2.336-1.547 4.11-1.14 1.273-2.36 2.992-4.406 2.718 0-1.078-.547-1.992-.672-3.101-1.11-1.406 1.172-2.914-.242-4.383-1.633-.367.335-2.617-1.344-2.406-1.008-1.008-2.485-.032-3.93-.024-1.812.172-3.68-2.226-2.875-3.922-.64-1.765 2.031-2.28 2.102-3.836 1.28-1.07 3.101-.937 4.836-1.187-.125 1.242 1.187 1.25 2.18 1.664.554-1.344 2.28.219 3.46-.633.406-1.984-1.148-.789-2.039-1.422-1.078-1.578 2.305-.812 1.953-1.64-1.312-.008-.57-1.617-1.5-.719.836.148-.148.805-.125.055-1.265-.367-.047 1.437-.687 1.61-.977-.407-.516.46-.414.593-.422.914-.938-1.344-2.133-1.281-1.188-1.086-.469.492.562.75-.218.062.125.96-.148.578-.852-1.172-2.469-1.953-3.43-.516-.101 1.344-2.836 1.727-2.398.156-.64-1.625 1.984-.047 1.742-1.343-1.688-1.118.46-.758 1.031-1.805 1.297.039.055-1.063.664-1.383-.062 1.195.992.969 1.828.742-.203-.687.5-.664.07-1.234 1.938-.774-1.476.36-.788-1.336-.836-.578-.352 1.273 0 1.469.023.57-.461 1.273-1.125.078-.97.633-.867-.64-.93-.508-.11-.492.734-.516.742-1.375-.07-.547-.054-.836.336-.867.031.078 1.602.101 2.156.75-1.515-.305-.226.25.453.562-.726-.57.29 0-.304-.648.234.047-.649-.89.258-.07-.493-.586.96-.415.101-.852 1.258.352.516.031-.226-.29-2.047-1.218 3.617 1.65 1.304.376 1.477.32-3.156-1.14-1.047-.5-.804-.352-.023-.156.704.07-1.305-.406-3.258-1.164-3.18-1.195a6.33 6.33 0 011.328.258c1.336.398-.383-.094-.016-.086 4.594 1.18 8.618 4.258 11.063 8.281.57.602 2.125 4.578 1.312 2.813.368 1.406.422 2.921.618 4.359-.407-.453-.86-2.125-1.25-3.055-.164.36-.352-.508-.954-.742z" fill="#A1C5E9"/></svg>