<svg width="32" height="32" fill="none" xmlns="http://www.w3.org/2000/svg"><path opacity=".1" fill-rule="evenodd" clip-rule="evenodd" d="M0 16C0 7.163 7.163 0 16 0s16 7.163 16 16-7.163 16-16 16S0 24.837 0 16z" fill="#fff"/><path fill-rule="evenodd" clip-rule="evenodd" d="M24.533 15.988a8.535 8.535 0 01-.671 3.317 8.587 8.587 0 01-3.09 3.749 8.631 8.631 0 01-1.45.785 8.572 8.572 0 01-6.644 0 8.635 8.635 0 01-1.45-.785 8.604 8.604 0 01-3.09-3.749 8.492 8.492 0 01-.499-5.032 8.473 8.473 0 011.285-3.05 8.605 8.605 0 012.304-2.3A8.45 8.45 0 0114.28 7.64a8.6 8.6 0 015.04.496 8.564 8.564 0 013.754 3.087 8.439 8.439 0 011.285 3.05 8.55 8.55 0 01.173 1.715zM12.89 9.406a7.288 7.288 0 00-4.022 5.082c.192.002 3.23.04 6.728-.888a43.815 43.815 0 00-2.706-4.194zm3.31 5.314c-3.752 1.122-7.353 1.041-7.482 1.036-.002.078-.006.154-.006.232a7.24 7.24 0 001.867 4.863c-.002-.004 1.992-3.537 5.925-4.807.095-.032.191-.06.287-.087a24.629 24.629 0 00-.591-1.237zm4.612-4.193A7.258 7.258 0 0016 8.712c-.592 0-1.167.071-1.718.204.11.146 1.478 1.96 2.725 4.245 2.75-1.03 3.787-2.608 3.805-2.634zm-3.524 6.636l-.048.015c-4.3 1.497-5.704 4.514-5.72 4.546a7.279 7.279 0 004.48 1.54c1.009 0 1.97-.204 2.845-.576-.108-.636-.531-2.864-1.557-5.525zm2.784 4.86a7.279 7.279 0 003.123-4.881c-.15-.049-2.19-.693-4.542-.317.956 2.623 1.345 4.76 1.419 5.198zm-2.504-7.778a22.815 22.815 0 01.641 1.432c2.504-.314 4.97.215 5.076.236a7.233 7.233 0 00-1.658-4.547c-.013.02-1.182 1.706-4.06 2.879z" fill="#fff"/></svg>