<svg width="40" height="40" fill="none" xmlns="http://www.w3.org/2000/svg"><path d="M15 35.556A2.778 2.778 0 1015 30a2.778 2.778 0 000 5.556zm14.445 0a2.778 2.778 0 100-5.556 2.778 2.778 0 000 5.556zM36.778 7.1a1.11 1.11 0 00-.878-.433H10.233l-.5-1.59A1.111 1.111 0 009 4.357l-4.556-1.4a1.116 1.116 0 10-.655 2.133l3.989 1.22 5.089 16.078-1.811 1.489-.145.144a2.955 2.955 0 00-.089 3.756 3.055 3.055 0 002.511 1.11h18.545a1.111 1.111 0 100-2.221H13.156a.745.745 0 01-.623-1.111l2.678-2.223h17.145a1.111 1.111 0 001.11-.844l3.556-14.445a1.11 1.11 0 00-.244-.944z" fill="#A1C5E9"/></svg>