<svg width="60" height="60" viewBox="0 0 60 60" fill="none" xmlns="http://www.w3.org/2000/svg">
<path d="M30 60C46.5685 60 60 46.5685 60 30C60 13.4315 46.5685 0 30 0C13.4315 0 0 13.4315 0 30C0 46.5685 13.4315 60 30 60Z" fill="#5BA2F0"/>
<path d="M43.9113 15.5768C40.3269 16.0305 36.5896 16.0147 32.8283 15.6566C27.5757 15.2525 19.899 12.8282 17.0707 17.6768C12.5271 25.4388 14.7681 35.3762 15.8269 44.1703L31.6164 59.9564C46.8962 59.1451 59.1421 46.9009 59.9559 31.6216L43.9113 15.5768Z" fill="#5BA2F0"/>
<path d="M36.9406 12.8284H23.0592C17.4178 12.8284 12.8283 17.4179 12.8283 23.0593V36.9407C12.8283 42.5819 17.4178 47.1718 23.0593 47.1718H36.9408C42.5819 47.1718 47.1718 42.5822 47.1718 36.9407V23.0593C47.1717 17.4179 42.5821 12.8284 36.9406 12.8284ZM43.7168 36.9409C43.7168 40.6831 40.683 43.7169 36.9408 43.7169H23.0593C19.3171 43.7169 16.2833 40.6831 16.2833 36.9409V23.0594C16.2833 19.3172 19.3171 16.2833 23.0593 16.2833H36.9408C40.683 16.2833 43.7168 19.3173 43.7168 23.0594V36.9409Z" fill="white"/>
<path d="M30 21.1174C25.1023 21.1174 21.1174 25.1023 21.1174 30C21.1174 34.8974 25.1023 38.8822 30 38.8822C34.8977 38.8822 38.8822 34.8977 38.8822 30C38.8822 25.1023 34.8977 21.1174 30 21.1174ZM30 35.4273C27.0025 35.4273 24.5723 32.9977 24.5723 30C24.5723 27.0024 27.0025 24.5724 30 24.5724C32.9975 24.5724 35.4273 27.0022 35.4273 30C35.4273 32.9975 32.9975 35.4273 30 35.4273Z" fill="white"/>
<path d="M41.0277 21.1844C41.0277 22.3598 40.0747 23.3129 38.8992 23.3129C37.7238 23.3129 36.7708 22.3598 36.7708 21.1844C36.7708 20.0089 37.7238 19.0559 38.8992 19.0559C40.075 19.0559 41.0277 20.0086 41.0277 21.1844Z" fill="white"/>
<path d="M36.9408 12.8284H29.9327V16.2833H36.9408C40.6831 16.2833 43.7168 19.3173 43.7168 23.0594V36.9409C43.7168 40.6831 40.6831 43.7169 36.9408 43.7169H29.9327V47.1718H36.9408C42.582 47.1718 47.1717 42.5822 47.1717 36.9407V23.0593C47.1717 17.4179 42.5821 12.8284 36.9408 12.8284Z" fill="white"/>
<path d="M30 21.1174C29.9774 21.1174 29.9554 21.1191 29.9327 21.1191V24.574C29.9551 24.5738 29.9774 24.5724 30 24.5724C32.9975 24.5724 35.4273 27.0022 35.4273 30C35.4273 32.9975 32.9977 35.4273 30 35.4273C29.9774 35.4273 29.9551 35.4259 29.9327 35.4257V38.8806C29.9554 38.8808 29.9774 38.8822 30 38.8822C34.8977 38.8822 38.8822 34.8976 38.8822 30C38.8822 25.1023 34.8977 21.1174 30 21.1174Z" fill="white"/>
</svg>
