<svg width="64" height="64" viewBox="0 0 64 64" fill="none" xmlns="http://www.w3.org/2000/svg">
<g clip-path="url(#clip0)">
<path d="M57.0205 6.6686C44.2785 6.30535 35.8138 1.95135 33.016 0.280472C32.3896 -0.0936533 31.6102 -0.0936533 30.9838 0.280472C28.1858 1.95135 19.7212 6.30535 6.97934 6.6686C5.98747 6.69685 5.16747 7.45122 5.06684 8.43835C4.21259 16.8118 2.30835 52.9077 31.2972 63.8716C31.7497 64.0427 32.2501 64.0427 32.7025 63.8716C61.6915 52.9077 59.7871 16.8118 58.9328 8.43835C58.8322 7.45122 58.0122 6.69685 57.0205 6.6686Z" fill="#9BC4F9"/>
<path d="M32.7031 63.8723C32.5141 63.9431 32.3161 63.9854 32.1168 63.9971C58.9406 51.7596 57.1086 16.1244 56.2756 7.69868C56.2357 7.28993 56.0788 6.92093 55.8423 6.62268C56.2306 6.64193 56.6227 6.65743 57.0199 6.66893C58.0124 6.69718 58.8326 7.45181 58.9329 8.43793C59.7878 16.8122 61.6917 52.9076 32.7031 63.8723Z" fill="#7FB2F9"/>
<path d="M51.8871 11.2837C41.7595 10.9949 35.0313 7.53431 32.8075 6.20631C32.3096 5.90893 31.6901 5.90893 31.1922 6.20631C28.9683 7.53431 22.2403 10.9951 12.1126 11.2837C11.3242 11.3062 10.6725 11.9058 10.5925 12.6904C9.91359 19.3458 8.39997 49.2004 31.4413 57.9149C31.801 58.0509 32.1987 58.0509 32.5583 57.9149C55.5997 49.2004 54.0861 19.3458 53.4072 12.6903C53.3271 11.9057 52.6753 11.3061 51.8871 11.2837Z" fill="#FAF7F7"/>
<path d="M32.5578 57.9148C32.1992 58.051 31.8006 58.051 31.4419 57.9148C31.1938 57.8209 30.9483 57.7245 30.7053 57.6243C52.8444 48.3256 51.5447 18.3638 50.8658 11.2443C51.2013 11.261 51.5421 11.2739 51.8866 11.2841C52.6759 11.306 53.3277 11.905 53.4074 12.6906C54.0862 19.3459 55.5993 49.1998 32.5578 57.9148Z" fill="#EDE1DD"/>
<path d="M31.9999 43.3216C38.9633 43.3216 44.6083 37.6766 44.6083 30.7131C44.6083 23.7496 38.9633 18.1046 31.9999 18.1046C25.0364 18.1046 19.3914 23.7496 19.3914 30.7131C19.3914 37.6766 25.0364 43.3216 31.9999 43.3216Z" fill="#FFF7CB"/>
<path d="M44.6089 30.7132C44.6089 37.6772 38.9639 43.3222 31.9999 43.3222C29.3169 43.3222 26.8305 42.4839 24.7865 41.0544C26.27 41.6689 27.895 42.007 29.5998 42.007C36.5638 42.007 42.2088 36.362 42.2088 29.398C42.2088 25.117 40.0748 21.3335 36.8106 19.0555C41.3885 20.9453 44.6089 25.4525 44.6089 30.7132Z" fill="#F7EDBE"/>
<path d="M30.2407 36.522C29.7092 36.522 29.1976 36.3158 28.8144 35.9454L25.3961 32.6416C24.5811 31.8539 24.559 30.5544 25.3466 29.7394C26.1344 28.9244 27.4335 28.9019 28.249 29.6899L30.1572 31.5341L35.6689 25.5645C36.4378 24.7316 37.7364 24.6798 38.5693 25.4488C39.402 26.2178 39.4539 27.5164 38.6849 28.3491L31.7487 35.8618C31.374 36.2678 30.8514 36.5054 30.2991 36.5211C30.2797 36.5218 30.2602 36.522 30.2407 36.522Z" fill="#9BC4F9"/>
<path d="M38.6848 28.3489L31.7491 35.8619C31.3737 36.2682 30.8517 36.506 30.299 36.5214H30.2411C29.7088 36.5214 29.1972 36.3157 28.8141 35.9454L27.3665 34.5467C27.7148 34.796 28.1327 34.931 28.5633 34.931C28.5826 34.931 28.602 34.931 28.6225 34.9298C29.174 34.9144 29.6972 34.6765 30.0713 34.2703L37.0071 26.7587C37.479 26.2483 37.6422 25.5618 37.5046 24.9305C37.8902 24.9923 38.2618 25.1645 38.5691 25.4487C39.4022 26.2175 39.4537 27.5159 38.6848 28.3489Z" fill="#7FB2F9"/>
</g>
<defs>
<clipPath id="clip0">
<rect width="64" height="64" fill="white"/>
</clipPath>
</defs>
</svg>
