<svg width="60" height="60" viewBox="0 0 60 60" fill="none" xmlns="http://www.w3.org/2000/svg">
<path d="M30 60C46.5685 60 60 46.5685 60 30C60 13.4315 46.5685 0 30 0C13.4315 0 0 13.4315 0 30C0 46.5685 13.4315 60 30 60Z" fill="#5BA2F0"/>
<path d="M43.015 16.4581C35.7128 14.6945 28.3976 12.6315 20.9091 15.2525C16.0605 17.0707 16.0605 22.3232 16.2626 26.7677C16.2626 27.9798 14.8485 29.596 15.4545 31.0101C16.6665 35.0505 17.6767 39.0909 21.9191 41.1111C22.5252 41.5152 21.9191 42.3232 22.3232 42.9293C22.1211 42.9293 21.7171 43.1313 21.7171 43.3333C21.7171 44.3016 22.1516 45.7828 21.863 46.7376L34.7543 59.6236C48.007 57.513 58.365 46.725 59.8224 33.2656L43.015 16.4581Z" fill="#5BA2F0"/>
<path d="M45.8703 21.0849L45.8605 21.0453C45.0589 17.8047 41.4451 14.3275 38.1264 13.6041L38.089 13.5964C32.7211 12.5724 27.2783 12.5724 21.9116 13.5964L21.873 13.6041C18.5555 14.3275 14.9415 17.8049 14.1389 21.0453L14.13 21.0849C13.1391 25.6103 13.1391 30.1998 14.13 34.7253L14.1389 34.7649C14.9074 37.8671 18.2521 41.1846 21.4469 42.0969V45.7143C21.4469 47.0236 23.0425 47.6666 23.9497 46.7217L27.6148 42.9121C28.4098 42.9565 29.2051 42.9814 30.0002 42.9814C32.7022 42.9814 35.4055 42.7258 38.0889 42.2139L38.1262 42.2062C41.445 41.4828 45.0588 38.0053 45.8604 34.765L45.8702 34.7254C46.8612 30.1998 46.8612 25.6105 45.8703 21.0849ZM42.9698 34.0691C42.4346 36.1833 39.6908 38.8116 37.5107 39.2972C34.6566 39.84 31.7797 40.0719 28.9058 39.9924C28.8486 39.9907 28.7937 40.013 28.7539 40.054C28.346 40.4726 26.078 42.8011 26.078 42.8011L23.2317 45.7224C23.0236 45.9394 22.658 45.7916 22.658 45.4922V39.4997C22.658 39.4007 22.5873 39.3167 22.49 39.2975C22.4894 39.2972 22.489 39.2972 22.4884 39.2971C20.3082 38.8115 17.5653 36.1832 17.0292 34.069C16.1373 29.9785 16.1373 25.8317 17.0292 21.7411C17.5653 19.6269 20.3082 16.9987 22.4884 16.513C27.4731 15.565 32.5271 15.565 37.5108 16.513C39.692 16.9987 42.4348 19.6269 42.9699 21.7411C43.8628 25.8318 43.8628 29.9786 42.9698 34.0691Z" fill="white"/>
<path d="M34.7426 36.8352C34.4074 36.7334 34.0881 36.665 33.7913 36.5421C30.7173 35.2668 27.8884 33.6214 25.6477 31.0995C24.3734 29.6653 23.376 28.0461 22.5329 26.3326C22.1331 25.52 21.7962 24.6757 21.4527 23.8366C21.1396 23.0716 21.6008 22.2813 22.0864 21.7048C22.5422 21.1637 23.1287 20.7498 23.7639 20.4445C24.2596 20.2064 24.7485 20.3438 25.1106 20.7639C25.8932 21.6723 26.6122 22.6272 27.1942 23.6802C27.5522 24.3279 27.454 25.1196 26.8051 25.5604C26.6474 25.6675 26.5037 25.7933 26.3569 25.9143C26.228 26.0203 26.1068 26.1274 26.0184 26.271C25.8571 26.5336 25.8493 26.8436 25.9532 27.1291C26.7532 29.3277 28.1017 31.0375 30.3148 31.9584C30.6689 32.1057 31.0245 32.2772 31.4325 32.2297C32.1157 32.1499 32.337 31.4004 32.8158 31.0089C33.2837 30.6263 33.8818 30.6212 34.3859 30.9402C34.8901 31.2594 35.3788 31.6018 35.8647 31.9481C36.3416 32.288 36.8163 32.6202 37.2562 33.0077C37.6792 33.3803 37.8249 33.8689 37.5866 34.3744C37.1507 35.3003 36.5161 36.0703 35.601 36.562C35.3426 36.7005 35.0339 36.7454 34.7426 36.8352C34.4074 36.7334 35.0339 36.7454 34.7426 36.8352Z" fill="white"/>
<path d="M30.0083 19.3859C34.0289 19.4986 37.3314 22.1668 38.0391 26.1418C38.1597 26.8192 38.2026 27.5115 38.2562 28.1991C38.2788 28.4882 38.115 28.7629 37.8031 28.7667C37.4808 28.7706 37.3358 28.5008 37.3147 28.212C37.2734 27.6399 37.2447 27.0651 37.1658 26.4979C36.7497 23.5027 34.3614 21.0247 31.3801 20.4931C30.9314 20.413 30.4725 20.392 30.0179 20.3443C29.7307 20.3142 29.3545 20.2969 29.2909 19.9397C29.2376 19.6403 29.4902 19.4019 29.7754 19.3866C29.8526 19.382 29.9305 19.3856 30.0083 19.3859C34.0292 19.4986 29.9305 19.3856 30.0083 19.3859Z" fill="white"/>
<path d="M36.1186 27.3068C36.1119 27.3571 36.1085 27.4751 36.079 27.5862C35.9724 27.9898 35.3602 28.0403 35.2194 27.6331C35.1776 27.5123 35.1714 27.3747 35.1711 27.2446C35.1697 26.3931 34.9847 25.5423 34.5552 24.8014C34.1138 24.0398 33.4392 23.3998 32.6483 23.0123C32.17 22.7781 31.6528 22.6325 31.1285 22.5459C30.8994 22.5079 30.6679 22.485 30.4376 22.4529C30.1586 22.4141 30.0095 22.2364 30.0229 21.9614C30.0352 21.7039 30.2235 21.5184 30.5043 21.5344C31.4269 21.5867 32.3182 21.7864 33.1386 22.2207C34.8067 23.1041 35.7597 24.4984 36.0379 26.3604C36.0504 26.4449 36.0706 26.5284 36.077 26.613C36.0927 26.8218 36.1027 27.031 36.1186 27.3068C36.1119 27.3569 36.1027 27.031 36.1186 27.3068Z" fill="white"/>
<path d="M33.6178 27.2096C33.2815 27.2157 33.1015 27.0294 33.0667 26.7212C33.0427 26.5063 33.0234 26.2883 32.9721 26.079C32.8711 25.6668 32.6521 25.2851 32.3054 25.0325C32.1418 24.9133 31.9563 24.8265 31.7621 24.7702C31.5155 24.6989 31.2591 24.7186 31.0131 24.6583C30.7458 24.5928 30.5979 24.3763 30.64 24.1256C30.6782 23.8973 30.9001 23.7192 31.1496 23.7374C32.7084 23.8499 33.8225 24.6558 33.9816 26.4909C33.9929 26.6204 34.0061 26.7572 33.9773 26.8813C33.9279 27.093 33.7709 27.1993 33.6178 27.2096C33.2814 27.2156 33.7709 27.1993 33.6178 27.2096Z" fill="white"/>
<path d="M45.8703 21.0848L45.8605 21.0452C45.4112 19.2287 44.0779 17.338 42.4084 15.8994L40.1515 17.8996C41.4935 18.9689 42.6434 20.4503 42.9701 21.741C43.863 25.8316 43.863 29.9783 42.9701 34.0691C42.4349 36.1833 39.6909 38.8116 37.5109 39.2972C34.6568 39.84 31.78 40.0719 28.9061 39.9923C28.8489 39.9907 28.7939 40.013 28.7542 40.054C28.3462 40.4726 26.0782 42.8011 26.0782 42.8011L23.232 45.7223C23.0238 45.9394 22.6582 45.7918 22.6582 45.4922V39.4997C22.6582 39.4007 22.5875 39.3166 22.4903 39.2974C22.4897 39.2974 22.4892 39.2972 22.4886 39.2972C21.2496 39.0212 19.8294 38.0529 18.7354 36.8807L16.5053 38.8568C17.898 40.3719 19.6944 41.5968 21.4468 42.0972V45.7145C21.4468 47.0238 23.0423 47.6668 23.9496 46.722L27.6146 42.9123C28.4096 42.9567 29.2048 42.9816 30.0001 42.9816C32.7021 42.9816 35.4054 42.726 38.0887 42.2141L38.1261 42.2065C41.4449 41.4831 45.0587 38.0059 45.8603 34.7653L45.8701 34.7257C46.8612 30.1998 46.8612 25.6105 45.8703 21.0848Z" fill="white"/>
<path d="M34.7426 36.8351C35.0339 36.7453 34.4074 36.7333 34.7426 36.8351V36.8351Z" fill="white"/>
<path d="M37.2564 33.0076C36.8166 32.6203 36.3416 32.2879 35.8649 31.948C35.379 31.6017 34.8904 31.2593 34.3861 30.9401C33.8821 30.6211 33.2841 30.6261 32.816 31.0088C32.3372 31.4003 32.1161 32.1498 31.4327 32.2296C31.0248 32.2771 30.6691 32.1055 30.315 31.9583C28.9534 31.3918 27.9203 30.5256 27.1395 29.4319L25.4801 30.9026C25.5364 30.9679 25.5902 31.0349 25.6475 31.0993C27.8884 33.6213 30.7174 35.2666 33.7911 36.542C34.0877 36.665 34.4073 36.7335 34.7425 36.8351C34.4073 36.7332 35.034 36.7454 34.7425 36.8351C35.034 36.7454 35.3425 36.7003 35.6011 36.5618C36.5165 36.0701 37.1508 35.2999 37.5867 34.3741C37.8251 33.8688 37.6794 33.3802 37.2564 33.0076Z" fill="white"/>
<path d="M30.0198 19.3877C30.016 19.3877 30.0124 19.3873 30.0087 19.3873C30.0051 19.3871 30.0097 19.3873 30.0198 19.3877Z" fill="white"/>
<path d="M30.0085 19.386C30.0119 19.386 30.0152 19.3863 30.0186 19.3863C30.2417 19.3943 33.8708 19.4943 30.0085 19.386Z" fill="white"/>
<path d="M35.7756 21.7778L35.0681 22.4049C36.1799 23.4865 36.9465 24.9201 37.1657 26.4977C37.2444 27.0651 37.2734 27.6397 37.3147 28.2118C37.3357 28.5009 37.4805 28.7705 37.803 28.7668C38.1151 28.7629 38.2788 28.4883 38.2562 28.1991C38.2024 27.5117 38.1597 26.8191 38.0391 26.1419C37.7293 24.4019 36.9223 22.9123 35.7756 21.7778Z" fill="white"/>
<path d="M36.0376 26.3602C35.835 25.0034 35.2722 23.8962 34.3372 23.0527L33.6318 23.6779C33.9966 24.0017 34.3122 24.382 34.5552 24.8014C34.9847 25.5424 35.1697 26.3932 35.1711 27.2446C35.1714 27.3747 35.1776 27.5123 35.2194 27.6334C35.3604 28.0408 35.9724 27.9903 36.079 27.5865C36.1085 27.4752 36.1119 27.3571 36.1186 27.3071C36.1119 27.3574 36.1024 27.0314 36.1186 27.3071C36.1024 27.0314 36.0926 26.8221 36.0768 26.613C36.0706 26.528 36.0503 26.4446 36.0376 26.3602Z" fill="white"/>
<path d="M36.1186 27.3068C36.1027 27.0309 36.1119 27.3568 36.1186 27.3068V27.3068Z" fill="white"/>
<path d="M33.6192 27.2093C33.6247 27.209 33.6299 27.2062 33.6351 27.2056C33.6204 27.2056 33.5979 27.2059 33.5748 27.2068C33.5898 27.2071 33.6035 27.2095 33.6192 27.2093Z" fill="white"/>
<path d="M33.6178 27.2097C33.6027 27.21 33.5893 27.2077 33.5748 27.2073C33.502 27.2093 33.4269 27.2131 33.6178 27.2097Z" fill="white"/>
<path d="M33.6326 27.2056C33.6275 27.2061 33.6227 27.2087 33.6178 27.2091C33.6558 27.2065 33.6525 27.2056 33.6326 27.2056Z" fill="white"/>
<path d="M32.9079 24.3193L32.1898 24.9559C32.2294 24.9799 32.2682 25.005 32.3058 25.0323C32.6524 25.2848 32.8714 25.6666 32.9725 26.0788C33.0238 26.2881 33.0428 26.5058 33.067 26.721C33.1002 27.0155 33.2674 27.1965 33.5752 27.2071C33.5975 27.2065 33.6196 27.206 33.6335 27.2059C33.7817 27.1895 33.9301 27.0857 33.9776 26.8808C34.0063 26.7569 33.9932 26.62 33.9818 26.4905C33.8925 25.4645 33.5046 24.7605 32.9079 24.3193Z" fill="white"/>
</svg>
