<svg width="64" height="64" viewBox="0 0 64 64" fill="none" xmlns="http://www.w3.org/2000/svg">
<path d="M37.7067 16.0238C37.7062 16.0233 37.7059 16.0229 37.7055 16.0224L36.9187 15.2408C35.8354 14.1648 35.7885 12.4276 36.8123 11.2949H36.8149C36.8183 11.291 36.821 11.2869 36.8244 11.283C37.9767 9.98075 39.1423 8.60538 40.2729 7.18575C42.3776 4.54338 40.9027 0.7745 37.8684 0H21.7823C18.0178 0 15.8998 4.353 18.2452 7.29763C24.573 15.2425 32 21.8039 32 21.8039C32 21.8039 34.5085 19.5876 37.8515 16.1721C37.8034 16.123 37.7547 16.0726 37.7067 16.0238Z" fill="#9BC4F9"/>
<path d="M55.9804 45.332C55.9804 36.7778 46.7489 25.3571 38.6098 16.9496C38.6098 16.9496 38.6096 16.9496 38.6096 16.9497C36.376 14.653 38.9074 17.2501 36.9185 15.241C36.2771 14.604 36.0023 13.7353 36.0945 12.8975H24.033C15.3289 21.2838 2.6084 35.2536 2.6084 45.2718C2.6084 45.4428 2.61002 45.6135 2.6134 45.7836C2.8109 55.9318 11.2205 64.0001 21.3705 64.0001H39.4819C48.5083 62.88 55.9804 55.3023 55.9804 45.332Z" fill="#9BC4F9"/>
<path d="M38.673 7.29763C36.9415 9.4715 35.1279 11.5414 33.4065 13.402C34.5599 14.5224 35.7759 15.735 37.0172 17.0173C39.587 14.4353 42.7914 11.0181 45.7549 7.2975C48.1002 4.353 45.9822 0 42.2177 0H35.1359C38.9002 0 41.0182 4.353 38.673 7.29763Z" fill="#7FB2F9"/>
<path d="M39.967 12.8975H33.87C33.7151 13.0667 33.5601 13.2362 33.4065 13.4022C42.0879 21.8356 54.3097 35.4517 54.3097 45.272C54.3097 45.443 54.3081 45.6136 54.3047 45.7837C54.1072 55.9318 45.6976 64.0001 35.5475 64.0001H42.6294C52.7794 64.0001 61.189 55.9318 61.3866 45.7837C61.3899 45.6135 61.3916 45.4428 61.3916 45.272C61.3916 35.2536 48.6711 21.2838 39.967 12.8975Z" fill="#7FB2F9"/>
<path d="M37.7067 16.0238C37.7062 16.0233 37.7059 16.0229 37.7055 16.0224L36.9187 15.2408C35.8643 14.1934 35.7949 12.5213 36.7358 11.3882H21.6018C20.3019 11.3882 19.248 12.4419 19.248 13.7419C19.248 15.0418 20.3018 16.0957 21.6018 16.0957H37.7769C37.7535 16.0721 37.7299 16.0476 37.7067 16.0238Z" fill="#E7A561"/>
<path d="M32 55.6578C40.4026 55.6578 47.2143 48.8461 47.2143 40.4435C47.2143 32.0409 40.4026 25.2292 32 25.2292C23.5974 25.2292 16.7858 32.0409 16.7858 40.4435C16.7858 48.8461 23.5974 55.6578 32 55.6578Z" fill="#FFF0AF"/>
<path d="M32 25.2292C30.7633 25.2292 29.5615 25.3779 28.4104 25.6564C35.0805 27.2699 40.035 33.2776 40.035 40.4435C40.035 47.6094 35.0804 53.6171 28.4104 55.2306C29.5615 55.5091 30.7633 55.6578 32 55.6578C40.4027 55.6578 47.2143 48.8461 47.2143 40.4435C47.2143 32.0409 40.4027 25.2292 32 25.2292Z" fill="#FFE07D"/>
<path d="M33.9365 39.443C33.5514 39.3069 33.1962 39.1765 32.8669 39.0505V33.5563C33.8326 33.7412 34.4109 34.2364 34.4556 34.2759C34.8479 34.632 35.4546 34.6057 35.8145 34.2155C36.1761 33.8234 36.1515 33.2124 35.7594 32.8508C35.6969 32.793 34.6222 31.8265 32.8667 31.6013V30.412C32.8667 29.8787 32.4344 29.4463 31.901 29.4463C31.3675 29.4463 30.9352 29.8787 30.9352 30.412V31.6759C30.7399 31.7154 30.54 31.765 30.3355 31.8267C28.8046 32.2878 27.6602 33.5997 27.3492 35.25C27.0665 36.7504 27.544 38.1947 28.5956 39.0194C29.1817 39.4792 29.9166 39.9 30.9352 40.3479V47.2144C29.9739 47.1642 29.3581 46.9654 28.3054 46.2767C27.8592 45.9847 27.2605 46.1098 26.9685 46.5562C26.6765 47.0025 26.8016 47.6012 27.248 47.8932C28.6816 48.831 29.6484 49.0884 30.9352 49.1463V50.475C30.9352 51.0084 31.3676 51.4408 31.901 51.4408C32.4345 51.4408 32.8667 51.0084 32.8667 50.475V49.0745C35.3502 48.6402 36.8002 46.6168 37.1177 44.7277C37.5189 42.3423 36.2701 40.2679 33.9365 39.443ZM29.7876 37.4995C29.3057 37.1215 29.0987 36.3967 29.2474 35.6078C29.3861 34.8718 29.8911 33.9778 30.8926 33.6762C30.907 33.6718 30.921 33.6685 30.9352 33.6643V38.2117C30.4654 37.9705 30.0904 37.737 29.7876 37.4995ZM35.213 44.4074C35.0267 45.5153 34.2282 46.6959 32.8667 47.091V41.1117C33.005 41.1618 33.1467 41.2127 33.2925 41.2642C35.4374 42.0223 35.3047 43.8617 35.213 44.4074Z" fill="#E49542"/>
<path d="M44.752 13.7421C44.752 12.4422 43.6982 11.3883 42.3982 11.3883H35.2279C34.2089 12.5159 34.2555 14.2453 35.3337 15.3164L36.1184 16.0957H42.3982C43.6982 16.0957 44.752 15.0419 44.752 13.7421Z" fill="#DF751C"/>
</svg>
