<svg width="64" height="64" viewBox="0 0 64 64" fill="none" xmlns="http://www.w3.org/2000/svg">
<g clip-path="url(#clip0)">
<path d="M31.9506 4.64376e-05C17.8966 0.0266714 6.44237 11.5552 6.50237 25.6091C6.50312 25.7823 6.50562 25.9551 6.50975 26.1276C6.6385 31.4401 8.552 36.5551 11.8285 40.7388L28.8404 62.4611C30.4471 64.5127 33.5526 64.5127 35.1594 62.4611L52.17 40.7403C55.4715 36.5246 57.387 31.3639 57.4926 26.0103C57.496 25.8398 57.4976 25.6689 57.4976 25.4977C57.4976 11.3993 46.0552 -0.0265786 31.9506 4.64376e-05Z" fill="#9BC4F9"/>
<path d="M57.4979 25.4984C57.4979 25.6688 57.4967 25.8404 57.4928 26.0108C57.3869 31.3644 55.4717 36.5244 52.1702 40.7409L35.1594 62.4612C33.639 64.4023 30.7789 64.5068 29.114 62.7761C30.4653 62.9607 31.8954 62.4598 32.8246 61.2738L49.8353 39.5536C53.1368 35.3383 55.052 30.1771 55.1579 24.8235C55.1618 24.6531 55.163 24.4827 55.163 24.3111C55.163 14.8532 50.0134 6.59695 42.365 2.19458C51.2822 6.1672 57.4979 15.1062 57.4979 25.4984Z" fill="#7FB2F9"/>
<path d="M31.9999 42.8166C41.8987 42.8166 49.9232 34.792 49.9232 24.8932C49.9232 14.9944 41.8987 6.96985 31.9999 6.96985C22.101 6.96985 14.0765 14.9944 14.0765 24.8932C14.0765 34.792 22.101 42.8166 31.9999 42.8166Z" fill="#FAF7F7"/>
<path d="M49.923 24.8931C49.923 34.7924 41.8991 42.8163 31.9999 42.8163C28.226 42.8163 24.7245 41.6508 21.836 39.658C24.2352 40.8505 26.9405 41.5204 29.8019 41.5204C39.7011 41.5204 47.7264 33.4951 47.7264 23.5972C47.7264 17.4731 44.6546 12.0666 39.9684 8.83362C45.8691 11.7674 49.923 17.8579 49.923 24.8931Z" fill="#EDE1DD"/>
<path d="M29.5186 33.0868C28.769 33.0868 28.0472 32.796 27.5067 32.2735L22.6852 27.6135C21.5356 26.5022 21.5044 24.6693 22.6155 23.5197C23.7266 22.3702 25.5591 22.3383 26.7095 23.45L29.4011 26.0513L37.1755 17.631C38.2601 16.4561 40.0917 16.3831 41.2666 17.4677C42.4412 18.5523 42.5144 20.3841 41.4296 21.5588L31.6459 32.1556C31.1174 32.7282 30.3801 33.0635 29.6011 33.0857C29.5736 33.0865 29.5461 33.0868 29.5186 33.0868Z" fill="#9BC4F9"/>
<path d="M41.4294 21.5595L31.6463 32.1556C31.1171 32.7286 30.3801 33.063 29.6006 33.0861C29.5735 33.0861 29.5464 33.0873 29.518 33.0873C28.7694 33.0873 28.0466 32.7957 27.5071 32.273L26.1339 30.9448C26.5353 31.1501 26.9831 31.2585 27.4413 31.2585C27.4684 31.2585 27.4955 31.2585 27.5239 31.2572C28.3021 31.2352 29.0391 30.8997 29.5683 30.3267L39.3514 19.7306C40.1129 18.9072 40.3039 17.7585 39.9438 16.7725C40.4226 16.8796 40.8808 17.1106 41.2666 17.4681C42.4413 18.5522 42.5148 20.3836 41.4294 21.5595Z" fill="#7FB2F9"/>
</g>
<defs>
<clipPath id="clip0">
<rect width="64" height="64" fill="white"/>
</clipPath>
</defs>
</svg>
