<svg width="64" height="64" viewBox="0 0 64 64" fill="none" xmlns="http://www.w3.org/2000/svg">
<path d="M50.5744 33.9846H51.3036C53.8831 33.9846 55.9681 31.8676 55.9161 29.2763C55.8655 26.7503 53.7389 24.7575 51.2124 24.7575H38.0969C37.7682 24.7575 37.4602 24.6979 37.1797 24.5908C36.0198 24.148 34.7763 23.9674 33.5347 23.9674H32.7199C30.7548 23.9674 29.5241 21.843 30.5018 20.1383C32.2108 17.1583 33.4503 13.9328 34.1768 10.5752L34.8438 7.4924C35.5385 5.22177 35.3628 3.38853 34.5925 1.99063L32.0773 1.35815C31.2634 2.07176 30.7365 2.9796 30.4955 4.1203L29.9613 6.64898C29.2331 10.0949 27.9652 13.4042 26.2041 16.4543L22.7573 22.4244C20.9335 25.5833 17.563 27.5293 13.9154 27.5293V58.4547H19.8952C22.3104 58.4547 24.6941 59.0037 26.866 60.0604C29.0378 61.1171 31.4214 61.6661 33.8368 61.6661H46.0815H47.2085V61.504C49.1682 60.9714 50.6097 59.1808 50.6097 57.0524C50.6097 54.9242 49.1682 53.1335 47.2085 52.601V52.4389H48.5487C51.0966 52.4389 53.1622 50.3734 53.1622 47.8253C53.1622 45.2774 51.0967 43.2118 48.5487 43.2118H50.5747C53.1227 43.2118 55.1882 41.1463 55.1882 38.5982C55.188 36.0502 53.1225 33.9846 50.5744 33.9846Z" fill="#FFDDCE"/>
<path d="M33.658 6.26721L32.555 11.3653C31.8285 14.7228 30.589 17.9484 28.88 20.9284C27.9024 22.633 29.1331 24.7575 31.0981 24.7575H38.097C36.1318 24.7575 34.9013 22.633 35.8789 20.9284C37.5879 17.9484 38.8274 14.7228 39.5538 11.3653L40.6569 6.26721C41.2498 3.46122 39.4558 0.705979 36.6498 0.113104C34.9503 -0.245939 33.2704 0.271495 32.0773 1.35807C33.3899 2.55823 34.0523 4.40115 33.658 6.26721Z" fill="#FFCBBE"/>
<path d="M56.432 33.9848H57.1611C59.7406 33.9848 61.8256 31.8678 61.7737 29.2765C61.7231 26.7505 59.5964 24.7577 57.0699 24.7577H53.0657H50.0662C52.5801 24.7577 54.7051 26.7286 54.774 29.2415C54.8456 31.8488 52.7533 33.9848 50.1623 33.9848H49.4331C51.9811 33.9848 54.0467 36.0503 54.0467 38.5983C54.0467 41.1464 51.9812 43.2119 49.4331 43.2119H47.4071C49.9551 43.2119 52.0207 45.2774 52.0207 47.8254C52.0207 50.3735 49.9551 52.439 47.4071 52.439H46.067V52.6011C48.0266 53.1337 49.4681 54.9243 49.4681 57.0527C49.4681 59.181 48.0266 60.9716 46.067 61.5042V61.6663H46.0813H51.8534H53.0658V61.5042C55.0255 60.9716 56.467 59.181 56.467 57.0527C56.467 54.9812 55.1014 53.2295 53.2216 52.6464C53.1298 52.618 53.0658 52.5351 53.0658 52.439H54.406C56.954 52.439 59.0195 50.3735 59.0195 47.8254C59.0195 45.2775 56.954 43.2119 54.406 43.2119H56.4319C58.9799 43.2119 61.0454 41.1464 61.0454 38.5983C61.0456 36.0503 58.9801 33.9848 56.432 33.9848Z" fill="#FFCBBE"/>
<path d="M12.0383 55.8041C13.7446 55.8041 15.128 54.4208 15.128 52.7144V25.2657C15.128 24.7037 14.5839 23.7144 13.756 23.7144H7.22277C5.5673 23.7144 4.22522 25.0564 4.22522 26.7119V55.0813L5.20184 55.8041H12.0383Z" fill="#9BC4F9"/>
<path d="M14.4827 23.7144H13.756C14.1063 24.2049 14.3132 24.805 14.3132 25.4539V52.0837C14.3132 53.7392 12.9711 55.0813 11.3156 55.0813H4.22522V59.0025C4.22522 60.658 5.5673 62.0001 7.22277 62.0001H14.4827C16.1382 62.0001 17.4803 60.658 17.4803 59.0025V26.7119C17.4801 25.0564 16.1382 23.7144 14.4827 23.7144Z" fill="#7FB2F9"/>
<path d="M56.432 34.9203H44.2538C43.7371 34.9203 43.3183 34.5015 43.3183 33.9848C43.3183 33.4681 43.7371 33.0492 44.2538 33.0492H56.432C56.9487 33.0492 57.3676 33.4681 57.3676 33.9848C57.3676 34.5015 56.9488 34.9203 56.432 34.9203Z" fill="#FFCBBE"/>
<path d="M52.7103 44.1474H44.2538C43.7371 44.1474 43.3183 43.7285 43.3183 43.2118C43.3183 42.695 43.7371 42.2762 44.2538 42.2762H52.7103C53.227 42.2762 53.6459 42.6951 53.6459 43.2118C53.6459 43.7285 53.227 44.1474 52.7103 44.1474Z" fill="#FFCBBE"/>
<path d="M51.3692 53.3747H45.5413C45.0246 53.3747 44.6057 52.9558 44.6057 52.4391C44.6057 51.9224 45.0246 51.5035 45.5413 51.5035H51.3692C51.8859 51.5035 52.3048 51.9224 52.3048 52.4391C52.3048 52.9558 51.886 53.3747 51.3692 53.3747Z" fill="#FFCBBE"/>
</svg>
